<svg width="645" height="459" xmlns="http://www.w3.org/2000/svg" xmlns:xlink="http://www.w3.org/1999/xlink" overflow="hidden"><defs><clipPath id="clip0"><rect x="271" y="163" width="645" height="459"/></clipPath></defs><g clip-path="url(#clip0)" transform="translate(-271 -163)"><path d="M601.5 455.5C601.5 451.082 605.082 447.5 609.5 447.5L671.5 447.5C675.918 447.5 679.5 451.082 679.5 455.5L679.5 487.5C679.5 491.918 675.918 495.5 671.5 495.5L609.5 495.5C605.082 495.5 601.5 491.918 601.5 487.5Z" stroke="#000000" stroke-width="1.33333" stroke-miterlimit="8" fill="#E2F0D9" fill-rule="evenodd"/><text font-family="Times New Roman,Times New Roman_MSFontService,sans-serif" font-weight="700" font-size="24" transform="translate(614.658 480)">right</text><path d="M1-2.99398e-06 1.00008 28.3993-0.999915 28.3993-1 2.99398e-06ZM4.00008 27.0659 0.000104987 35.0659-3.99992 27.0659Z" transform="matrix(1 0 0 -1 640 447.066)"/><path d="M436.5 454.5C436.5 450.082 440.082 446.5 444.5 446.5L507.5 446.5C511.918 446.5 515.5 450.082 515.5 454.5L515.5 486.5C515.5 490.918 511.918 494.5 507.5 494.5L444.5 494.5C440.082 494.5 436.5 490.918 436.5 486.5Z" stroke="#000000" stroke-width="1.33333" stroke-miterlimit="8" fill="#E2F0D9" fill-rule="evenodd"/><text font-family="Times New Roman,Times New Roman_MSFontService,sans-serif" font-weight="700" font-size="24" transform="translate(458.917 478)">left</text><path d="M1-2.99398e-06 1.00008 28.3993-0.999915 28.3993-1 2.99398e-06ZM4.00008 27.0659 0.000104987 35.0659-3.99992 27.0659Z" transform="matrix(1 0 0 -1 476 446.066)"/><path d="M272 178.667C272 171.119 278.119 165 285.667 165L490.333 165C497.881 165 504 171.119 504 178.667L504 233.333C504 240.881 497.881 247 490.333 247L285.667 247C278.119 247 272 240.881 272 233.333Z" stroke="#000000" stroke-width="2" stroke-miterlimit="8" fill="#DEEBF7" fill-rule="evenodd"/><text font-family="DengXian,DengXian_MSFontService,sans-serif" font-weight="700" font-size="20" transform="translate(285.784 213)">最大长度：<tspan font-family="Times New Roman,Times New Roman_MSFontService,sans-serif" font-size="20" x="100" y="0">3</tspan></text><rect x="353.5" y="285.5" width="82" height="82" stroke="#000000" stroke-width="1.33333" stroke-miterlimit="8" fill="#FBE5D6"/><text font-family="Times New Roman,Times New Roman_MSFontService,sans-serif" font-weight="700" font-size="27" transform="translate(387.303 336)">a</text><rect x="435.5" y="285.5" width="82" height="82" stroke="#000000" stroke-width="1.33333" stroke-miterlimit="8" fill="#FFE699"/><text font-family="Times New Roman,Times New Roman_MSFontService,sans-serif" font-weight="700" font-size="24" transform="translate(469.506 334)">b</text><rect x="517.5" y="285.5" width="82" height="82" stroke="#000000" stroke-width="1.33333" stroke-miterlimit="8" fill="#FFE699"/><text font-family="Times New Roman,Times New Roman_MSFontService,sans-serif" font-weight="700" font-size="24" transform="translate(553.043 334)">c</text><rect x="599.5" y="285.5" width="83" height="82" stroke="#000000" stroke-width="1.33333" stroke-miterlimit="8" fill="#FBE5D6"/><text font-family="Times New Roman,Times New Roman_MSFontService,sans-serif" font-weight="700" font-size="24" transform="translate(633.914 334)">b</text><rect x="682.5" y="285.5" width="82" height="82" stroke="#000000" stroke-width="1.33333" stroke-miterlimit="8" fill="#FBE5D6"/><text font-family="Times New Roman,Times New Roman_MSFontService,sans-serif" font-weight="700" font-size="24" transform="translate(716.117 334)">b<tspan font-size="20" x="-327.737" y="64">0</tspan><tspan font-size="20" x="-245.533" y="64">1</tspan><tspan font-size="20" x="-163.33" y="64">2</tspan><tspan font-size="20" x="-81.126" y="64">3</tspan><tspan font-size="20" x="1.07758" y="64">4</tspan><tspan font-size="24" x="-374.337" y="230">left</tspan><tspan font-family="DengXian,DengXian_MSFontService,sans-serif" font-size="24" x="-341.003" y="230">往右移动，直到当前字符串中没有重复字符</tspan>b<tspan font-size="24" x="-381.17" y="267">left+1</tspan><tspan font-family="DengXian,DengXian_MSFontService,sans-serif" font-size="24" x="-322.17" y="267">，当前结果去除字符</tspan>a<tspan font-family="DengXian,DengXian_MSFontService,sans-serif" font-size="24" x="-94.1699" y="267">，但是字符</tspan>b<tspan font-family="DengXian,DengXian_MSFontService,sans-serif" font-size="24" x="39.1635" y="267">依然重复</tspan></text><path d="M660 178.667C660 171.119 666.119 165 673.667 165L900.333 165C907.881 165 914 171.119 914 178.667L914 233.333C914 240.881 907.881 247 900.333 247L673.667 247C666.119 247 660 240.881 660 233.333Z" stroke="#000000" stroke-width="2" stroke-miterlimit="8" fill="#DEEBF7" fill-rule="evenodd"/><text font-family="DengXian,DengXian_MSFontService,sans-serif" font-weight="700" font-size="20" transform="translate(673.625 201)">当前结果：<tspan font-family="Times New Roman,Times New Roman_MSFontService,sans-serif" font-size="20" x="105" y="0">{"</tspan><tspan font-family="Times New Roman,Times New Roman_MSFontService,sans-serif" font-size="20" x="124" y="0">b","c</tspan><tspan font-family="Times New Roman,Times New Roman_MSFontService,sans-serif" font-size="20" x="171.333" y="0">"}</tspan><tspan font-size="20" x="0" y="24">当前长度：</tspan><tspan font-family="Times New Roman,Times New Roman_MSFontService,sans-serif" font-size="20" x="100" y="24">3</tspan></text></g></svg>