<svg width="623" height="504" xmlns="http://www.w3.org/2000/svg" xmlns:xlink="http://www.w3.org/1999/xlink" overflow="hidden"><defs><clipPath id="clip0"><rect x="271" y="163" width="623" height="504"/></clipPath></defs><g clip-path="url(#clip0)" transform="translate(-271 -163)"><path d="M601.5 455.5C601.5 451.082 605.082 447.5 609.5 447.5L671.5 447.5C675.918 447.5 679.5 451.082 679.5 455.5L679.5 487.5C679.5 491.918 675.918 495.5 671.5 495.5L609.5 495.5C605.082 495.5 601.5 491.918 601.5 487.5Z" stroke="#000000" stroke-width="1.33333" stroke-miterlimit="8" fill="#E2F0D9" fill-rule="evenodd"/><text font-family="Times New Roman,Times New Roman_MSFontService,sans-serif" font-weight="700" font-size="24" transform="translate(614.658 480)">right</text><path d="M1-2.99398e-06 1.00008 28.3993-0.999915 28.3993-1 2.99398e-06ZM4.00008 27.0659 0.000104987 35.0659-3.99992 27.0659Z" transform="matrix(1 0 0 -1 640 447.066)"/><path d="M519.5 455.5C519.5 451.082 523.082 447.5 527.5 447.5L589.5 447.5C593.918 447.5 597.5 451.082 597.5 455.5L597.5 487.5C597.5 491.918 593.918 495.5 589.5 495.5L527.5 495.5C523.082 495.5 519.5 491.918 519.5 487.5Z" stroke="#000000" stroke-width="1.33333" stroke-miterlimit="8" fill="#E2F0D9" fill-rule="evenodd"/><text font-family="Times New Roman,Times New Roman_MSFontService,sans-serif" font-weight="700" font-size="24" transform="translate(541.121 480)">left</text><path d="M1-2.99398e-06 1.00008 28.3993-0.999915 28.3993-1 2.99398e-06ZM4.00008 27.0659 0.000104987 35.0659-3.99992 27.0659Z" transform="matrix(1 0 0 -1 558 447.066)"/><path d="M272 178.667C272 171.119 278.119 165 285.667 165L490.333 165C497.881 165 504 171.119 504 178.667L504 233.333C504 240.881 497.881 247 490.333 247L285.667 247C278.119 247 272 240.881 272 233.333Z" stroke="#000000" stroke-width="2" stroke-miterlimit="8" fill="#DEEBF7" fill-rule="evenodd"/><text font-family="DengXian,DengXian_MSFontService,sans-serif" font-weight="700" font-size="20" transform="translate(285.784 213)">最大长度：<tspan font-family="Times New Roman,Times New Roman_MSFontService,sans-serif" font-size="20" x="100" y="0">3</tspan></text><rect x="353.5" y="285.5" width="82" height="82" stroke="#000000" stroke-width="1.33333" stroke-miterlimit="8" fill="#FBE5D6"/><text font-family="Times New Roman,Times New Roman_MSFontService,sans-serif" font-weight="700" font-size="27" transform="translate(387.303 336)">a</text><rect x="435.5" y="285.5" width="82" height="82" stroke="#000000" stroke-width="1.33333" stroke-miterlimit="8" fill="#FBE5D6"/><text font-family="Times New Roman,Times New Roman_MSFontService,sans-serif" font-weight="700" font-size="24" transform="translate(469.506 334)">b</text><rect x="517.5" y="285.5" width="82" height="82" stroke="#000000" stroke-width="1.33333" stroke-miterlimit="8" fill="#FFE699"/><text font-family="Times New Roman,Times New Roman_MSFontService,sans-serif" font-weight="700" font-size="24" transform="translate(553.043 334)">c</text><rect x="599.5" y="285.5" width="83" height="82" stroke="#000000" stroke-width="1.33333" stroke-miterlimit="8" fill="#FFE699"/><text font-family="Times New Roman,Times New Roman_MSFontService,sans-serif" font-weight="700" font-size="24" transform="translate(633.914 334)">b</text><rect x="682.5" y="285.5" width="82" height="82" stroke="#000000" stroke-width="1.33333" stroke-miterlimit="8" fill="#FBE5D6"/><text font-family="Times New Roman,Times New Roman_MSFontService,sans-serif" font-weight="700" font-size="24" transform="translate(716.117 334)">b<tspan font-size="20" x="-327.737" y="64">0</tspan><tspan font-size="20" x="-245.533" y="64">1</tspan><tspan font-size="20" x="-163.33" y="64">2</tspan><tspan font-size="20" x="-81.126" y="64">3</tspan><tspan font-size="20" x="1.07758" y="64">4</tspan><tspan font-size="24" x="-385.239" y="230">left</tspan><tspan font-family="DengXian,DengXian_MSFontService,sans-serif" font-size="24" x="-351.906" y="230">往右移动，直到当前字符串中没有重复字符</tspan><tspan font-size="24" x="104.094" y="230">b</tspan></text><path d="M660 178.667C660 171.119 666.119 165 673.667 165L878.333 165C885.881 165 892 171.119 892 178.667L892 233.333C892 240.881 885.881 247 878.333 247L673.667 247C666.119 247 660 240.881 660 233.333Z" stroke="#000000" stroke-width="2" stroke-miterlimit="8" fill="#DEEBF7" fill-rule="evenodd"/><text font-family="DengXian,DengXian_MSFontService,sans-serif" font-weight="700" font-size="20" transform="translate(673.625 201)">当前结果：<tspan font-family="Times New Roman,Times New Roman_MSFontService,sans-serif" font-size="20" x="100" y="0">{"</tspan><tspan font-family="Times New Roman,Times New Roman_MSFontService,sans-serif" font-size="20" x="119" y="0">c","b</tspan><tspan font-family="Times New Roman,Times New Roman_MSFontService,sans-serif" font-size="20" x="166.333" y="0">"}</tspan><tspan font-size="20" x="0" y="24">当前长度：</tspan><tspan font-family="Times New Roman,Times New Roman_MSFontService,sans-serif" font-size="20" x="100" y="24">2</tspan><tspan font-family="Times New Roman,Times New Roman_MSFontService,sans-serif" font-size="24" x="-338.115" y="404">left+1</tspan><tspan font-size="24" x="-279.115" y="404">，当前结果去除字符</tspan><tspan font-family="Times New Roman,Times New Roman_MSFontService,sans-serif" font-size="24" x="-63.1145" y="404">b</tspan><tspan font-size="24" x="-49.7812" y="404">，此时字符</tspan><tspan font-family="Times New Roman,Times New Roman_MSFontService,sans-serif" font-size="24" x="70.2188" y="404">b</tspan><tspan font-size="24" x="83.5522" y="404">不重复</tspan><tspan font-size="24" x="-223.414" y="445">更新当前结果和当前长度</tspan></text></g></svg>