<svg width="623" height="413" xmlns="http://www.w3.org/2000/svg" xmlns:xlink="http://www.w3.org/1999/xlink" overflow="hidden"><defs><clipPath id="clip0"><rect x="271" y="163" width="623" height="413"/></clipPath></defs><g clip-path="url(#clip0)" transform="translate(-271 -163)"><path d="M272 178.667C272 171.119 278.119 165 285.667 165L490.333 165C497.881 165 504 171.119 504 178.667L504 233.333C504 240.881 497.881 247 490.333 247L285.667 247C278.119 247 272 240.881 272 233.333Z" stroke="#000000" stroke-width="2" stroke-miterlimit="8" fill="#DEEBF7" fill-rule="evenodd"/><text font-family="DengXian,DengXian_MSFontService,sans-serif" font-weight="700" font-size="20" transform="translate(285.784 213)">最大长度：<tspan font-family="Times New Roman,Times New Roman_MSFontService,sans-serif" font-size="20" x="100" y="0">0</tspan></text><path d="M660 178.667C660 171.119 666.119 165 673.667 165L878.333 165C885.881 165 892 171.119 892 178.667L892 233.333C892 240.881 885.881 247 878.333 247L673.667 247C666.119 247 660 240.881 660 233.333Z" stroke="#000000" stroke-width="2" stroke-miterlimit="8" fill="#DEEBF7" fill-rule="evenodd"/><text font-family="DengXian,DengXian_MSFontService,sans-serif" font-weight="700" font-size="20" transform="translate(673.625 201)">当前结果：<tspan font-family="Times New Roman,Times New Roman_MSFontService,sans-serif" font-size="20" x="100" y="0">set()</tspan><tspan font-size="20" x="0" y="24">当前长度：</tspan><tspan font-family="Times New Roman,Times New Roman_MSFontService,sans-serif" font-size="20" x="100" y="24">0</tspan></text><rect x="353.5" y="285.5" width="82" height="82" stroke="#000000" stroke-width="1.33333" stroke-miterlimit="8" fill="#FBE5D6"/><text font-family="Times New Roman,Times New Roman_MSFontService,sans-serif" font-weight="700" font-size="27" transform="translate(387.303 336)">a</text><rect x="435.5" y="285.5" width="82" height="82" stroke="#000000" stroke-width="1.33333" stroke-miterlimit="8" fill="#FBE5D6"/><text font-family="Times New Roman,Times New Roman_MSFontService,sans-serif" font-weight="700" font-size="24" transform="translate(469.506 334)">b</text><rect x="517.5" y="285.5" width="82" height="82" stroke="#000000" stroke-width="1.33333" stroke-miterlimit="8" fill="#FBE5D6"/><text font-family="Times New Roman,Times New Roman_MSFontService,sans-serif" font-weight="700" font-size="24" transform="translate(553.043 334)">c</text><rect x="599.5" y="285.5" width="83" height="82" stroke="#000000" stroke-width="1.33333" stroke-miterlimit="8" fill="#FBE5D6"/><text font-family="Times New Roman,Times New Roman_MSFontService,sans-serif" font-weight="700" font-size="24" transform="translate(633.914 334)">b</text><rect x="682.5" y="285.5" width="82" height="82" stroke="#000000" stroke-width="1.33333" stroke-miterlimit="8" fill="#FBE5D6"/><text font-family="Times New Roman,Times New Roman_MSFontService,sans-serif" font-weight="700" font-size="24" transform="translate(716.117 334)">b<tspan font-size="20" x="-327.737" y="64">0</tspan><tspan font-size="20" x="-245.533" y="64">1</tspan><tspan font-size="20" x="-163.33" y="64">2</tspan><tspan font-size="20" x="-81.126" y="64">3</tspan><tspan font-size="20" x="1.07758" y="64">4</tspan><tspan font-family="DengXian,DengXian_MSFontService,sans-serif" font-size="24" x="-337.906" y="167">初始化最大长度、当前结果、当前长度</tspan><tspan font-family="DengXian,DengXian_MSFontService,sans-serif" font-size="24" x="-313.906" y="221">利用集合来快速判断字符是否重复</tspan></text></g></svg>