<svg width="645" height="413" xmlns="http://www.w3.org/2000/svg" xmlns:xlink="http://www.w3.org/1999/xlink" overflow="hidden"><defs><clipPath id="clip0"><rect x="271" y="163" width="645" height="413"/></clipPath></defs><g clip-path="url(#clip0)" transform="translate(-271 -163)"><path d="M519.5 452.5C519.5 448.082 523.082 444.5 527.5 444.5L589.5 444.5C593.918 444.5 597.5 448.082 597.5 452.5L597.5 484.5C597.5 488.918 593.918 492.5 589.5 492.5L527.5 492.5C523.082 492.5 519.5 488.918 519.5 484.5Z" stroke="#000000" stroke-width="1.33333" stroke-miterlimit="8" fill="#E2F0D9" fill-rule="evenodd"/><text font-family="Times New Roman,Times New Roman_MSFontService,sans-serif" font-weight="700" font-size="24" transform="translate(532.454 477)">right</text><path d="M1-2.99398e-06 1.00008 28.3993-0.999915 28.3993-1 2.99398e-06ZM4.00008 27.0659 0.000104987 35.0659-3.99992 27.0659Z" transform="matrix(1 0 0 -1 558 444.066)"/><path d="M354.5 452.5C354.5 448.082 358.082 444.5 362.5 444.5L424.5 444.5C428.918 444.5 432.5 448.082 432.5 452.5L432.5 484.5C432.5 488.918 428.918 492.5 424.5 492.5L362.5 492.5C358.082 492.5 354.5 488.918 354.5 484.5Z" stroke="#000000" stroke-width="1.33333" stroke-miterlimit="8" fill="#E2F0D9" fill-rule="evenodd"/><text font-family="Times New Roman,Times New Roman_MSFontService,sans-serif" font-weight="700" font-size="24" transform="translate(376.714 477)">left</text><path d="M1-2.99398e-06 1.00008 28.3993-0.999915 28.3993-1 2.99398e-06ZM4.00008 27.0659 0.000104987 35.0659-3.99992 27.0659Z" transform="matrix(1 0 0 -1 393 444.066)"/><path d="M272 178.667C272 171.119 278.119 165 285.667 165L490.333 165C497.881 165 504 171.119 504 178.667L504 233.333C504 240.881 497.881 247 490.333 247L285.667 247C278.119 247 272 240.881 272 233.333Z" stroke="#000000" stroke-width="2" stroke-miterlimit="8" fill="#DEEBF7" fill-rule="evenodd"/><text font-family="DengXian,DengXian_MSFontService,sans-serif" font-weight="700" font-size="20" transform="translate(285.784 213)">最大长度：<tspan font-family="Times New Roman,Times New Roman_MSFontService,sans-serif" font-size="20" x="100" y="0">3</tspan></text><path d="M660 178.667C660 171.119 666.119 165 673.667 165L900.333 165C907.881 165 914 171.119 914 178.667L914 233.333C914 240.881 907.881 247 900.333 247L673.667 247C666.119 247 660 240.881 660 233.333Z" stroke="#000000" stroke-width="2" stroke-miterlimit="8" fill="#DEEBF7" fill-rule="evenodd"/><text font-family="DengXian,DengXian_MSFontService,sans-serif" font-weight="700" font-size="20" transform="translate(673.625 201)">当前结果：<tspan font-family="Times New Roman,Times New Roman_MSFontService,sans-serif" font-size="20" x="105" y="0">{"</tspan><tspan font-family="Times New Roman,Times New Roman_MSFontService,sans-serif" font-size="20" x="124" y="0">a","b","c</tspan><tspan font-family="Times New Roman,Times New Roman_MSFontService,sans-serif" font-size="20" x="208.667" y="0">"}</tspan><tspan font-size="20" x="0" y="24">当前长度：</tspan><tspan font-family="Times New Roman,Times New Roman_MSFontService,sans-serif" font-size="20" x="100" y="24">3</tspan></text><rect x="353.5" y="285.5" width="82" height="82" stroke="#000000" stroke-width="1.33333" stroke-miterlimit="8" fill="#FFE699"/><text font-family="Times New Roman,Times New Roman_MSFontService,sans-serif" font-weight="700" font-size="27" transform="translate(387.303 336)">a</text><rect x="435.5" y="285.5" width="82" height="82" stroke="#000000" stroke-width="1.33333" stroke-miterlimit="8" fill="#FFE699"/><text font-family="Times New Roman,Times New Roman_MSFontService,sans-serif" font-weight="700" font-size="24" transform="translate(469.506 334)">b</text><rect x="517.5" y="285.5" width="82" height="82" stroke="#000000" stroke-width="1.33333" stroke-miterlimit="8" fill="#FFE699"/><text font-family="Times New Roman,Times New Roman_MSFontService,sans-serif" font-weight="700" font-size="24" transform="translate(553.043 334)">c</text><rect x="599.5" y="285.5" width="83" height="82" stroke="#000000" stroke-width="1.33333" stroke-miterlimit="8" fill="#FBE5D6"/><text font-family="Times New Roman,Times New Roman_MSFontService,sans-serif" font-weight="700" font-size="24" transform="translate(633.914 334)">b</text><rect x="682.5" y="285.5" width="82" height="82" stroke="#000000" stroke-width="1.33333" stroke-miterlimit="8" fill="#FBE5D6"/><text font-family="Times New Roman,Times New Roman_MSFontService,sans-serif" font-weight="700" font-size="24" transform="translate(716.117 334)">b<tspan font-size="20" x="-327.737" y="64">0</tspan><tspan font-size="20" x="-245.533" y="64">1</tspan><tspan font-size="20" x="-163.33" y="64">2</tspan><tspan font-size="20" x="-81.126" y="64">3</tspan><tspan font-size="20" x="1.07758" y="64">4</tspan><tspan font-family="DengXian,DengXian_MSFontService,sans-serif" font-size="24" x="-361.906" y="221">当前结果长度大于最大长度，更新最大长度</tspan></text></g></svg>