<svg width="723" height="282" xmlns="http://www.w3.org/2000/svg" xmlns:xlink="http://www.w3.org/1999/xlink" overflow="hidden"><defs><clipPath id="clip0"><rect x="166" y="267" width="723" height="282"/></clipPath></defs><g clip-path="url(#clip0)" transform="translate(-166 -267)"><rect x="168.5" y="269.5" width="82" height="82" stroke="#000000" stroke-width="1.33333" stroke-miterlimit="8" fill="#FBE5D6"/><text font-family="Times New Roman,Times New Roman_MSFontService,sans-serif" font-weight="700" font-size="27" transform="translate(202.046 320)">1</text><rect x="250.5" y="269.5" width="82" height="82" stroke="#000000" stroke-width="1.33333" stroke-miterlimit="8" fill="#FBE5D6"/><text font-family="Times New Roman,Times New Roman_MSFontService,sans-serif" font-weight="700" font-size="24" transform="translate(284.916 318)">2</text><rect x="332.5" y="269.5" width="82" height="82" stroke="#000000" stroke-width="1.33333" stroke-miterlimit="8" fill="#FBE5D6"/><text font-family="Times New Roman,Times New Roman_MSFontService,sans-serif" font-weight="700" font-size="24" transform="translate(367.119 318)">3<tspan font-size="20" x="-163.996" y="64">0</tspan><tspan font-size="20" x="-81.7927" y="64">1</tspan><tspan font-size="20" x="0.410919" y="64">2</tspan></text><path d="M251.5 430.5C251.5 426.082 255.082 422.5 259.5 422.5L321.5 422.5C325.918 422.5 329.5 426.082 329.5 430.5L329.5 462.5C329.5 466.918 325.918 470.5 321.5 470.5L259.5 470.5C255.082 470.5 251.5 466.918 251.5 462.5Z" stroke="#000000" stroke-width="1.33333" stroke-miterlimit="8" fill="#E2F0D9" fill-rule="evenodd"/><text font-family="Times New Roman,Times New Roman_MSFontService,sans-serif" font-weight="700" font-size="24" transform="translate(270.327 454)">mid</text><path d="M1-2.99399e-06 1.00008 28.3992-0.999915 28.3992-1 2.99399e-06ZM4.00008 27.0658 0.000104987 35.0658-3.99992 27.0658Z" transform="matrix(1 0 0 -1 290 422.066)"/><rect x="558.5" y="269.5" width="82" height="82" stroke="#000000" stroke-width="1.33333" stroke-miterlimit="8" fill="#FBE5D6"/><text font-family="Times New Roman,Times New Roman_MSFontService,sans-serif" font-weight="700" font-size="27" transform="translate(592.712 320)">1</text><rect x="640.5" y="269.5" width="83" height="82" stroke="#000000" stroke-width="1.33333" stroke-miterlimit="8" fill="#FBE5D6"/><text font-family="Times New Roman,Times New Roman_MSFontService,sans-serif" font-weight="700" font-size="24" transform="translate(675.583 318)">2</text><rect x="723.5" y="269.5" width="82" height="82" stroke="#000000" stroke-width="1.33333" stroke-miterlimit="8" fill="#FBE5D6"/><text font-family="Times New Roman,Times New Roman_MSFontService,sans-serif" font-weight="700" font-size="24" transform="translate(757.786 318)">3<tspan font-size="20" x="-163.996" y="64">0</tspan><tspan font-size="20" x="-81.7927" y="64">1</tspan><tspan font-size="20" x="0.41095" y="64">2</tspan></text><rect x="805.5" y="269.5" width="82" height="82" stroke="#000000" stroke-width="1.33333" stroke-miterlimit="8" fill="#FBE5D6"/><text font-family="Times New Roman,Times New Roman_MSFontService,sans-serif" font-weight="700" font-size="24" transform="translate(839.99 318)">4<tspan font-family="DengXian,DengXian_MSFontService,sans-serif" font-size="24" x="-603.663" y="209">中位数为</tspan><tspan font-size="24" x="-507.663" y="209">2</tspan><tspan font-family="DengXian,DengXian_MSFontService,sans-serif" font-size="24" x="-223.305" y="209">中位数为</tspan>(2+3)/2=2.5</text><path d="M642.5 430.5C642.5 426.082 646.082 422.5 650.5 422.5L712.5 422.5C716.918 422.5 720.5 426.082 720.5 430.5L720.5 462.5C720.5 466.918 716.918 470.5 712.5 470.5L650.5 470.5C646.082 470.5 642.5 466.918 642.5 462.5Z" stroke="#000000" stroke-width="1.33333" stroke-miterlimit="8" fill="#E2F0D9" fill-rule="evenodd"/><text font-family="Times New Roman,Times New Roman_MSFontService,sans-serif" font-weight="700" font-size="20" transform="translate(654.327 453)">mid_1</text><path d="M1-2.99399e-06 1.00008 28.3992-0.999915 28.3992-1 2.99399e-06ZM4.00008 27.0658 0.000104987 35.0658-3.99992 27.0658Z" transform="matrix(1 0 0 -1 681 422.066)"/><path d="M724.5 430.5C724.5 426.082 728.082 422.5 732.5 422.5L794.5 422.5C798.918 422.5 802.5 426.082 802.5 430.5L802.5 462.5C802.5 466.918 798.918 470.5 794.5 470.5L732.5 470.5C728.082 470.5 724.5 466.918 724.5 462.5Z" stroke="#000000" stroke-width="1.33333" stroke-miterlimit="8" fill="#E2F0D9" fill-rule="evenodd"/><text font-family="Times New Roman,Times New Roman_MSFontService,sans-serif" font-weight="700" font-size="20" transform="translate(736.53 453)">mid_2</text><path d="M1-2.99399e-06 1.00008 28.3992-0.999915 28.3992-1 2.99399e-06ZM4.00008 27.0658 0.000104987 35.0658-3.99992 27.0658Z" transform="matrix(1 0 0 -1 763 422.066)"/><text font-family="Times New Roman,Times New Roman_MSFontService,sans-serif" font-weight="700" font-size="20" transform="translate(840.401 382)">3</text></g></svg>