<svg width="1141" height="208" xmlns="http://www.w3.org/2000/svg" xmlns:xlink="http://www.w3.org/1999/xlink" overflow="hidden"><defs><clipPath id="clip0"><rect x="72" y="72" width="1141" height="208"/></clipPath><clipPath id="clip1"><rect x="235" y="71" width="42" height="203"/></clipPath><clipPath id="clip2"><rect x="276" y="71" width="41" height="203"/></clipPath><clipPath id="clip3"><rect x="316" y="71" width="42" height="203"/></clipPath><clipPath id="clip4"><rect x="357" y="71" width="42" height="203"/></clipPath><clipPath id="clip5"><rect x="398" y="71" width="41" height="203"/></clipPath><clipPath id="clip6"><rect x="438" y="71" width="42" height="203"/></clipPath><clipPath id="clip7"><rect x="479" y="71" width="42" height="203"/></clipPath><clipPath id="clip8"><rect x="520" y="71" width="41" height="203"/></clipPath><clipPath id="clip9"><rect x="560" y="71" width="42" height="203"/></clipPath><clipPath id="clip10"><rect x="601" y="71" width="42" height="203"/></clipPath><clipPath id="clip11"><rect x="642" y="71" width="41" height="203"/></clipPath><clipPath id="clip12"><rect x="682" y="71" width="42" height="203"/></clipPath><clipPath id="clip13"><rect x="723" y="71" width="42" height="203"/></clipPath><clipPath id="clip14"><rect x="764" y="71" width="41" height="203"/></clipPath><clipPath id="clip15"><rect x="804" y="71" width="42" height="203"/></clipPath><clipPath id="clip16"><rect x="845" y="71" width="42" height="203"/></clipPath><clipPath id="clip17"><rect x="886" y="71" width="41" height="203"/></clipPath><clipPath id="clip18"><rect x="926" y="71" width="42" height="203"/></clipPath><clipPath id="clip19"><rect x="967" y="71" width="41" height="203"/></clipPath><clipPath id="clip20"><rect x="1007" y="71" width="42" height="203"/></clipPath><clipPath id="clip21"><rect x="1048" y="71" width="42" height="203"/></clipPath><clipPath id="clip22"><rect x="1089" y="71" width="41" height="203"/></clipPath><clipPath id="clip23"><rect x="1129" y="71" width="42" height="203"/></clipPath><clipPath id="clip24"><rect x="1170" y="71" width="42" height="203"/></clipPath><clipPath id="clip25"><rect x="73" y="134" width="163" height="147"/></clipPath><clipPath id="clip26"><rect x="73" y="134" width="163" height="147"/></clipPath></defs><g clip-path="url(#clip0)" transform="translate(-72 -72)"><path d="M73.006 75.5555 235.607 75.5555 235.607 114.489 73.006 114.489Z" fill="#D9D9D9" fill-rule="evenodd"/><path d="M235.607 75.5555 560.808 75.5555 560.808 114.489 235.607 114.489Z" fill="#FFF2CC" fill-rule="evenodd"/><path d="M560.808 75.5555 886.009 75.5555 886.009 114.489 560.808 114.489Z" fill="#FFF2CC" fill-rule="evenodd"/><path d="M886.009 75.5555 1211.21 75.5555 1211.21 114.489 886.009 114.489Z" fill="#FFF2CC" fill-rule="evenodd"/><path d="M73.006 114.489 235.607 114.489 235.607 153.422 73.006 153.422Z" fill="#D9D9D9" fill-rule="evenodd"/><path d="M235.607 114.489 560.808 114.489 560.808 153.422 235.607 153.422Z" fill="#FFF2CC" fill-rule="evenodd"/><path d="M560.808 114.489 886.009 114.489 886.009 153.422 560.808 153.422Z" fill="#FFF2CC" fill-rule="evenodd"/><path d="M886.009 114.489 1211.21 114.489 1211.21 153.422 886.009 153.422Z" fill="#FFF2CC" fill-rule="evenodd"/><path d="M73.006 153.422 235.607 153.422 235.607 192.355 73.006 192.355Z" fill="#D9D9D9" fill-rule="evenodd"/><path d="M235.607 153.422 276.257 153.422 276.257 192.355 235.607 192.355Z" fill="#C5E0B4" fill-rule="evenodd"/><path d="M276.257 153.422 316.907 153.422 316.907 192.355 276.257 192.355Z" fill="#C5E0B4" fill-rule="evenodd"/><path d="M316.907 153.422 357.557 153.422 357.557 192.355 316.907 192.355Z" fill="#C5E0B4" fill-rule="evenodd"/><path d="M357.557 153.422 398.207 153.422 398.207 192.355 357.557 192.355Z" fill="#C5E0B4" fill-rule="evenodd"/><path d="M398.207 153.422 438.857 153.422 438.857 192.355 398.207 192.355Z" fill="#E2F0D9" fill-rule="evenodd"/><path d="M438.857 153.422 479.508 153.422 479.508 192.355 438.857 192.355Z" fill="#E2F0D9" fill-rule="evenodd"/><path d="M479.508 153.422 520.158 153.422 520.158 192.355 479.508 192.355Z" fill="#E2F0D9" fill-rule="evenodd"/><path d="M520.158 153.422 560.808 153.422 560.808 192.355 520.158 192.355Z" fill="#E2F0D9" fill-rule="evenodd"/><path d="M560.808 153.422 601.458 153.422 601.458 192.355 560.808 192.355Z" fill="#C5E0B4" fill-rule="evenodd"/><path d="M601.458 153.422 642.108 153.422 642.108 192.355 601.458 192.355Z" fill="#C5E0B4" fill-rule="evenodd"/><path d="M642.108 153.422 682.758 153.422 682.758 192.355 642.108 192.355Z" fill="#C5E0B4" fill-rule="evenodd"/><path d="M682.758 153.422 723.409 153.422 723.409 192.355 682.758 192.355Z" fill="#C5E0B4" fill-rule="evenodd"/><path d="M723.409 153.422 764.059 153.422 764.059 192.355 723.409 192.355Z" fill="#E2F0D9" fill-rule="evenodd"/><path d="M764.059 153.422 804.709 153.422 804.709 192.355 764.059 192.355Z" fill="#E2F0D9" fill-rule="evenodd"/><path d="M804.709 153.422 845.359 153.422 845.359 192.355 804.709 192.355Z" fill="#E2F0D9" fill-rule="evenodd"/><path d="M845.359 153.422 886.009 153.422 886.009 192.355 845.359 192.355Z" fill="#E2F0D9" fill-rule="evenodd"/><path d="M886.009 153.422 926.66 153.422 926.66 192.355 886.009 192.355Z" fill="#C5E0B4" fill-rule="evenodd"/><path d="M926.66 153.422 967.31 153.422 967.31 192.355 926.66 192.355Z" fill="#C5E0B4" fill-rule="evenodd"/><path d="M967.31 153.422 1007.96 153.422 1007.96 192.355 967.31 192.355Z" fill="#C5E0B4" fill-rule="evenodd"/><path d="M1007.96 153.422 1048.61 153.422 1048.61 192.355 1007.96 192.355Z" fill="#C5E0B4" fill-rule="evenodd"/><path d="M1048.61 153.422 1089.26 153.422 1089.26 192.355 1048.61 192.355Z" fill="#E2F0D9" fill-rule="evenodd"/><path d="M1089.26 153.422 1129.91 153.422 1129.91 192.355 1089.26 192.355Z" fill="#E2F0D9" fill-rule="evenodd"/><path d="M1129.91 153.422 1170.56 153.422 1170.56 192.355 1129.91 192.355Z" fill="#E2F0D9" fill-rule="evenodd"/><path d="M1170.56 153.422 1211.21 153.422 1211.21 192.355 1170.56 192.355Z" fill="#E2F0D9" fill-rule="evenodd"/><path d="M235.607 74.8888 235.607 193.022" stroke="#000000" stroke-width="1.33333" stroke-linejoin="round" stroke-miterlimit="10" fill="none" fill-rule="evenodd"/><path d="M276.257 152.755 276.257 193.022" stroke="#000000" stroke-width="1.33333" stroke-linejoin="round" stroke-miterlimit="10" fill="none" fill-rule="evenodd"/><path d="M316.907 152.755 316.907 193.022" stroke="#000000" stroke-width="1.33333" stroke-linejoin="round" stroke-miterlimit="10" fill="none" fill-rule="evenodd"/><path d="M357.557 152.755 357.557 193.022" stroke="#000000" stroke-width="1.33333" stroke-linejoin="round" stroke-miterlimit="10" fill="none" fill-rule="evenodd"/><path d="M398.207 152.755 398.207 193.022" stroke="#000000" stroke-width="1.33333" stroke-linejoin="round" stroke-miterlimit="10" fill="none" fill-rule="evenodd"/><path d="M438.857 152.755 438.857 193.022" stroke="#000000" stroke-width="1.33333" stroke-linejoin="round" stroke-miterlimit="10" fill="none" fill-rule="evenodd"/><path d="M479.508 152.755 479.508 193.022" stroke="#000000" stroke-width="1.33333" stroke-linejoin="round" stroke-miterlimit="10" fill="none" fill-rule="evenodd"/><path d="M520.158 152.755 520.158 193.022" stroke="#000000" stroke-width="1.33333" stroke-linejoin="round" stroke-miterlimit="10" fill="none" fill-rule="evenodd"/><path d="M560.808 74.8888 560.808 193.022" stroke="#000000" stroke-width="1.33333" stroke-linejoin="round" stroke-miterlimit="10" fill="none" fill-rule="evenodd"/><path d="M601.458 152.755 601.458 193.022" stroke="#000000" stroke-width="1.33333" stroke-linejoin="round" stroke-miterlimit="10" fill="none" fill-rule="evenodd"/><path d="M642.108 152.755 642.108 193.022" stroke="#000000" stroke-width="1.33333" stroke-linejoin="round" stroke-miterlimit="10" fill="none" fill-rule="evenodd"/><path d="M682.758 152.755 682.758 193.022" stroke="#000000" stroke-width="1.33333" stroke-linejoin="round" stroke-miterlimit="10" fill="none" fill-rule="evenodd"/><path d="M723.409 152.755 723.409 193.022" stroke="#000000" stroke-width="1.33333" stroke-linejoin="round" stroke-miterlimit="10" fill="none" fill-rule="evenodd"/><path d="M764.059 152.755 764.059 193.022" stroke="#000000" stroke-width="1.33333" stroke-linejoin="round" stroke-miterlimit="10" fill="none" fill-rule="evenodd"/><path d="M804.709 152.755 804.709 193.022" stroke="#000000" stroke-width="1.33333" stroke-linejoin="round" stroke-miterlimit="10" fill="none" fill-rule="evenodd"/><path d="M845.359 152.755 845.359 193.022" stroke="#000000" stroke-width="1.33333" stroke-linejoin="round" stroke-miterlimit="10" fill="none" fill-rule="evenodd"/><path d="M886.009 74.8888 886.009 193.022" stroke="#000000" stroke-width="1.33333" stroke-linejoin="round" stroke-miterlimit="10" fill="none" fill-rule="evenodd"/><path d="M926.66 152.755 926.66 193.022" stroke="#000000" stroke-width="1.33333" stroke-linejoin="round" stroke-miterlimit="10" fill="none" fill-rule="evenodd"/><path d="M967.31 152.755 967.31 193.022" stroke="#000000" stroke-width="1.33333" stroke-linejoin="round" stroke-miterlimit="10" fill="none" fill-rule="evenodd"/><path d="M1007.96 152.755 1007.96 193.022" stroke="#000000" stroke-width="1.33333" stroke-linejoin="round" stroke-miterlimit="10" fill="none" fill-rule="evenodd"/><path d="M1048.61 152.755 1048.61 193.022" stroke="#000000" stroke-width="1.33333" stroke-linejoin="round" stroke-miterlimit="10" fill="none" fill-rule="evenodd"/><path d="M1089.26 152.755 1089.26 193.022" stroke="#000000" stroke-width="1.33333" stroke-linejoin="round" stroke-miterlimit="10" fill="none" fill-rule="evenodd"/><path d="M1129.91 152.755 1129.91 193.022" stroke="#000000" stroke-width="1.33333" stroke-linejoin="round" stroke-miterlimit="10" fill="none" fill-rule="evenodd"/><path d="M1170.56 152.755 1170.56 193.022" stroke="#000000" stroke-width="1.33333" stroke-linejoin="round" stroke-miterlimit="10" fill="none" fill-rule="evenodd"/><path d="M72.3393 114.489 1211.88 114.489" stroke="#000000" stroke-width="1.33333" stroke-linejoin="round" stroke-miterlimit="10" fill="none" fill-rule="evenodd"/><path d="M72.3393 153.422 1211.88 153.422" stroke="#000000" stroke-width="1.33333" stroke-linejoin="round" stroke-miterlimit="10" fill="none" fill-rule="evenodd"/><path d="M73.006 74.8888 73.006 193.022" stroke="#000000" stroke-width="1.33333" stroke-linejoin="round" stroke-miterlimit="10" fill="none" fill-rule="evenodd"/><path d="M1211.21 74.8888 1211.21 193.022" stroke="#000000" stroke-width="1.33333" stroke-linejoin="round" stroke-miterlimit="10" fill="none" fill-rule="evenodd"/><path d="M72.3393 75.5555 1211.88 75.5555" stroke="#000000" stroke-width="1.33333" stroke-linejoin="round" stroke-miterlimit="10" fill="none" fill-rule="evenodd"/><path d="M72.3393 192.355 1211.88 192.355" stroke="#000000" stroke-width="1.33333" stroke-linejoin="round" stroke-miterlimit="10" fill="none" fill-rule="evenodd"/><text font-family="DengXian,DengXian_MSFontService,sans-serif" font-weight="400" font-size="17" transform="translate(136.973 96)">文本<tspan font-family="Times New Roman,Times New Roman_MSFontService,sans-serif" font-size="24" x="250.568" y="7">M</tspan><tspan font-family="Times New Roman,Times New Roman_MSFontService,sans-serif" font-size="24" x="581.102" y="7">a</tspan><tspan font-family="Times New Roman,Times New Roman_MSFontService,sans-serif" font-size="24" x="905.637" y="7">n</tspan><tspan font-size="17" x="-17.3333" y="39">十六进制</tspan><tspan font-family="Times New Roman,Times New Roman_MSFontService,sans-serif" font-size="24" x="237.234" y="46">0x4d</tspan><tspan font-family="Times New Roman,Times New Roman_MSFontService,sans-serif" font-size="24" x="562.436" y="46">0x61</tspan><tspan font-family="Times New Roman,Times New Roman_MSFontService,sans-serif" font-size="24" x="888.304" y="46">0x6e</tspan><tspan font-size="17" x="-8.66667" y="78">二进制</tspan></text><g clip-path="url(#clip1)"><text font-family="Times New Roman,Times New Roman_MSFontService,sans-serif" font-weight="400" font-size="24" transform="translate(249.932 181)">0</text></g><g clip-path="url(#clip2)"><text font-family="Times New Roman,Times New Roman_MSFontService,sans-serif" font-weight="400" font-size="24" transform="translate(290.582 181)">1</text></g><g clip-path="url(#clip3)"><text font-family="Times New Roman,Times New Roman_MSFontService,sans-serif" font-weight="400" font-size="24" transform="translate(331.232 181)">0</text></g><g clip-path="url(#clip4)"><text font-family="Times New Roman,Times New Roman_MSFontService,sans-serif" font-weight="400" font-size="24" transform="translate(371.882 181)">0</text></g><g clip-path="url(#clip5)"><text font-family="Times New Roman,Times New Roman_MSFontService,sans-serif" font-weight="400" font-size="24" transform="translate(412.532 181)">1</text></g><g clip-path="url(#clip6)"><text font-family="Times New Roman,Times New Roman_MSFontService,sans-serif" font-weight="400" font-size="24" transform="translate(453.183 181)">1</text></g><g clip-path="url(#clip7)"><text font-family="Times New Roman,Times New Roman_MSFontService,sans-serif" font-weight="400" font-size="24" transform="translate(493.833 181)">0</text></g><g clip-path="url(#clip8)"><text font-family="Times New Roman,Times New Roman_MSFontService,sans-serif" font-weight="400" font-size="24" transform="translate(534.483 181)">1</text></g><g clip-path="url(#clip9)"><text font-family="Times New Roman,Times New Roman_MSFontService,sans-serif" font-weight="400" font-size="24" transform="translate(575.133 181)">0</text></g><g clip-path="url(#clip10)"><text font-family="Times New Roman,Times New Roman_MSFontService,sans-serif" font-weight="400" font-size="24" transform="translate(615.783 181)">1</text></g><g clip-path="url(#clip11)"><text font-family="Times New Roman,Times New Roman_MSFontService,sans-serif" font-weight="400" font-size="24" transform="translate(656.433 181)">1</text></g><g clip-path="url(#clip12)"><text font-family="Times New Roman,Times New Roman_MSFontService,sans-serif" font-weight="400" font-size="24" transform="translate(697.084 181)">0</text></g><g clip-path="url(#clip13)"><text font-family="Times New Roman,Times New Roman_MSFontService,sans-serif" font-weight="400" font-size="24" transform="translate(737.734 181)">0</text></g><g clip-path="url(#clip14)"><text font-family="Times New Roman,Times New Roman_MSFontService,sans-serif" font-weight="400" font-size="24" transform="translate(778.384 181)">0</text></g><g clip-path="url(#clip15)"><text font-family="Times New Roman,Times New Roman_MSFontService,sans-serif" font-weight="400" font-size="24" transform="translate(819.034 181)">0</text></g><g clip-path="url(#clip16)"><text font-family="Times New Roman,Times New Roman_MSFontService,sans-serif" font-weight="400" font-size="24" transform="translate(859.684 181)">1</text></g><g clip-path="url(#clip17)"><text font-family="Times New Roman,Times New Roman_MSFontService,sans-serif" font-weight="400" font-size="24" transform="translate(900.335 181)">0</text></g><g clip-path="url(#clip18)"><text font-family="Times New Roman,Times New Roman_MSFontService,sans-serif" font-weight="400" font-size="24" transform="translate(940.985 181)">1</text></g><g clip-path="url(#clip19)"><text font-family="Times New Roman,Times New Roman_MSFontService,sans-serif" font-weight="400" font-size="24" transform="translate(981.635 181)">1</text></g><g clip-path="url(#clip20)"><text font-family="Times New Roman,Times New Roman_MSFontService,sans-serif" font-weight="400" font-size="24" transform="translate(1022.29 181)">0</text></g><g clip-path="url(#clip21)"><text font-family="Times New Roman,Times New Roman_MSFontService,sans-serif" font-weight="400" font-size="24" transform="translate(1062.94 181)">1</text></g><g clip-path="url(#clip22)"><text font-family="Times New Roman,Times New Roman_MSFontService,sans-serif" font-weight="400" font-size="24" transform="translate(1103.59 181)">1</text></g><g clip-path="url(#clip23)"><text font-family="Times New Roman,Times New Roman_MSFontService,sans-serif" font-weight="400" font-size="24" transform="translate(1144.24 181)">1</text></g><g clip-path="url(#clip24)"><text font-family="Times New Roman,Times New Roman_MSFontService,sans-serif" font-weight="400" font-size="24" transform="translate(1184.89 181)">0</text></g><path d="M73.006 192.29 235.607 192.29 235.607 231.223 73.006 231.223Z" fill="#D9D9D9" fill-rule="evenodd"/><path d="M235.607 192.29 479.508 192.29 479.508 231.223 235.607 231.223Z" fill="#FBE5D6" fill-rule="evenodd"/><path d="M479.508 192.29 723.409 192.29 723.409 231.223 479.508 231.223Z" fill="#FBE5D6" fill-rule="evenodd"/><path d="M723.409 192.29 967.31 192.29 967.31 231.223 723.409 231.223Z" fill="#FBE5D6" fill-rule="evenodd"/><path d="M967.31 192.29 1211.21 192.29 1211.21 231.223 967.31 231.223Z" fill="#FBE5D6" fill-rule="evenodd"/><path d="M73.006 231.223 235.607 231.223 235.607 270.156 73.006 270.156Z" fill="#D9D9D9" fill-rule="evenodd"/><path d="M235.607 231.223 479.508 231.223 479.508 270.156 235.607 270.156Z" fill="#FBE5D6" fill-rule="evenodd"/><path d="M479.508 231.223 723.409 231.223 723.409 270.156 479.508 270.156Z" fill="#FBE5D6" fill-rule="evenodd"/><path d="M723.409 231.223 967.31 231.223 967.31 270.156 723.409 270.156Z" fill="#FBE5D6" fill-rule="evenodd"/><path d="M967.31 231.223 1211.21 231.223 1211.21 270.156 967.31 270.156Z" fill="#FBE5D6" fill-rule="evenodd"/><path d="M235.607 191.623 235.607 270.823" stroke="#000000" stroke-width="1.33333" stroke-linejoin="round" stroke-miterlimit="10" fill="none" fill-rule="evenodd"/><path d="M479.508 191.623 479.508 270.823" stroke="#000000" stroke-width="1.33333" stroke-linejoin="round" stroke-miterlimit="10" fill="none" fill-rule="evenodd"/><path d="M723.409 191.623 723.409 270.823" stroke="#000000" stroke-width="1.33333" stroke-linejoin="round" stroke-miterlimit="10" fill="none" fill-rule="evenodd"/><path d="M967.31 191.623 967.31 270.823" stroke="#000000" stroke-width="1.33333" stroke-linejoin="round" stroke-miterlimit="10" fill="none" fill-rule="evenodd"/><path d="M72.3393 231.223 1211.88 231.223" stroke="#000000" stroke-width="1.33333" stroke-linejoin="round" stroke-miterlimit="10" fill="none" fill-rule="evenodd"/><path d="M73.006 191.623 73.006 270.823" stroke="#000000" stroke-width="1.33333" stroke-linejoin="round" stroke-miterlimit="10" fill="none" fill-rule="evenodd"/><path d="M1211.21 191.623 1211.21 270.823" stroke="#000000" stroke-width="1.33333" stroke-linejoin="round" stroke-miterlimit="10" fill="none" fill-rule="evenodd"/><path d="M72.3393 192.29 1211.88 192.29" stroke="#000000" stroke-width="1.33333" stroke-linejoin="round" stroke-miterlimit="10" fill="none" fill-rule="evenodd"/><path d="M72.3393 270.156 1211.88 270.156" stroke="#000000" stroke-width="1.33333" stroke-linejoin="round" stroke-miterlimit="10" fill="none" fill-rule="evenodd"/><g clip-path="url(#clip25)"><text font-family="Times New Roman,Times New Roman_MSFontService,sans-serif" font-weight="400" font-size="17" transform="translate(83.3896 213)">Base64 </text></g><g clip-path="url(#clip26)"><text font-family="DengXian,DengXian_MSFontService,sans-serif" font-weight="400" font-size="17" transform="translate(138.556 213)">字符集索引</text></g><text font-family="Times New Roman,Times New Roman_MSFontService,sans-serif" font-weight="400" font-size="24" transform="translate(345.557 220)">19<tspan font-size="24" x="243.901" y="0">22</tspan><tspan font-size="24" x="493.802" y="0">5</tspan><tspan font-size="24" x="731.703" y="0">46</tspan><tspan font-family="DengXian,DengXian_MSFontService,sans-serif" font-size="17" x="-255.668" y="32">对应</tspan><tspan font-size="17" x="-216.668" y="32">Base64 </tspan><tspan font-family="DengXian,DengXian_MSFontService,sans-serif" font-size="17" x="-161.501" y="32">字符</tspan><tspan font-size="24" x="4.66666" y="39">T</tspan><tspan font-size="24" x="244.568" y="39">W</tspan><tspan font-size="24" x="493.136" y="39">F</tspan><tspan font-size="24" x="737.703" y="39">u</tspan></text></g></svg>