<svg width="1141" height="207" xmlns="http://www.w3.org/2000/svg" xmlns:xlink="http://www.w3.org/1999/xlink" overflow="hidden"><defs><clipPath id="clip0"><rect x="72" y="371" width="1141" height="207"/></clipPath><clipPath id="clip1"><rect x="235" y="370" width="42" height="202"/></clipPath><clipPath id="clip2"><rect x="276" y="370" width="41" height="202"/></clipPath><clipPath id="clip3"><rect x="316" y="370" width="42" height="202"/></clipPath><clipPath id="clip4"><rect x="357" y="370" width="42" height="202"/></clipPath><clipPath id="clip5"><rect x="398" y="370" width="41" height="202"/></clipPath><clipPath id="clip6"><rect x="438" y="370" width="42" height="202"/></clipPath><clipPath id="clip7"><rect x="479" y="370" width="42" height="202"/></clipPath><clipPath id="clip8"><rect x="520" y="370" width="41" height="202"/></clipPath><clipPath id="clip9"><rect x="560" y="370" width="42" height="202"/></clipPath><clipPath id="clip10"><rect x="601" y="370" width="42" height="202"/></clipPath><clipPath id="clip11"><rect x="642" y="370" width="41" height="202"/></clipPath><clipPath id="clip12"><rect x="682" y="370" width="42" height="202"/></clipPath><clipPath id="clip13"><rect x="73" y="432" width="163" height="147"/></clipPath><clipPath id="clip14"><rect x="73" y="432" width="163" height="147"/></clipPath></defs><g clip-path="url(#clip0)" transform="translate(-72 -371)"><path d="M73.006 373.807 235.607 373.807 235.607 412.74 73.006 412.74Z" fill="#D9D9D9" fill-rule="evenodd"/><path d="M235.607 373.807 560.808 373.807 560.808 412.74 235.607 412.74Z" fill="#FFF2CC" fill-rule="evenodd"/><path d="M560.808 373.807 886.009 373.807 886.009 412.74 560.808 412.74Z" fill="#EDEDED" fill-rule="evenodd"/><path d="M886.009 373.807 1211.21 373.807 1211.21 412.74 886.009 412.74Z" fill="#EDEDED" fill-rule="evenodd"/><path d="M73.006 412.74 235.607 412.74 235.607 451.674 73.006 451.674Z" fill="#D9D9D9" fill-rule="evenodd"/><path d="M235.607 412.74 560.808 412.74 560.808 451.674 235.607 451.674Z" fill="#FFF2CC" fill-rule="evenodd"/><path d="M560.808 412.74 886.009 412.74 886.009 451.674 560.808 451.674Z" fill="#EDEDED" fill-rule="evenodd"/><path d="M886.009 412.74 1211.21 412.74 1211.21 451.674 886.009 451.674Z" fill="#EDEDED" fill-rule="evenodd"/><path d="M73.006 451.674 235.607 451.674 235.607 490.607 73.006 490.607Z" fill="#D9D9D9" fill-rule="evenodd"/><path d="M235.607 451.674 276.257 451.674 276.257 490.607 235.607 490.607Z" fill="#C5E0B4" fill-rule="evenodd"/><path d="M276.257 451.674 316.907 451.674 316.907 490.607 276.257 490.607Z" fill="#C5E0B4" fill-rule="evenodd"/><path d="M316.907 451.674 357.557 451.674 357.557 490.607 316.907 490.607Z" fill="#C5E0B4" fill-rule="evenodd"/><path d="M357.557 451.674 398.207 451.674 398.207 490.607 357.557 490.607Z" fill="#C5E0B4" fill-rule="evenodd"/><path d="M398.207 451.674 438.857 451.674 438.857 490.607 398.207 490.607Z" fill="#E2F0D9" fill-rule="evenodd"/><path d="M438.857 451.674 479.508 451.674 479.508 490.607 438.857 490.607Z" fill="#E2F0D9" fill-rule="evenodd"/><path d="M479.508 451.674 520.158 451.674 520.158 490.607 479.508 490.607Z" fill="#E2F0D9" fill-rule="evenodd"/><path d="M520.158 451.674 560.808 451.674 560.808 490.607 520.158 490.607Z" fill="#E2F0D9" fill-rule="evenodd"/><path d="M560.808 451.674 601.458 451.674 601.458 490.607 560.808 490.607Z" fill="#DAE3F3" fill-rule="evenodd"/><path d="M601.458 451.674 642.108 451.674 642.108 490.607 601.458 490.607Z" fill="#DAE3F3" fill-rule="evenodd"/><path d="M642.108 451.674 682.758 451.674 682.758 490.607 642.108 490.607Z" fill="#DAE3F3" fill-rule="evenodd"/><path d="M682.758 451.674 723.409 451.674 723.409 490.607 682.758 490.607Z" fill="#DAE3F3" fill-rule="evenodd"/><path d="M723.409 451.674 764.059 451.674 764.059 490.607 723.409 490.607Z" fill="#EDEDED" fill-rule="evenodd"/><path d="M764.059 451.674 804.709 451.674 804.709 490.607 764.059 490.607Z" fill="#EDEDED" fill-rule="evenodd"/><path d="M804.709 451.674 845.359 451.674 845.359 490.607 804.709 490.607Z" fill="#EDEDED" fill-rule="evenodd"/><path d="M845.359 451.674 886.009 451.674 886.009 490.607 845.359 490.607Z" fill="#EDEDED" fill-rule="evenodd"/><path d="M886.009 451.674 926.66 451.674 926.66 490.607 886.009 490.607Z" fill="#EDEDED" fill-rule="evenodd"/><path d="M926.66 451.674 967.31 451.674 967.31 490.607 926.66 490.607Z" fill="#EDEDED" fill-rule="evenodd"/><path d="M967.31 451.674 1007.96 451.674 1007.96 490.607 967.31 490.607Z" fill="#EDEDED" fill-rule="evenodd"/><path d="M1007.96 451.674 1048.61 451.674 1048.61 490.607 1007.96 490.607Z" fill="#EDEDED" fill-rule="evenodd"/><path d="M1048.61 451.674 1089.26 451.674 1089.26 490.607 1048.61 490.607Z" fill="#EDEDED" fill-rule="evenodd"/><path d="M1089.26 451.674 1129.91 451.674 1129.91 490.607 1089.26 490.607Z" fill="#EDEDED" fill-rule="evenodd"/><path d="M1129.91 451.674 1170.56 451.674 1170.56 490.607 1129.91 490.607Z" fill="#EDEDED" fill-rule="evenodd"/><path d="M1170.56 451.674 1211.21 451.674 1211.21 490.607 1170.56 490.607Z" fill="#EDEDED" fill-rule="evenodd"/><path d="M235.607 373.14 235.607 491.274" stroke="#000000" stroke-width="1.33333" stroke-linejoin="round" stroke-miterlimit="10" fill="none" fill-rule="evenodd"/><path d="M276.257 451.007 276.257 491.274" stroke="#000000" stroke-width="1.33333" stroke-linejoin="round" stroke-miterlimit="10" fill="none" fill-rule="evenodd"/><path d="M316.907 451.007 316.907 491.274" stroke="#000000" stroke-width="1.33333" stroke-linejoin="round" stroke-miterlimit="10" fill="none" fill-rule="evenodd"/><path d="M357.557 451.007 357.557 491.274" stroke="#000000" stroke-width="1.33333" stroke-linejoin="round" stroke-miterlimit="10" fill="none" fill-rule="evenodd"/><path d="M398.207 451.007 398.207 491.274" stroke="#000000" stroke-width="1.33333" stroke-linejoin="round" stroke-miterlimit="10" fill="none" fill-rule="evenodd"/><path d="M438.857 451.007 438.857 491.274" stroke="#000000" stroke-width="1.33333" stroke-linejoin="round" stroke-miterlimit="10" fill="none" fill-rule="evenodd"/><path d="M479.508 451.007 479.508 491.274" stroke="#000000" stroke-width="1.33333" stroke-linejoin="round" stroke-miterlimit="10" fill="none" fill-rule="evenodd"/><path d="M520.158 451.007 520.158 491.274" stroke="#000000" stroke-width="1.33333" stroke-linejoin="round" stroke-miterlimit="10" fill="none" fill-rule="evenodd"/><path d="M560.808 373.14 560.808 491.274" stroke="#000000" stroke-width="1.33333" stroke-linejoin="round" stroke-miterlimit="10" fill="none" fill-rule="evenodd"/><path d="M601.458 451.007 601.458 491.274" stroke="#000000" stroke-width="1.33333" stroke-linejoin="round" stroke-miterlimit="10" fill="none" fill-rule="evenodd"/><path d="M642.108 451.007 642.108 491.274" stroke="#000000" stroke-width="1.33333" stroke-linejoin="round" stroke-miterlimit="10" fill="none" fill-rule="evenodd"/><path d="M682.758 451.007 682.758 491.274" stroke="#000000" stroke-width="1.33333" stroke-linejoin="round" stroke-miterlimit="10" fill="none" fill-rule="evenodd"/><path d="M723.409 451.007 723.409 491.274" stroke="#000000" stroke-width="1.33333" stroke-linejoin="round" stroke-miterlimit="10" fill="none" fill-rule="evenodd"/><path d="M764.059 451.007 764.059 491.274" stroke="#000000" stroke-width="1.33333" stroke-linejoin="round" stroke-miterlimit="10" fill="none" fill-rule="evenodd"/><path d="M804.709 451.007 804.709 491.274" stroke="#000000" stroke-width="1.33333" stroke-linejoin="round" stroke-miterlimit="10" fill="none" fill-rule="evenodd"/><path d="M845.359 451.007 845.359 491.274" stroke="#000000" stroke-width="1.33333" stroke-linejoin="round" stroke-miterlimit="10" fill="none" fill-rule="evenodd"/><path d="M886.009 373.14 886.009 491.274" stroke="#000000" stroke-width="1.33333" stroke-linejoin="round" stroke-miterlimit="10" fill="none" fill-rule="evenodd"/><path d="M926.66 451.007 926.66 491.274" stroke="#000000" stroke-width="1.33333" stroke-linejoin="round" stroke-miterlimit="10" fill="none" fill-rule="evenodd"/><path d="M967.31 451.007 967.31 491.274" stroke="#000000" stroke-width="1.33333" stroke-linejoin="round" stroke-miterlimit="10" fill="none" fill-rule="evenodd"/><path d="M1007.96 451.007 1007.96 491.274" stroke="#000000" stroke-width="1.33333" stroke-linejoin="round" stroke-miterlimit="10" fill="none" fill-rule="evenodd"/><path d="M1048.61 451.007 1048.61 491.274" stroke="#000000" stroke-width="1.33333" stroke-linejoin="round" stroke-miterlimit="10" fill="none" fill-rule="evenodd"/><path d="M1089.26 451.007 1089.26 491.274" stroke="#000000" stroke-width="1.33333" stroke-linejoin="round" stroke-miterlimit="10" fill="none" fill-rule="evenodd"/><path d="M1129.91 451.007 1129.91 491.274" stroke="#000000" stroke-width="1.33333" stroke-linejoin="round" stroke-miterlimit="10" fill="none" fill-rule="evenodd"/><path d="M1170.56 451.007 1170.56 491.274" stroke="#000000" stroke-width="1.33333" stroke-linejoin="round" stroke-miterlimit="10" fill="none" fill-rule="evenodd"/><path d="M72.3393 412.74 1211.88 412.74" stroke="#000000" stroke-width="1.33333" stroke-linejoin="round" stroke-miterlimit="10" fill="none" fill-rule="evenodd"/><path d="M72.3393 451.674 1211.88 451.674" stroke="#000000" stroke-width="1.33333" stroke-linejoin="round" stroke-miterlimit="10" fill="none" fill-rule="evenodd"/><path d="M73.006 373.14 73.006 491.274" stroke="#000000" stroke-width="1.33333" stroke-linejoin="round" stroke-miterlimit="10" fill="none" fill-rule="evenodd"/><path d="M1211.21 373.14 1211.21 491.274" stroke="#000000" stroke-width="1.33333" stroke-linejoin="round" stroke-miterlimit="10" fill="none" fill-rule="evenodd"/><path d="M72.3393 373.807 1211.88 373.807" stroke="#000000" stroke-width="1.33333" stroke-linejoin="round" stroke-miterlimit="10" fill="none" fill-rule="evenodd"/><path d="M72.3393 490.607 1211.88 490.607" stroke="#000000" stroke-width="1.33333" stroke-linejoin="round" stroke-miterlimit="10" fill="none" fill-rule="evenodd"/><text font-family="DengXian,DengXian_MSFontService,sans-serif" font-weight="400" font-size="17" transform="translate(136.973 395)">文本<tspan font-family="Times New Roman,Times New Roman_MSFontService,sans-serif" font-size="24" x="250.568" y="7">M</tspan><tspan font-size="17" x="-17.3333" y="39">十六进制</tspan><tspan font-family="Times New Roman,Times New Roman_MSFontService,sans-serif" font-size="24" x="237.234" y="46">0x4d</tspan><tspan font-size="17" x="-8.66667" y="77">二进制</tspan></text><g clip-path="url(#clip1)"><text font-family="Times New Roman,Times New Roman_MSFontService,sans-serif" font-weight="400" font-size="24" transform="translate(249.932 479)">0</text></g><g clip-path="url(#clip2)"><text font-family="Times New Roman,Times New Roman_MSFontService,sans-serif" font-weight="400" font-size="24" transform="translate(290.582 479)">1</text></g><g clip-path="url(#clip3)"><text font-family="Times New Roman,Times New Roman_MSFontService,sans-serif" font-weight="400" font-size="24" transform="translate(331.232 479)">0</text></g><g clip-path="url(#clip4)"><text font-family="Times New Roman,Times New Roman_MSFontService,sans-serif" font-weight="400" font-size="24" transform="translate(371.882 479)">0</text></g><g clip-path="url(#clip5)"><text font-family="Times New Roman,Times New Roman_MSFontService,sans-serif" font-weight="400" font-size="24" transform="translate(412.532 479)">1</text></g><g clip-path="url(#clip6)"><text font-family="Times New Roman,Times New Roman_MSFontService,sans-serif" font-weight="400" font-size="24" transform="translate(453.183 479)">1</text></g><g clip-path="url(#clip7)"><text font-family="Times New Roman,Times New Roman_MSFontService,sans-serif" font-weight="400" font-size="24" transform="translate(493.833 479)">0</text></g><g clip-path="url(#clip8)"><text font-family="Times New Roman,Times New Roman_MSFontService,sans-serif" font-weight="400" font-size="24" transform="translate(534.483 479)">1</text></g><g clip-path="url(#clip9)"><text font-family="Times New Roman,Times New Roman_MSFontService,sans-serif" font-weight="400" font-size="24" transform="translate(575.133 479)">0</text></g><g clip-path="url(#clip10)"><text font-family="Times New Roman,Times New Roman_MSFontService,sans-serif" font-weight="400" font-size="24" transform="translate(615.783 479)">0</text></g><g clip-path="url(#clip11)"><text font-family="Times New Roman,Times New Roman_MSFontService,sans-serif" font-weight="400" font-size="24" transform="translate(656.433 479)">0</text></g><g clip-path="url(#clip12)"><text font-family="Times New Roman,Times New Roman_MSFontService,sans-serif" font-weight="400" font-size="24" transform="translate(697.084 479)">0</text></g><path d="M73.006 490.541 235.607 490.541 235.607 529.474 73.006 529.474Z" fill="#D9D9D9" fill-rule="evenodd"/><path d="M235.607 490.541 479.508 490.541 479.508 529.474 235.607 529.474Z" fill="#FBE5D6" fill-rule="evenodd"/><path d="M479.508 490.541 723.409 490.541 723.409 529.474 479.508 529.474Z" fill="#FBE5D6" fill-rule="evenodd"/><path d="M723.409 490.541 967.31 490.541 967.31 529.474 723.409 529.474Z" fill="#EDEDED" fill-rule="evenodd"/><path d="M967.31 490.541 1211.21 490.541 1211.21 529.474 967.31 529.474Z" fill="#EDEDED" fill-rule="evenodd"/><path d="M73.006 529.474 235.607 529.474 235.607 568.408 73.006 568.408Z" fill="#D9D9D9" fill-rule="evenodd"/><path d="M235.607 529.474 479.508 529.474 479.508 568.408 235.607 568.408Z" fill="#FBE5D6" fill-rule="evenodd"/><path d="M479.508 529.474 723.409 529.474 723.409 568.408 479.508 568.408Z" fill="#FBE5D6" fill-rule="evenodd"/><path d="M723.409 529.474 967.31 529.474 967.31 568.408 723.409 568.408Z" fill="#FBE5D6" fill-rule="evenodd"/><path d="M967.31 529.474 1211.21 529.474 1211.21 568.408 967.31 568.408Z" fill="#FBE5D6" fill-rule="evenodd"/><path d="M235.607 489.874 235.607 569.074" stroke="#000000" stroke-width="1.33333" stroke-linejoin="round" stroke-miterlimit="10" fill="none" fill-rule="evenodd"/><path d="M479.508 489.874 479.508 569.074" stroke="#000000" stroke-width="1.33333" stroke-linejoin="round" stroke-miterlimit="10" fill="none" fill-rule="evenodd"/><path d="M723.409 489.874 723.409 569.074" stroke="#000000" stroke-width="1.33333" stroke-linejoin="round" stroke-miterlimit="10" fill="none" fill-rule="evenodd"/><path d="M967.31 489.874 967.31 569.074" stroke="#000000" stroke-width="1.33333" stroke-linejoin="round" stroke-miterlimit="10" fill="none" fill-rule="evenodd"/><path d="M72.3393 529.474 1211.88 529.474" stroke="#000000" stroke-width="1.33333" stroke-linejoin="round" stroke-miterlimit="10" fill="none" fill-rule="evenodd"/><path d="M73.006 489.874 73.006 569.074" stroke="#000000" stroke-width="1.33333" stroke-linejoin="round" stroke-miterlimit="10" fill="none" fill-rule="evenodd"/><path d="M1211.21 489.874 1211.21 569.074" stroke="#000000" stroke-width="1.33333" stroke-linejoin="round" stroke-miterlimit="10" fill="none" fill-rule="evenodd"/><path d="M72.3393 490.541 1211.88 490.541" stroke="#000000" stroke-width="1.33333" stroke-linejoin="round" stroke-miterlimit="10" fill="none" fill-rule="evenodd"/><path d="M72.3393 568.408 1211.88 568.408" stroke="#000000" stroke-width="1.33333" stroke-linejoin="round" stroke-miterlimit="10" fill="none" fill-rule="evenodd"/><g clip-path="url(#clip13)"><text font-family="Times New Roman,Times New Roman_MSFontService,sans-serif" font-weight="400" font-size="17" transform="translate(83.3896 511)">Base64 </text></g><g clip-path="url(#clip14)"><text font-family="DengXian,DengXian_MSFontService,sans-serif" font-weight="400" font-size="17" transform="translate(138.556 511)">字符集索引</text></g><text font-family="Times New Roman,Times New Roman_MSFontService,sans-serif" font-weight="400" font-size="24" transform="translate(345.557 518)">19<tspan font-size="24" x="243.901" y="0">16</tspan><tspan font-family="DengXian,DengXian_MSFontService,sans-serif" font-size="24" x="475.802" y="0">填充</tspan><tspan font-family="DengXian,DengXian_MSFontService,sans-serif" font-size="24" x="719.703" y="0">填充</tspan><tspan font-family="DengXian,DengXian_MSFontService,sans-serif" font-size="17" x="-255.668" y="32">对应</tspan><tspan font-size="17" x="-216.668" y="32">Base64 </tspan><tspan font-family="DengXian,DengXian_MSFontService,sans-serif" font-size="17" x="-161.501" y="32">字符</tspan><tspan font-size="24" x="4.66666" y="39">T</tspan><tspan font-size="24" x="247.234" y="39">Q</tspan><tspan font-size="24" x="493.052" y="39">=</tspan><tspan font-size="24" x="736.953" y="39">=</tspan></text></g></svg>