<svg width="811" height="441" xmlns="http://www.w3.org/2000/svg" xmlns:xlink="http://www.w3.org/1999/xlink" overflow="hidden"><defs><clipPath id="clip0"><rect x="54" y="74" width="811" height="441"/></clipPath></defs><g clip-path="url(#clip0)" transform="translate(-54 -74)"><path d="M93 273.5C93 253.894 108.894 238 128.5 238 148.106 238 164 253.894 164 273.5 164 293.106 148.106 309 128.5 309 108.894 309 93 293.106 93 273.5Z" stroke="#000000" stroke-width="2" stroke-miterlimit="8" fill="#E2F0D9" fill-rule="evenodd"/><text font-family="Times New Roman,Times New Roman_MSFontService,sans-serif" font-weight="700" font-size="24" transform="translate(122.237 282)">2</text><path d="M93 369.5C93 349.894 108.894 334 128.5 334 148.106 334 164 349.894 164 369.5 164 389.106 148.106 405 128.5 405 108.894 405 93 389.106 93 369.5Z" stroke="#000000" stroke-width="2" stroke-miterlimit="8" fill="#E2F0D9" fill-rule="evenodd"/><text font-family="Times New Roman,Times New Roman_MSFontService,sans-serif" font-weight="700" font-size="24" transform="translate(122.237 378)">9</text><path d="M277 319C277 299.67 292.894 284 312.5 284 332.106 284 348 299.67 348 319 348 338.33 332.106 354 312.5 354 292.894 354 277 338.33 277 319Z" stroke="#000000" stroke-width="2" stroke-miterlimit="8" fill="#E2F0D9" fill-rule="evenodd"/><text font-family="Times New Roman,Times New Roman_MSFontService,sans-serif" font-weight="700" font-size="24" transform="translate(306.477 328)">1</text><path d="M93 178.5C93 158.894 108.894 143 128.5 143 148.106 143 164 158.894 164 178.5 164 198.106 148.106 214 128.5 214 108.894 214 93 198.106 93 178.5Z" stroke="#000000" stroke-width="2" stroke-miterlimit="8" fill="#E1CCF0" fill-rule="evenodd"/><text font-family="Times New Roman,Times New Roman_MSFontService,sans-serif" font-weight="700" font-size="24" transform="translate(122.237 187)">0</text><path d="M78 82.3335C78 78.8356 80.8356 76 84.3335 76L182.667 76C186.164 76 189 78.8356 189 82.3335L189 107.667C189 111.164 186.164 114 182.667 114L84.3335 114C80.8356 114 78 111.164 78 107.667Z" stroke="#000000" stroke-width="2" stroke-miterlimit="8" fill="#DEEBF7" fill-rule="evenodd"/><text font-family="DengXian,DengXian_MSFontService,sans-serif" font-weight="700" font-size="20" transform="translate(93.5522 102)">个位相加</text><path d="M198 273 226.878 273 226.878 275 198 275ZM225.545 270 233.545 274 225.545 278Z"/><path d="M277 213.5C277 193.894 292.894 178 312.5 178 332.106 178 348 193.894 348 213.5 348 233.106 332.106 249 312.5 249 292.894 249 277 233.106 277 213.5Z" stroke="#000000" stroke-width="2" stroke-miterlimit="8" fill="#E1CCF0" fill-rule="evenodd"/><text font-family="Times New Roman,Times New Roman_MSFontService,sans-serif" font-weight="700" font-size="24" transform="translate(306.477 222)">1<tspan font-size="24" x="-237.026" y="240">0 + 2 + 9 = 11</tspan></text><path d="M252 417.5C252 413.91 254.91 411 258.5 411L355.5 411C359.09 411 362 413.91 362 417.5L362 443.5C362 447.09 359.09 450 355.5 450L258.5 450C254.91 450 252 447.09 252 443.5Z" stroke="#000000" stroke-width="2" stroke-miterlimit="8" fill="#DEEBF7" fill-rule="evenodd"/><text font-family="DengXian,DengXian_MSFontService,sans-serif" font-weight="700" font-size="20" transform="translate(271.926 438)">本位为<tspan font-family="Times New Roman,Times New Roman_MSFontService,sans-serif" font-size="20" x="60" y="0">1</tspan></text><path d="M252 477.5C252 473.91 254.91 471 258.5 471L355.5 471C359.09 471 362 473.91 362 477.5L362 503.5C362 507.09 359.09 510 355.5 510L258.5 510C254.91 510 252 507.09 252 503.5Z" stroke="#000000" stroke-width="2" stroke-miterlimit="8" fill="#DEEBF7" fill-rule="evenodd"/><text font-family="DengXian,DengXian_MSFontService,sans-serif" font-weight="700" font-size="20" transform="translate(271.926 497)">进位为<tspan font-family="Times New Roman,Times New Roman_MSFontService,sans-serif" font-size="20" x="60" y="0">1</tspan></text><path d="M683 210.5C683 190.894 698.894 175 718.5 175 738.106 175 754 190.894 754 210.5 754 230.106 738.106 246 718.5 246 698.894 246 683 230.106 683 210.5Z" stroke="#000000" stroke-width="2" stroke-miterlimit="8" fill="#A6A6A6" fill-rule="evenodd"/><text font-family="Times New Roman,Times New Roman_MSFontService,sans-serif" font-weight="700" font-size="24" transform="translate(712.196 219)">0</text><path d="M1-3.74472e-06 1.00008 21.3693-0.99992 21.3693-1 3.74472e-06ZM4.00007 20.036 0.000104987 28.036-3.99992 20.036Z" transform="matrix(1 0 0 -1 819 274.036)"/><path d="M568 197.5C568 193.91 570.91 191 574.5 191L649.5 191C653.09 191 656 193.91 656 197.5L656 223.5C656 227.09 653.09 230 649.5 230L574.5 230C570.91 230 568 227.09 568 223.5Z" stroke="#000000" stroke-width="2" stroke-miterlimit="8" fill="#EDEDED" fill-rule="evenodd"/><text font-family="Times New Roman,Times New Roman_MSFontService,sans-serif" font-weight="700" font-size="19" transform="translate(581.636 218)">dummy</text><path d="M0.0127091-0.999919 20.4066-0.74071 20.3812 1.25913-0.0127091 0.999919ZM19.1115-3.75741 27.0601 0.343937 19.0099 4.24194Z" transform="matrix(1 0 0 -1 656 210.344)"/><path d="M1.03302e-05-1 23.8226-0.999754 23.8226 1.00025-1.03302e-05 1ZM22.4893-3.99977 30.4892 0.000314961 22.4892 4.00023Z" transform="matrix(1 0 0 -1 754 210)"/><path d="M784 210.5C784 190.894 799.894 175 819.5 175 839.106 175 855 190.894 855 210.5 855 230.106 839.106 246 819.5 246 799.894 246 784 230.106 784 210.5Z" stroke="#000000" stroke-width="2" stroke-miterlimit="8" fill="#E2F0D9" fill-rule="evenodd"/><text font-family="Times New Roman,Times New Roman_MSFontService,sans-serif" font-weight="700" font-size="24" transform="translate(813.392 219)">1</text><path d="M776 280.5C776 276.91 778.91 274 782.5 274L856.5 274C860.09 274 863 276.91 863 280.5L863 306.5C863 310.09 860.09 313 856.5 313L782.5 313C778.91 313 776 310.09 776 306.5Z" stroke="#000000" stroke-width="2" stroke-miterlimit="8" fill="#EDEDED" fill-rule="evenodd"/><text font-family="Times New Roman,Times New Roman_MSFontService,sans-serif" font-weight="700" font-size="19" transform="translate(800.225 300)">head<tspan font-family="DengXian,DengXian_MSFontService,sans-serif" font-size="24" x="-280.298" y="-190">求和结果</tspan></text></g></svg>