<svg width="649" height="393" xmlns="http://www.w3.org/2000/svg" xmlns:xlink="http://www.w3.org/1999/xlink" overflow="hidden"><defs><clipPath id="clip0"><rect x="71" y="95" width="649" height="393"/></clipPath></defs><g clip-path="url(#clip0)" transform="translate(-71 -95)"><path d="M112 202.5C112 182.894 127.894 167 147.5 167 167.106 167 183 182.894 183 202.5 183 222.106 167.106 238 147.5 238 127.894 238 112 222.106 112 202.5Z" stroke="#000000" stroke-width="2" stroke-miterlimit="8" fill="#E2F0D9" fill-rule="evenodd"/><text font-family="Times New Roman,Times New Roman_MSFontService,sans-serif" font-weight="700" font-size="24" transform="translate(141.629 211)">2</text><path d="M219 202.5C219 182.894 234.67 167 254 167 273.33 167 289 182.894 289 202.5 289 222.106 273.33 238 254 238 234.67 238 219 222.106 219 202.5Z" stroke="#000000" stroke-width="2" stroke-miterlimit="8" fill="#FBE5D6" fill-rule="evenodd"/><text font-family="Times New Roman,Times New Roman_MSFontService,sans-serif" font-weight="700" font-size="24" transform="translate(247.88 211)">2</text><path d="M183 202 211.878 202 211.878 204 183 204ZM210.545 199 218.545 203 210.545 207Z"/><path d="M112 298.5C112 278.894 127.894 263 147.5 263 167.106 263 183 278.894 183 298.5 183 318.106 167.106 334 147.5 334 127.894 334 112 318.106 112 298.5Z" stroke="#000000" stroke-width="2" stroke-miterlimit="8" fill="#E2F0D9" fill-rule="evenodd"/><text font-family="Times New Roman,Times New Roman_MSFontService,sans-serif" font-weight="700" font-size="24" transform="translate(141.629 307)">9</text><path d="M219 298.5C219 278.894 234.67 263 254 263 273.33 263 289 278.894 289 298.5 289 318.106 273.33 334 254 334 234.67 334 219 318.106 219 298.5Z" stroke="#000000" stroke-width="2" stroke-miterlimit="8" fill="#FBE5D6" fill-rule="evenodd"/><text font-family="Times New Roman,Times New Roman_MSFontService,sans-serif" font-weight="700" font-size="24" transform="translate(247.88 307)">7</text><path d="M183 297 211.878 297 211.878 299 183 299ZM210.545 294 218.545 298 210.545 302Z"/><path d="M0 0 386.4 0.000104987" stroke="#000000" stroke-width="2" stroke-miterlimit="8" fill="none" fill-rule="evenodd" transform="matrix(1 0 0 -1 73 373)"/><path d="M73 103.5C73 99.9102 75.9102 97 79.5002 97L176.5 97C180.09 97 183 99.9102 183 103.5L183 129.5C183 133.09 180.09 136 176.5 136L79.5002 136C75.9102 136 73 133.09 73 129.5Z" stroke="#000000" stroke-width="2" stroke-miterlimit="8" fill="#DEEBF7" fill-rule="evenodd"/><text font-family="Times New Roman,Times New Roman_MSFontService,sans-serif" font-weight="700" font-size="20" transform="translate(102.137 123)">22+79</text><path d="M112 443.5C112 423.894 127.894 408 147.5 408 167.106 408 183 423.894 183 443.5 183 463.106 167.106 479 147.5 479 127.894 479 112 463.106 112 443.5Z" stroke="#000000" stroke-width="2" stroke-miterlimit="8" fill="#E2F0D9" fill-rule="evenodd"/><text font-family="Times New Roman,Times New Roman_MSFontService,sans-serif" font-weight="700" font-size="24" transform="translate(141.629 452)">1</text><path d="M219 443.5C219 423.894 234.67 408 254 408 273.33 408 289 423.894 289 443.5 289 463.106 273.33 479 254 479 234.67 479 219 463.106 219 443.5Z" stroke="#000000" stroke-width="2" stroke-miterlimit="8" fill="#FBE5D6" fill-rule="evenodd"/><text font-family="Times New Roman,Times New Roman_MSFontService,sans-serif" font-weight="700" font-size="24" transform="translate(247.88 452)">0</text><path d="M183 443 211.878 443 211.878 445 183 445ZM210.545 440 218.545 444 210.545 448Z"/><path d="M325 443.5C325 423.894 340.67 408 360 408 379.33 408 395 423.894 395 443.5 395 463.106 379.33 479 360 479 340.67 479 325 463.106 325 443.5Z" stroke="#000000" stroke-width="2" stroke-miterlimit="8" fill="#FFF2CC" fill-rule="evenodd"/><text font-family="Times New Roman,Times New Roman_MSFontService,sans-serif" font-weight="700" font-size="24" transform="translate(354.132 452)">1</text><path d="M289 443 317.878 443 317.878 445 289 445ZM316.545 440 324.545 444 316.545 448Z"/><text font-family="DengXian,DengXian_MSFontService,sans-serif" font-weight="700" font-size="24" transform="translate(572.454 182)">颜色说明</text><path d="M608 257.5C608 253.91 610.91 251 614.5 251L711.5 251C715.09 251 718 253.91 718 257.5L718 283.5C718 287.09 715.09 290 711.5 290L614.5 290C610.91 290 608 287.09 608 283.5Z" stroke="#000000" stroke-width="2" stroke-miterlimit="8" fill="#E2F0D9" fill-rule="evenodd"/><text font-family="DengXian,DengXian_MSFontService,sans-serif" font-weight="700" font-size="20" transform="translate(642.979 277)">个位</text><path d="M608 321.5C608 317.91 610.91 315 614.5 315L711.5 315C715.09 315 718 317.91 718 321.5L718 347.5C718 351.09 715.09 354 711.5 354L614.5 354C610.91 354 608 351.09 608 347.5Z" stroke="#000000" stroke-width="2" stroke-miterlimit="8" fill="#FBE5D6" fill-rule="evenodd"/><text font-family="DengXian,DengXian_MSFontService,sans-serif" font-weight="700" font-size="20" transform="translate(642.979 342)">十位</text><path d="M608 386.333C608 382.836 610.836 380 614.333 380L711.667 380C715.164 380 718 382.836 718 386.333L718 411.667C718 415.164 715.164 418 711.667 418L614.333 418C610.836 418 608 415.164 608 411.667Z" stroke="#000000" stroke-width="2" stroke-miterlimit="8" fill="#FFF2CC" fill-rule="evenodd"/><text font-family="DengXian,DengXian_MSFontService,sans-serif" font-weight="700" font-size="20" transform="translate(642.979 406)">百位</text><path d="M608 450.5C608 446.91 610.91 444 614.5 444L711.5 444C715.09 444 718 446.91 718 450.5L718 476.5C718 480.09 715.09 483 711.5 483L614.5 483C610.91 483 608 480.09 608 476.5Z" stroke="#000000" stroke-width="2" stroke-miterlimit="8" fill="#E1CCF0" fill-rule="evenodd"/><text font-family="DengXian,DengXian_MSFontService,sans-serif" font-weight="700" font-size="20" transform="translate(642.979 470)">进位</text><path d="M241 356.5C241 349.596 246.82 344 254 344 261.18 344 267 349.596 267 356.5 267 363.404 261.18 369 254 369 246.82 369 241 363.404 241 356.5Z" stroke="#000000" stroke-width="2" stroke-miterlimit="8" fill="#E1CCF0" fill-rule="evenodd"/><text font-family="Times New Roman,Times New Roman_MSFontService,sans-serif" font-weight="700" font-size="16" transform="translate(249.88 362)">1</text><path d="M347 356C347 348.82 352.82 343 360 343 367.18 343 373 348.82 373 356 373 363.18 367.18 369 360 369 352.82 369 347 363.18 347 356Z" stroke="#000000" stroke-width="2" stroke-miterlimit="8" fill="#E1CCF0" fill-rule="evenodd"/><text font-family="Times New Roman,Times New Roman_MSFontService,sans-serif" font-weight="700" font-size="16" transform="translate(356.132 361)">1</text><path d="M289 202 317.878 202 317.878 204 289 204ZM316.545 199 324.545 203 316.545 207Z"/><path d="M289 297 317.878 297 317.878 299 289 299ZM316.545 294 324.545 298 316.545 302Z"/><path d="M325 202.5C325 182.894 340.67 167 360 167 379.33 167 395 182.894 395 202.5 395 222.106 379.33 238 360 238 340.67 238 325 222.106 325 202.5Z" stroke="#000000" stroke-width="2" stroke-miterlimit="8" stroke-dasharray="2 2" fill="#FFF2CC" fill-rule="evenodd" fill-opacity="0.4"/><text font-family="Times New Roman,Times New Roman_MSFontService,sans-serif" font-weight="700" font-size="13" transform="translate(345.299 208)">Non<tspan font-size="13" x="23.6667" y="0">e</tspan></text><path d="M325 298.5C325 278.894 340.67 263 360 263 379.33 263 395 278.894 395 298.5 395 318.106 379.33 334 360 334 340.67 334 325 318.106 325 298.5Z" stroke="#000000" stroke-width="2" stroke-miterlimit="8" stroke-dasharray="2 2" fill="#FFF2CC" fill-rule="evenodd" fill-opacity="0.4"/><text font-family="Times New Roman,Times New Roman_MSFontService,sans-serif" font-weight="700" font-size="13" transform="translate(345.299 303)">None</text></g></svg>