<svg width="1015" height="559" xmlns="http://www.w3.org/2000/svg" xmlns:xlink="http://www.w3.org/1999/xlink" overflow="hidden"><defs><clipPath id="clip0"><rect x="54" y="74" width="1015" height="559"/></clipPath></defs><g clip-path="url(#clip0)" transform="translate(-54 -74)"><path d="M93 273.5C93 253.894 108.894 238 128.5 238 148.106 238 164 253.894 164 273.5 164 293.106 148.106 309 128.5 309 108.894 309 93 293.106 93 273.5Z" stroke="#000000" stroke-width="2" stroke-miterlimit="8" fill="#FFF2CC" fill-rule="evenodd"/><text font-family="Times New Roman,Times New Roman_MSFontService,sans-serif" font-weight="700" font-size="24" transform="translate(122.237 282)">0</text><path d="M93 369.5C93 349.894 108.894 334 128.5 334 148.106 334 164 349.894 164 369.5 164 389.106 148.106 405 128.5 405 108.894 405 93 389.106 93 369.5Z" stroke="#000000" stroke-width="2" stroke-miterlimit="8" fill="#FFF2CC" fill-rule="evenodd"/><text font-family="Times New Roman,Times New Roman_MSFontService,sans-serif" font-weight="700" font-size="24" transform="translate(122.237 378)">0</text><path d="M277 319C277 299.67 292.894 284 312.5 284 332.106 284 348 299.67 348 319 348 338.33 332.106 354 312.5 354 292.894 354 277 338.33 277 319Z" stroke="#000000" stroke-width="2" stroke-miterlimit="8" fill="#FFF2CC" fill-rule="evenodd"/><text font-family="Times New Roman,Times New Roman_MSFontService,sans-serif" font-weight="700" font-size="24" transform="translate(306.477 328)">1</text><path d="M93 178.5C93 158.894 108.894 143 128.5 143 148.106 143 164 158.894 164 178.5 164 198.106 148.106 214 128.5 214 108.894 214 93 198.106 93 178.5Z" stroke="#000000" stroke-width="2" stroke-miterlimit="8" fill="#E1CCF0" fill-rule="evenodd"/><text font-family="Times New Roman,Times New Roman_MSFontService,sans-serif" font-weight="700" font-size="24" transform="translate(122.237 187)">1</text><path d="M78 82.3335C78 78.8356 80.8356 76 84.3335 76L182.667 76C186.164 76 189 78.8356 189 82.3335L189 107.667C189 111.164 186.164 114 182.667 114L84.3335 114C80.8356 114 78 111.164 78 107.667Z" stroke="#000000" stroke-width="2" stroke-miterlimit="8" fill="#DEEBF7" fill-rule="evenodd"/><text font-family="DengXian,DengXian_MSFontService,sans-serif" font-weight="700" font-size="20" transform="translate(93.5522 102)">百位相加</text><path d="M198 273 226.878 273 226.878 275 198 275ZM225.545 270 233.545 274 225.545 278Z"/><path d="M277 213.5C277 193.894 292.894 178 312.5 178 332.106 178 348 193.894 348 213.5 348 233.106 332.106 249 312.5 249 292.894 249 277 233.106 277 213.5Z" stroke="#000000" stroke-width="2" stroke-miterlimit="8" fill="#E1CCF0" fill-rule="evenodd"/><text font-family="Times New Roman,Times New Roman_MSFontService,sans-serif" font-weight="700" font-size="24" transform="translate(306.477 222)">0<tspan font-size="24" x="-237.026" y="240">1</tspan><tspan font-size="24" x="-219.026" y="240">+ 0 + 0 = 01</tspan></text><path d="M252 417.5C252 413.91 254.91 411 258.5 411L355.5 411C359.09 411 362 413.91 362 417.5L362 443.5C362 447.09 359.09 450 355.5 450L258.5 450C254.91 450 252 447.09 252 443.5Z" stroke="#000000" stroke-width="2" stroke-miterlimit="8" fill="#DEEBF7" fill-rule="evenodd"/><text font-family="DengXian,DengXian_MSFontService,sans-serif" font-weight="700" font-size="20" transform="translate(271.926 438)">本位为<tspan font-family="Times New Roman,Times New Roman_MSFontService,sans-serif" font-size="20" x="60" y="0">1</tspan></text><path d="M252 477.5C252 473.91 254.91 471 258.5 471L355.5 471C359.09 471 362 473.91 362 477.5L362 503.5C362 507.09 359.09 510 355.5 510L258.5 510C254.91 510 252 507.09 252 503.5Z" stroke="#000000" stroke-width="2" stroke-miterlimit="8" fill="#DEEBF7" fill-rule="evenodd"/><text font-family="DengXian,DengXian_MSFontService,sans-serif" font-weight="700" font-size="20" transform="translate(271.926 497)">进位为<tspan font-family="Times New Roman,Times New Roman_MSFontService,sans-serif" font-size="20" x="60" y="0">0</tspan><tspan font-size="24" x="248.001" y="-387">求和结果</tspan></text><path d="M682 210.5C682 190.894 697.894 175 717.5 175 737.106 175 753 190.894 753 210.5 753 230.106 737.106 246 717.5 246 697.894 246 682 230.106 682 210.5Z" stroke="#000000" stroke-width="2" stroke-miterlimit="8" fill="#A6A6A6" fill-rule="evenodd"/><text font-family="Times New Roman,Times New Roman_MSFontService,sans-serif" font-weight="700" font-size="24" transform="translate(711.622 219)">0</text><path d="M568 197.5C568 193.91 570.91 191 574.5 191L649.5 191C653.09 191 656 193.91 656 197.5L656 223.5C656 227.09 653.09 230 649.5 230L574.5 230C570.91 230 568 227.09 568 223.5Z" stroke="#000000" stroke-width="2" stroke-miterlimit="8" fill="#EDEDED" fill-rule="evenodd"/><text font-family="Times New Roman,Times New Roman_MSFontService,sans-serif" font-weight="700" font-size="19" transform="translate(581.636 217)">dummy</text><path d="M0.0129968-0.999915 19.8321-0.742309 19.8061 1.25752-0.0129968 0.999915ZM18.5379-3.75938 26.4852 0.344252 18.4339 4.23994Z" transform="matrix(1 0 0 -1 656 210.344)"/><path d="M753 209 777.397 209 777.397 211 753 211ZM776.064 206 784.064 210 776.064 214Z"/><path d="M784 210.5C784 190.894 799.894 175 819.5 175 839.106 175 855 190.894 855 210.5 855 230.106 839.106 246 819.5 246 799.894 246 784 230.106 784 210.5Z" stroke="#000000" stroke-width="2" stroke-miterlimit="8" fill="#E2F0D9" fill-rule="evenodd"/><text font-family="Times New Roman,Times New Roman_MSFontService,sans-serif" font-weight="700" font-size="24" transform="translate(813.392 219)">1</text><path d="M1022.23 276.46 1022.05 252.674 1024.05 252.659 1024.23 276.445ZM1019.06 254.03 1023 246 1027.06 253.97Z"/><path d="M886 210.5C886 190.894 901.894 175 921.5 175 941.106 175 957 190.894 957 210.5 957 230.106 941.106 246 921.5 246 901.894 246 886 230.106 886 210.5Z" stroke="#000000" stroke-width="2" stroke-miterlimit="8" fill="#FBE5D6" fill-rule="evenodd"/><text font-family="Times New Roman,Times New Roman_MSFontService,sans-serif" font-weight="700" font-size="24" transform="translate(915.163 219)">0</text><path d="M980 282.5C980 278.91 982.91 276 986.5 276L1060.5 276C1064.09 276 1067 278.91 1067 282.5L1067 308.5C1067 312.09 1064.09 315 1060.5 315L986.5 315C982.91 315 980 312.09 980 308.5Z" stroke="#000000" stroke-width="2" stroke-miterlimit="8" fill="#EDEDED" fill-rule="evenodd"/><text font-family="Times New Roman,Times New Roman_MSFontService,sans-serif" font-weight="700" font-size="19" transform="translate(1004 302)">head</text><path d="M855 209 879.397 209 879.397 211 855 211ZM878.064 206 886.064 210 878.064 214Z"/><path d="M988 210.5C988 190.894 1003.67 175 1023 175 1042.33 175 1058 190.894 1058 210.5 1058 230.106 1042.33 246 1023 246 1003.67 246 988 230.106 988 210.5Z" stroke="#000000" stroke-width="2" stroke-miterlimit="8" fill="#FFF2CC" fill-rule="evenodd"/><text font-family="Times New Roman,Times New Roman_MSFontService,sans-serif" font-weight="700" font-size="24" transform="translate(1016.93 219)">1</text><path d="M957 209 981.397 209 981.397 211 957 211ZM980.064 206 988.064 210 980.064 214Z"/><path d="M776 524.5C776 504.894 791.894 489 811.5 489 831.106 489 847 504.894 847 524.5 847 544.106 831.106 560 811.5 560 791.894 560 776 544.106 776 524.5Z" stroke="#000000" stroke-width="2" stroke-miterlimit="8" fill="#E2F0D9" fill-rule="evenodd"/><text font-family="Times New Roman,Times New Roman_MSFontService,sans-serif" font-weight="700" font-size="24" transform="translate(805.328 533)">1</text><path d="M878 524.5C878 504.894 893.67 489 913 489 932.33 489 948 504.894 948 524.5 948 544.106 932.33 560 913 560 893.67 560 878 544.106 878 524.5Z" stroke="#000000" stroke-width="2" stroke-miterlimit="8" fill="#FBE5D6" fill-rule="evenodd"/><text font-family="Times New Roman,Times New Roman_MSFontService,sans-serif" font-weight="700" font-size="24" transform="translate(907.099 533)">0</text><path d="M847 524 871.397 524 871.397 526 847 526ZM870.064 521 878.064 525 870.064 529Z"/><path d="M980 524.5C980 504.894 995.67 489 1015 489 1034.33 489 1050 504.894 1050 524.5 1050 544.106 1034.33 560 1015 560 995.67 560 980 544.106 980 524.5Z" stroke="#000000" stroke-width="2" stroke-miterlimit="8" fill="#FFF2CC" fill-rule="evenodd"/><text font-family="Times New Roman,Times New Roman_MSFontService,sans-serif" font-weight="700" font-size="24" transform="translate(1008.87 533)">1</text><path d="M948 524 972.397 524 972.397 526 948 526ZM971.064 521 979.064 525 971.064 529Z"/><path d="M0.999972-0.00752926 1.17907 23.7785-0.820875 23.7935-0.999972 0.00752926ZM4.16894 22.4226 0.229291 30.4525-3.83083 22.4828Z" transform="matrix(1 0 0 -1 811 590.453)"/><path d="M767 597.333C767 593.836 769.836 591 773.333 591L848.667 591C852.164 591 855 593.836 855 597.333L855 622.667C855 626.164 852.164 629 848.667 629L773.333 629C769.836 629 767 626.164 767 622.667Z" stroke="#000000" stroke-width="2" stroke-miterlimit="8" fill="#EDEDED" fill-rule="evenodd"/><text font-family="Times New Roman,Times New Roman_MSFontService,sans-serif" font-weight="700" font-size="19" transform="translate(780.599 617)">dummy<tspan font-size="24" x="-218.332" y="-84">dummy.next</tspan></text><path d="M817.5 411 830.25 411 830.25 365.5 855.75 365.5 855.75 411 868.5 411 843 436.5Z" stroke="#000000" stroke-width="1.33333" stroke-miterlimit="8" fill="#DEEBF7" fill-rule="evenodd"/></g></svg>