<svg width="913" height="441" xmlns="http://www.w3.org/2000/svg" xmlns:xlink="http://www.w3.org/1999/xlink" overflow="hidden"><defs><clipPath id="clip0"><rect x="54" y="74" width="913" height="441"/></clipPath></defs><g clip-path="url(#clip0)" transform="translate(-54 -74)"><path d="M93 273.5C93 253.894 108.894 238 128.5 238 148.106 238 164 253.894 164 273.5 164 293.106 148.106 309 128.5 309 108.894 309 93 293.106 93 273.5Z" stroke="#000000" stroke-width="2" stroke-miterlimit="8" fill="#FBE5D6" fill-rule="evenodd"/><text font-family="Times New Roman,Times New Roman_MSFontService,sans-serif" font-weight="700" font-size="24" transform="translate(122.237 282)">2</text><path d="M93 369.5C93 349.894 108.894 334 128.5 334 148.106 334 164 349.894 164 369.5 164 389.106 148.106 405 128.5 405 108.894 405 93 389.106 93 369.5Z" stroke="#000000" stroke-width="2" stroke-miterlimit="8" fill="#FBE5D6" fill-rule="evenodd"/><text font-family="Times New Roman,Times New Roman_MSFontService,sans-serif" font-weight="700" font-size="24" transform="translate(122.237 378)">7</text><path d="M277 319C277 299.67 292.894 284 312.5 284 332.106 284 348 299.67 348 319 348 338.33 332.106 354 312.5 354 292.894 354 277 338.33 277 319Z" stroke="#000000" stroke-width="2" stroke-miterlimit="8" fill="#FBE5D6" fill-rule="evenodd"/><text font-family="Times New Roman,Times New Roman_MSFontService,sans-serif" font-weight="700" font-size="24" transform="translate(306.477 328)">0</text><path d="M93 178.5C93 158.894 108.894 143 128.5 143 148.106 143 164 158.894 164 178.5 164 198.106 148.106 214 128.5 214 108.894 214 93 198.106 93 178.5Z" stroke="#000000" stroke-width="2" stroke-miterlimit="8" fill="#E1CCF0" fill-rule="evenodd"/><text font-family="Times New Roman,Times New Roman_MSFontService,sans-serif" font-weight="700" font-size="24" transform="translate(122.237 187)">1</text><path d="M78 82.3335C78 78.8356 80.8356 76 84.3335 76L182.667 76C186.164 76 189 78.8356 189 82.3335L189 107.667C189 111.164 186.164 114 182.667 114L84.3335 114C80.8356 114 78 111.164 78 107.667Z" stroke="#000000" stroke-width="2" stroke-miterlimit="8" fill="#DEEBF7" fill-rule="evenodd"/><text font-family="DengXian,DengXian_MSFontService,sans-serif" font-weight="700" font-size="20" transform="translate(93.5522 102)">十位相加</text><path d="M198 273 226.878 273 226.878 275 198 275ZM225.545 270 233.545 274 225.545 278Z"/><path d="M277 213.5C277 193.894 292.894 178 312.5 178 332.106 178 348 193.894 348 213.5 348 233.106 332.106 249 312.5 249 292.894 249 277 233.106 277 213.5Z" stroke="#000000" stroke-width="2" stroke-miterlimit="8" fill="#E1CCF0" fill-rule="evenodd"/><text font-family="Times New Roman,Times New Roman_MSFontService,sans-serif" font-weight="700" font-size="24" transform="translate(306.477 222)">1<tspan font-size="24" x="-237.026" y="240">1</tspan><tspan font-size="24" x="-219.026" y="240">+ 2 + 7 = 10</tspan></text><path d="M252 417.5C252 413.91 254.91 411 258.5 411L355.5 411C359.09 411 362 413.91 362 417.5L362 443.5C362 447.09 359.09 450 355.5 450L258.5 450C254.91 450 252 447.09 252 443.5Z" stroke="#000000" stroke-width="2" stroke-miterlimit="8" fill="#DEEBF7" fill-rule="evenodd"/><text font-family="DengXian,DengXian_MSFontService,sans-serif" font-weight="700" font-size="20" transform="translate(271.926 438)">本位为<tspan font-family="Times New Roman,Times New Roman_MSFontService,sans-serif" font-size="20" x="60" y="0">0</tspan></text><path d="M252 477.5C252 473.91 254.91 471 258.5 471L355.5 471C359.09 471 362 473.91 362 477.5L362 503.5C362 507.09 359.09 510 355.5 510L258.5 510C254.91 510 252 507.09 252 503.5Z" stroke="#000000" stroke-width="2" stroke-miterlimit="8" fill="#DEEBF7" fill-rule="evenodd"/><text font-family="DengXian,DengXian_MSFontService,sans-serif" font-weight="700" font-size="20" transform="translate(271.926 497)">进位为<tspan font-family="Times New Roman,Times New Roman_MSFontService,sans-serif" font-size="20" x="60" y="0">1</tspan></text><path d="M682 210.5C682 190.894 697.894 175 717.5 175 737.106 175 753 190.894 753 210.5 753 230.106 737.106 246 717.5 246 697.894 246 682 230.106 682 210.5Z" stroke="#000000" stroke-width="2" stroke-miterlimit="8" fill="#A6A6A6" fill-rule="evenodd"/><text font-family="Times New Roman,Times New Roman_MSFontService,sans-serif" font-weight="700" font-size="24" transform="translate(711.622 219)">0</text><path d="M568 197.5C568 193.91 570.91 191 574.5 191L649.5 191C653.09 191 656 193.91 656 197.5L656 223.5C656 227.09 653.09 230 649.5 230L574.5 230C570.91 230 568 227.09 568 223.5Z" stroke="#000000" stroke-width="2" stroke-miterlimit="8" fill="#EDEDED" fill-rule="evenodd"/><text font-family="Times New Roman,Times New Roman_MSFontService,sans-serif" font-weight="700" font-size="19" transform="translate(581.636 217)">dummy</text><path d="M0.0129968-0.999915 19.8321-0.742309 19.8061 1.25752-0.0129968 0.999915ZM18.5379-3.75938 26.4852 0.344252 18.4339 4.23994Z" transform="matrix(1 0 0 -1 656 210.344)"/><path d="M753 209 777.397 209 777.397 211 753 211ZM776.064 206 784.064 210 776.064 214Z"/><path d="M784 210.5C784 190.894 799.894 175 819.5 175 839.106 175 855 190.894 855 210.5 855 230.106 839.106 246 819.5 246 799.894 246 784 230.106 784 210.5Z" stroke="#000000" stroke-width="2" stroke-miterlimit="8" fill="#E2F0D9" fill-rule="evenodd"/><text font-family="Times New Roman,Times New Roman_MSFontService,sans-serif" font-weight="700" font-size="24" transform="translate(813.392 219)">1<tspan font-family="DengXian,DengXian_MSFontService,sans-serif" font-size="24" x="-293.465" y="-109">求和结果</tspan></text><path d="M1-3.67431e-06 1.00008 21.9066-0.999919 21.9066-1 3.67431e-06ZM4.00008 20.5732 0.000104987 28.5732-3.99992 20.5732Z" transform="matrix(1 0 0 -1 921 273.573)"/><path d="M886 210C886 190.67 901.894 175 921.5 175 941.106 175 957 190.67 957 210 957 229.33 941.106 245 921.5 245 901.894 245 886 229.33 886 210Z" stroke="#000000" stroke-width="2" stroke-miterlimit="8" fill="#FBE5D6" fill-rule="evenodd"/><text font-family="Times New Roman,Times New Roman_MSFontService,sans-serif" font-weight="700" font-size="24" transform="translate(915.163 219)">0</text><path d="M878 280.5C878 276.91 880.91 274 884.5 274L958.5 274C962.09 274 965 276.91 965 280.5L965 306.5C965 310.09 962.09 313 958.5 313L884.5 313C880.91 313 878 310.09 878 306.5Z" stroke="#000000" stroke-width="2" stroke-miterlimit="8" fill="#EDEDED" fill-rule="evenodd"/><text font-family="Times New Roman,Times New Roman_MSFontService,sans-serif" font-weight="700" font-size="19" transform="translate(901.996 300)">head</text><path d="M0.00461661-0.999989 24.4021-0.887355 24.3928 1.11262-0.00461661 0.999989ZM23.0826-3.89348 31.064 0.143412 23.0457 4.10644Z" transform="matrix(1 0 0 -1 855 210.143)"/></g></svg>