<svg width="407" height="186" xmlns="http://www.w3.org/2000/svg" xmlns:xlink="http://www.w3.org/1999/xlink" overflow="hidden"><defs><clipPath id="clip0"><rect x="725" y="512" width="407" height="186"/></clipPath></defs><g clip-path="url(#clip0)" transform="translate(-725 -512)"><path d="M1003 595.5C1003 575.894 1018.89 560 1038.5 560 1058.11 560 1074 575.894 1074 595.5 1074 615.106 1058.11 631 1038.5 631 1018.89 631 1003 615.106 1003 595.5Z" stroke="#000000" stroke-width="2" stroke-miterlimit="8" fill="#A6A6A6" fill-rule="evenodd"/><text font-family="Times New Roman,Times New Roman_MSFontService,sans-serif" font-weight="700" font-size="24" transform="translate(1032.46 604)">0<tspan font-family="DengXian,DengXian_MSFontService,sans-serif" font-size="24" x="-292.807" y="-62">求和结果</tspan><tspan font-family="DengXian,DengXian_MSFontService,sans-serif" font-size="20" x="-167.905" y="76">初始化存放求和结果的链表</tspan></text><path d="M897 605.333C897 601.836 899.836 599 903.333 599L978.667 599C982.164 599 985 601.836 985 605.333L985 630.667C985 634.164 982.164 637 978.667 637L903.333 637C899.836 637 897 634.164 897 630.667Z" stroke="#000000" stroke-width="2" stroke-miterlimit="8" fill="#EDEDED" fill-rule="evenodd"/><text font-family="Times New Roman,Times New Roman_MSFontService,sans-serif" font-weight="700" font-size="19" transform="translate(910.41 625)">dummy</text><path d="M8.42758e-06-1 18.2484-0.999846 18.2484 1.00015-8.42758e-06 1ZM16.9151-3.99986 24.9151 0.000209974 16.915 4.00014Z" transform="matrix(1 0 0 -1 985 618)"/><path d="M897 560.5C897 556.91 899.91 554 903.5 554L978.5 554C982.09 554 985 556.91 985 560.5L985 586.5C985 590.09 982.09 593 978.5 593L903.5 593C899.91 593 897 590.09 897 586.5Z" stroke="#000000" stroke-width="2" stroke-miterlimit="8" fill="#EDEDED" fill-rule="evenodd"/><text font-family="Times New Roman,Times New Roman_MSFontService,sans-serif" font-weight="700" font-size="19" transform="translate(921.744 580)">head</text><path d="M8.42758e-06-1 18.2484-0.999846 18.2484 1.00015-8.42758e-06 1ZM16.9151-3.99986 24.9151 0.000209974 16.915 4.00014Z" transform="matrix(1 0 0 -1 985 573)"/></g></svg>