<svg width="1159" height="311" xmlns="http://www.w3.org/2000/svg" xmlns:xlink="http://www.w3.org/1999/xlink" overflow="hidden"><defs><clipPath id="clip0"><rect x="55" y="196" width="1159" height="311"/></clipPath></defs><g clip-path="url(#clip0)" transform="translate(-55 -196)"><rect x="56.5001" y="287.5" width="83" height="82" stroke="#000000" stroke-width="1.33333" stroke-miterlimit="8" fill="#FBE5D6"/><text font-family="Times New Roman,Times New Roman_MSFontService,sans-serif" font-weight="700" font-size="27" transform="translate(90.75 338)">2</text><rect x="139.5" y="287.5" width="82" height="82" stroke="#000000" stroke-width="1.33333" stroke-miterlimit="8" fill="#FBE5D6"/><text font-family="Times New Roman,Times New Roman_MSFontService,sans-serif" font-weight="700" font-size="24" transform="translate(173.62 337)">4</text><rect x="221.5" y="287.5" width="82" height="82" stroke="#000000" stroke-width="1.33333" stroke-miterlimit="8" fill="#FBE5D6"/><text font-family="Times New Roman,Times New Roman_MSFontService,sans-serif" font-weight="700" font-size="24" transform="translate(255.824 337)">4</text><rect x="303.5" y="287.5" width="82" height="82" stroke="#000000" stroke-width="1.33333" stroke-miterlimit="8" fill="#FBE5D6"/><text font-family="Times New Roman,Times New Roman_MSFontService,sans-serif" font-weight="700" font-size="24" transform="translate(338.027 337)">4</text><rect x="385.5" y="287.5" width="82" height="82" stroke="#000000" stroke-width="1.33333" stroke-miterlimit="8" fill="#FBE5D6"/><text font-family="Times New Roman,Times New Roman_MSFontService,sans-serif" font-weight="700" font-size="24" transform="translate(414.231 337)">14</text><rect x="467.5" y="287.5" width="83" height="82" stroke="#000000" stroke-width="1.33333" stroke-miterlimit="8" fill="#FBE5D6"/><text font-family="Times New Roman,Times New Roman_MSFontService,sans-serif" font-weight="700" font-size="24" transform="translate(496.435 337)">27</text><path d="M58.5001 461.5C58.5001 457.082 62.0818 453.5 66.5002 453.5L129.5 453.5C133.918 453.5 137.5 457.082 137.5 461.5L137.5 493.5C137.5 497.918 133.918 501.5 129.5 501.5L66.5002 501.5C62.0818 501.5 58.5001 497.918 58.5001 493.5Z" stroke="#000000" stroke-width="1.33333" stroke-miterlimit="8" fill="#E2F0D9" fill-rule="evenodd"/><text font-family="Times New Roman,Times New Roman_MSFontService,sans-serif" font-weight="700" font-size="24" transform="translate(80.75 486)">left</text><path d="M1-2.99398e-06 1.00008 28.3993-0.999915 28.3993-1 2.99398e-06ZM4.00008 27.0659 0.000104987 35.0659-3.99992 27.0659Z" transform="matrix(1 0 0 -1 97 453.066)"/><path d="M469.5 460.667C469.5 456.156 473.156 452.5 477.667 452.5L540.333 452.5C544.844 452.5 548.5 456.156 548.5 460.667L548.5 493.333C548.5 497.844 544.844 501.5 540.333 501.5L477.667 501.5C473.156 501.5 469.5 497.844 469.5 493.333Z" stroke="#000000" stroke-width="1.33333" stroke-miterlimit="8" fill="#E2F0D9" fill-rule="evenodd"/><text font-family="Times New Roman,Times New Roman_MSFontService,sans-serif" font-weight="700" font-size="24" transform="translate(483.101 485)">right</text><path d="M1-2.99398e-06 1.00008 28.3993-0.999915 28.3993-1 2.99398e-06ZM4.00008 27.0659 0.000104987 35.0659-3.99992 27.0659Z" transform="matrix(1 0 0 -1 508 452.066)"/><text font-family="Times New Roman,Times New Roman_MSFontService,sans-serif" font-weight="700" font-size="20" transform="translate(91.8276 400)">0<tspan font-size="20" x="82.2036" y="0">1</tspan><tspan font-size="20" x="164.407" y="0">2</tspan><tspan font-size="20" x="246.611" y="0">3</tspan><tspan font-size="20" x="328.814" y="0">4</tspan><tspan font-size="20" x="411.018" y="0">5</tspan></text><path d="M223.5 460.667C223.5 456.156 227.156 452.5 231.667 452.5L293.333 452.5C297.844 452.5 301.5 456.156 301.5 460.667L301.5 493.333C301.5 497.844 297.844 501.5 293.333 501.5L231.667 501.5C227.156 501.5 223.5 497.844 223.5 493.333Z" stroke="#000000" stroke-width="1.33333" stroke-miterlimit="8" fill="#E2F0D9" fill-rule="evenodd"/><text font-family="Times New Roman,Times New Roman_MSFontService,sans-serif" font-weight="700" font-size="24" transform="translate(241.824 485)">mid</text><path d="M1-2.99398e-06 1.00008 28.3993-0.999915 28.3993-1 2.99398e-06ZM4.00008 27.0659 0.000104987 35.0659-3.99992 27.0659Z" transform="matrix(1 0 0 -1 262 452.066)"/><path d="M66.5001 205.5C66.5001 201.082 70.0819 197.5 74.5003 197.5L203.5 197.5C207.918 197.5 211.5 201.082 211.5 205.5L211.5 237.5C211.5 241.918 207.918 245.5 203.5 245.5L74.5003 245.5C70.0819 245.5 66.5001 241.918 66.5001 237.5Z" stroke="#000000" stroke-width="1.33333" stroke-miterlimit="8" fill="#DAE3F3" fill-rule="evenodd"/><text font-family="Times New Roman,Times New Roman_MSFontService,sans-serif" font-weight="700" font-size="24" transform="translate(95.0184 230)">target=6</text><rect x="719.5" y="287.5" width="82" height="82" stroke="#000000" stroke-width="1.33333" stroke-miterlimit="8" fill="#FBE5D6"/><text font-family="Times New Roman,Times New Roman_MSFontService,sans-serif" font-weight="700" font-size="27" transform="translate(753.301 338)">2</text><rect x="801.5" y="287.5" width="82" height="82" stroke="#000000" stroke-width="1.33333" stroke-miterlimit="8" fill="#FBE5D6"/><text font-family="Times New Roman,Times New Roman_MSFontService,sans-serif" font-weight="700" font-size="24" transform="translate(836.171 337)">4</text><rect x="883.5" y="287.5" width="82" height="82" stroke="#000000" stroke-width="1.33333" stroke-miterlimit="8" fill="#FBE5D6"/><text font-family="Times New Roman,Times New Roman_MSFontService,sans-serif" font-weight="700" font-size="24" transform="translate(918.375 337)">4</text><rect x="965.5" y="287.5" width="82.9999" height="82" stroke="#000000" stroke-width="1.33333" stroke-miterlimit="8" fill="#FBE5D6"/><text font-family="Times New Roman,Times New Roman_MSFontService,sans-serif" font-weight="700" font-size="24" transform="translate(1000.58 337)">4</text><rect x="1048.5" y="287.5" width="82" height="82" stroke="#000000" stroke-width="1.33333" stroke-miterlimit="8" fill="#FBE5D6"/><text font-family="Times New Roman,Times New Roman_MSFontService,sans-serif" font-weight="700" font-size="24" transform="translate(1076.78 337)">14</text><rect x="1130.5" y="287.5" width="82" height="82" stroke="#000000" stroke-width="1.33333" stroke-miterlimit="8" fill="#FBE5D6"/><text font-family="Times New Roman,Times New Roman_MSFontService,sans-serif" font-weight="700" font-size="24" transform="translate(1158.99 337)">27</text><path d="M721.5 461.5C721.5 457.082 725.082 453.5 729.5 453.5L791.5 453.5C795.918 453.5 799.5 457.082 799.5 461.5L799.5 493.5C799.5 497.918 795.918 501.5 791.5 501.5L729.5 501.5C725.082 501.5 721.5 497.918 721.5 493.5Z" stroke="#000000" stroke-width="1.33333" stroke-miterlimit="8" fill="#E2F0D9" fill-rule="evenodd"/><text font-family="Times New Roman,Times New Roman_MSFontService,sans-serif" font-weight="700" font-size="24" transform="translate(743.301 486)">left</text><path d="M1-2.99398e-06 1.00008 28.3993-0.999915 28.3993-1 2.99398e-06ZM4.00008 27.0659 0.000104987 35.0659-3.99992 27.0659Z" transform="matrix(1 0 0 -1 760 453.066)"/><path d="M1132.5 460.667C1132.5 456.156 1136.16 452.5 1140.67 452.5L1202.33 452.5C1206.84 452.5 1210.5 456.156 1210.5 460.667L1210.5 493.333C1210.5 497.844 1206.84 501.5 1202.33 501.5L1140.67 501.5C1136.16 501.5 1132.5 497.844 1132.5 493.333Z" stroke="#000000" stroke-width="1.33333" stroke-miterlimit="8" fill="#E2F0D9" fill-rule="evenodd"/><text font-family="Times New Roman,Times New Roman_MSFontService,sans-serif" font-weight="700" font-size="24" transform="translate(1145.65 485)">right</text><path d="M1-2.99398e-06 1.00008 28.3993-0.999915 28.3993-1 2.99398e-06ZM4.00008 27.0659 0.000104987 35.0659-3.99992 27.0659Z" transform="matrix(1 0 0 -1 1171 452.066)"/><text font-family="Times New Roman,Times New Roman_MSFontService,sans-serif" font-weight="700" font-size="20" transform="translate(754.379 400)">0<tspan font-size="20" x="82.2036" y="0">1</tspan><tspan font-size="20" x="164.407" y="0">2</tspan><tspan font-size="20" x="246.611" y="0">3</tspan><tspan font-size="20" x="328.814" y="0">4</tspan><tspan font-size="20" x="411.018" y="0">5</tspan></text><path d="M885.5 460.667C885.5 456.156 889.156 452.5 893.667 452.5L955.333 452.5C959.844 452.5 963.5 456.156 963.5 460.667L963.5 493.333C963.5 497.844 959.844 501.5 955.333 501.5L893.667 501.5C889.156 501.5 885.5 497.844 885.5 493.333Z" stroke="#000000" stroke-width="1.33333" stroke-miterlimit="8" fill="#E2F0D9" fill-rule="evenodd"/><text font-family="Times New Roman,Times New Roman_MSFontService,sans-serif" font-weight="700" font-size="24" transform="translate(904.375 485)">mid</text><path d="M1-2.99398e-06 1.00008 28.3993-0.999915 28.3993-1 2.99398e-06ZM4.00008 27.0659 0.000104987 35.0659-3.99992 27.0659Z" transform="matrix(1 0 0 -1 924 452.066)"/><path d="M728.5 205.5C728.5 201.082 732.082 197.5 736.5 197.5L866.5 197.5C870.918 197.5 874.5 201.082 874.5 205.5L874.5 237.5C874.5 241.918 870.918 245.5 866.5 245.5L736.5 245.5C732.082 245.5 728.5 241.918 728.5 237.5Z" stroke="#000000" stroke-width="1.33333" stroke-miterlimit="8" fill="#DAE3F3" fill-rule="evenodd"/><text font-family="Times New Roman,Times New Roman_MSFontService,sans-serif" font-weight="700" font-size="24" transform="translate(757.57 230)">target=1</text></g></svg>