<svg width="496" height="318" xmlns="http://www.w3.org/2000/svg" xmlns:xlink="http://www.w3.org/1999/xlink" overflow="hidden"><defs><clipPath id="clip0"><rect x="260" y="202" width="496" height="318"/></clipPath></defs><g clip-path="url(#clip0)" transform="translate(-260 -202)"><rect x="261.5" y="293.5" width="82" height="82" stroke="#000000" stroke-width="1.33333" stroke-miterlimit="8" fill="#FBE5D6"/><text font-family="Times New Roman,Times New Roman_MSFontService,sans-serif" font-weight="700" font-size="27" transform="translate(295.417 344)">2</text><rect x="343.5" y="293.5" width="82" height="82" stroke="#000000" stroke-width="1.33333" stroke-miterlimit="8" fill="#FBE5D6"/><text font-family="Times New Roman,Times New Roman_MSFontService,sans-serif" font-weight="700" font-size="24" transform="translate(378.287 343)">4</text><rect x="425.5" y="293.5" width="83" height="82" stroke="#000000" stroke-width="1.33333" stroke-miterlimit="8" fill="#FBE5D6"/><text font-family="Times New Roman,Times New Roman_MSFontService,sans-serif" font-weight="700" font-size="24" transform="translate(460.491 343)">4</text><rect x="508.5" y="293.5" width="82" height="82" stroke="#000000" stroke-width="1.33333" stroke-miterlimit="8" fill="#FBE5D6"/><text font-family="Times New Roman,Times New Roman_MSFontService,sans-serif" font-weight="700" font-size="24" transform="translate(542.695 343)">4</text><rect x="590.5" y="293.5" width="82" height="82" stroke="#000000" stroke-width="1.33333" stroke-miterlimit="8" fill="#FBE5D6"/><text font-family="Times New Roman,Times New Roman_MSFontService,sans-serif" font-weight="700" font-size="24" transform="translate(618.898 343)">14</text><rect x="672.5" y="293.5" width="82" height="82" stroke="#000000" stroke-width="1.33333" stroke-miterlimit="8" fill="#FBE5D6"/><text font-family="Times New Roman,Times New Roman_MSFontService,sans-serif" font-weight="700" font-size="24" transform="translate(701.102 343)">27</text><path d="M345.5 474.5C345.5 470.082 349.082 466.5 353.5 466.5L415.5 466.5C419.918 466.5 423.5 470.082 423.5 474.5L423.5 506.5C423.5 510.918 419.918 514.5 415.5 514.5L353.5 514.5C349.082 514.5 345.5 510.918 345.5 506.5Z" stroke="#000000" stroke-width="1.33333" stroke-miterlimit="8" fill="#E2F0D9" fill-rule="evenodd"/><text font-family="Times New Roman,Times New Roman_MSFontService,sans-serif" font-weight="700" font-size="24" transform="translate(367.102 499)">left</text><path d="M1-2.99398e-06 1.00008 28.3993-0.999915 28.3993-1 2.99398e-06ZM4.00008 27.0659 0.000104987 35.0659-3.99992 27.0659Z" transform="matrix(1 0 0 -1 384 466.066)"/><path d="M262.5 474.5C262.5 470.082 266.082 466.5 270.5 466.5L333.5 466.5C337.918 466.5 341.5 470.082 341.5 474.5L341.5 506.5C341.5 510.918 337.918 514.5 333.5 514.5L270.5 514.5C266.082 514.5 262.5 510.918 262.5 506.5Z" stroke="#000000" stroke-width="1.33333" stroke-miterlimit="8" fill="#E2F0D9" fill-rule="evenodd"/><text font-family="Times New Roman,Times New Roman_MSFontService,sans-serif" font-weight="700" font-size="24" transform="translate(276.161 499)">right</text><path d="M1-2.99398e-06 1.00008 28.3993-0.999915 28.3993-1 2.99398e-06ZM4.00008 27.0659 0.000104987 35.0659-3.99992 27.0659Z" transform="matrix(1 0 0 -1 301 466.066)"/><text font-family="Times New Roman,Times New Roman_MSFontService,sans-serif" font-weight="700" font-size="20" transform="translate(296.495 406)">0<tspan font-size="20" x="82.2036" y="0">1</tspan><tspan font-size="20" x="164.407" y="0">2</tspan><tspan font-size="20" x="246.611" y="0">3</tspan><tspan font-size="20" x="328.814" y="0">4</tspan><tspan font-size="20" x="411.018" y="0">5</tspan></text><path d="M270.5 211.5C270.5 207.082 274.082 203.5 278.5 203.5L408.5 203.5C412.918 203.5 416.5 207.082 416.5 211.5L416.5 243.5C416.5 247.918 412.918 251.5 408.5 251.5L278.5 251.5C274.082 251.5 270.5 247.918 270.5 243.5Z" stroke="#000000" stroke-width="1.33333" stroke-miterlimit="8" fill="#DAE3F3" fill-rule="evenodd"/><text font-family="Times New Roman,Times New Roman_MSFontService,sans-serif" font-weight="700" font-size="24" transform="translate(299.686 236)">target=4</text></g></svg>