<svg width="496" height="491" xmlns="http://www.w3.org/2000/svg" xmlns:xlink="http://www.w3.org/1999/xlink" overflow="hidden"><defs><clipPath id="clip0"><rect x="260" y="202" width="496" height="491"/></clipPath></defs><g clip-path="url(#clip0)" transform="translate(-260 -202)"><rect x="261.5" y="293.5" width="82" height="82" stroke="#000000" stroke-width="1.33333" stroke-miterlimit="8" fill="#FBE5D6"/><text font-family="Times New Roman,Times New Roman_MSFontService,sans-serif" font-weight="700" font-size="27" transform="translate(295.417 344)">2</text><rect x="343.5" y="293.5" width="82" height="82" stroke="#000000" stroke-width="1.33333" stroke-miterlimit="8" fill="#FBE5D6"/><text font-family="Times New Roman,Times New Roman_MSFontService,sans-serif" font-weight="700" font-size="24" transform="translate(378.287 343)">4</text><rect x="425.5" y="293.5" width="83" height="82" stroke="#000000" stroke-width="1.33333" stroke-miterlimit="8" fill="#FBE5D6"/><text font-family="Times New Roman,Times New Roman_MSFontService,sans-serif" font-weight="700" font-size="24" transform="translate(460.491 343)">4</text><rect x="508.5" y="293.5" width="82" height="82" stroke="#000000" stroke-width="1.33333" stroke-miterlimit="8" fill="#FBE5D6"/><text font-family="Times New Roman,Times New Roman_MSFontService,sans-serif" font-weight="700" font-size="24" transform="translate(542.695 343)">4</text><rect x="590.5" y="293.5" width="82" height="82" stroke="#000000" stroke-width="1.33333" stroke-miterlimit="8" fill="#FBE5D6"/><text font-family="Times New Roman,Times New Roman_MSFontService,sans-serif" font-weight="700" font-size="24" transform="translate(618.898 343)">14</text><rect x="672.5" y="293.5" width="82" height="82" stroke="#000000" stroke-width="1.33333" stroke-miterlimit="8" fill="#FBE5D6"/><text font-family="Times New Roman,Times New Roman_MSFontService,sans-serif" font-weight="700" font-size="24" transform="translate(701.102 343)">27</text><path d="M343.5 558.5C343.5 554.082 347.082 550.5 351.5 550.5L413.5 550.5C417.918 550.5 421.5 554.082 421.5 558.5L421.5 590.5C421.5 594.918 417.918 598.5 413.5 598.5L351.5 598.5C347.082 598.5 343.5 594.918 343.5 590.5Z" stroke="#000000" stroke-width="1.33333" stroke-miterlimit="8" fill="#E2F0D9" fill-rule="evenodd"/><text font-family="Times New Roman,Times New Roman_MSFontService,sans-serif" font-weight="700" font-size="24" transform="translate(365.609 582)">left</text><path d="M1-2.99398e-06 1.00008 28.3993-0.999915 28.3993-1 2.99398e-06ZM4.00008 27.0659 0.000104987 35.0659-3.99992 27.0659Z" transform="matrix(1 0 0 -1 382 549.066)"/><path d="M345.5 467.667C345.5 463.156 349.156 459.5 353.667 459.5L415.333 459.5C419.844 459.5 423.5 463.156 423.5 467.667L423.5 500.333C423.5 504.844 419.844 508.5 415.333 508.5L353.667 508.5C349.156 508.5 345.5 504.844 345.5 500.333Z" stroke="#000000" stroke-width="1.33333" stroke-miterlimit="8" fill="#E2F0D9" fill-rule="evenodd"/><text font-family="Times New Roman,Times New Roman_MSFontService,sans-serif" font-weight="700" font-size="24" transform="translate(358.365 492)">right</text><path d="M1-2.99398e-06 1.00008 28.3993-0.999915 28.3993-1 2.99398e-06ZM4.00008 27.0659 0.000104987 35.0659-3.99992 27.0659Z" transform="matrix(1 0 0 -1 384 459.066)"/><text font-family="Times New Roman,Times New Roman_MSFontService,sans-serif" font-weight="700" font-size="20" transform="translate(296.495 406)">0<tspan font-size="20" x="82.2036" y="0">1</tspan><tspan font-size="20" x="164.407" y="0">2</tspan><tspan font-size="20" x="246.611" y="0">3</tspan><tspan font-size="20" x="328.814" y="0">4</tspan><tspan font-size="20" x="411.018" y="0">5</tspan></text><path d="M343.5 647.667C343.5 643.156 347.156 639.5 351.667 639.5L413.333 639.5C417.844 639.5 421.5 643.156 421.5 647.667L421.5 680.333C421.5 684.844 417.844 688.5 413.333 688.5L351.667 688.5C347.156 688.5 343.5 684.844 343.5 680.333Z" stroke="#000000" stroke-width="1.33333" stroke-miterlimit="8" fill="#E2F0D9" fill-rule="evenodd"/><text font-family="Times New Roman,Times New Roman_MSFontService,sans-serif" font-weight="700" font-size="24" transform="translate(362.275 672)">mid</text><path d="M1-2.99398e-06 1.00008 28.3993-0.999915 28.3993-1 2.99398e-06ZM4.00008 27.0659 0.000104987 35.0659-3.99992 27.0659Z" transform="matrix(1 0 0 -1 382 639.066)"/><path d="M270.5 211.5C270.5 207.082 274.082 203.5 278.5 203.5L408.5 203.5C412.918 203.5 416.5 207.082 416.5 211.5L416.5 243.5C416.5 247.918 412.918 251.5 408.5 251.5L278.5 251.5C274.082 251.5 270.5 247.918 270.5 243.5Z" stroke="#000000" stroke-width="1.33333" stroke-miterlimit="8" fill="#DAE3F3" fill-rule="evenodd"/><text font-family="Times New Roman,Times New Roman_MSFontService,sans-serif" font-weight="700" font-size="24" transform="translate(299.686 236)">target=4</text></g></svg>