<svg width="1166" height="326" xmlns="http://www.w3.org/2000/svg" xmlns:xlink="http://www.w3.org/1999/xlink" overflow="hidden"><defs><clipPath id="clip0"><rect x="55" y="182" width="1166" height="326"/></clipPath></defs><g clip-path="url(#clip0)" transform="translate(-55 -182)"><text fill="#C55A11" font-family="DengXian,DengXian_MSFontService,sans-serif" font-weight="700" font-size="24" transform="translate(891.745 228)">示例2</text><rect x="56.5001" y="287.5" width="83" height="82" stroke="#000000" stroke-width="1.33333" stroke-miterlimit="8" fill="#FBE5D6"/><text font-family="Times New Roman,Times New Roman_MSFontService,sans-serif" font-weight="700" font-size="27" transform="translate(90.771 338)">2</text><rect x="139.5" y="287.5" width="82" height="82" stroke="#000000" stroke-width="1.33333" stroke-miterlimit="8" fill="#FBE5D6"/><text font-family="Times New Roman,Times New Roman_MSFontService,sans-serif" font-weight="700" font-size="24" transform="translate(173.641 337)">4</text><rect x="221.5" y="287.5" width="82" height="82" stroke="#000000" stroke-width="1.33333" stroke-miterlimit="8" fill="#FBE5D6"/><text font-family="Times New Roman,Times New Roman_MSFontService,sans-serif" font-weight="700" font-size="24" transform="translate(255.845 337)">4</text><rect x="303.5" y="287.5" width="82" height="82" stroke="#000000" stroke-width="1.33333" stroke-miterlimit="8" fill="#FBE5D6"/><text font-family="Times New Roman,Times New Roman_MSFontService,sans-serif" font-weight="700" font-size="24" transform="translate(338.048 337)">4</text><rect x="385.5" y="287.5" width="82" height="82" stroke="#000000" stroke-width="1.33333" stroke-miterlimit="8" fill="#FBE5D6"/><text font-family="Times New Roman,Times New Roman_MSFontService,sans-serif" font-weight="700" font-size="24" transform="translate(414.252 337)">14</text><rect x="467.5" y="287.5" width="83" height="82" stroke="#000000" stroke-width="1.33333" stroke-miterlimit="8" fill="#FBE5D6"/><text font-family="Times New Roman,Times New Roman_MSFontService,sans-serif" font-weight="700" font-size="24" transform="translate(496.456 337)">27</text><path d="M387.5 460.667C387.5 456.156 391.156 452.5 395.667 452.5L457.333 452.5C461.844 452.5 465.5 456.156 465.5 460.667L465.5 493.333C465.5 497.844 461.844 501.5 457.333 501.5L395.667 501.5C391.156 501.5 387.5 497.844 387.5 493.333Z" stroke="#000000" stroke-width="1.33333" stroke-miterlimit="8" fill="#E2F0D9" fill-rule="evenodd"/><text font-family="Times New Roman,Times New Roman_MSFontService,sans-serif" font-weight="700" font-size="24" transform="translate(408.996 485)">left</text><path d="M1-2.99398e-06 1.00008 28.3993-0.999915 28.3993-1 2.99398e-06ZM4.00008 27.0659 0.000104987 35.0659-3.99992 27.0659Z" transform="matrix(1 0 0 -1 426 452.066)"/><path d="M305.5 460.667C305.5 456.156 309.156 452.5 313.667 452.5L375.333 452.5C379.844 452.5 383.5 456.156 383.5 460.667L383.5 493.333C383.5 497.844 379.844 501.5 375.333 501.5L313.667 501.5C309.156 501.5 305.5 497.844 305.5 493.333Z" stroke="#000000" stroke-width="1.33333" stroke-miterlimit="8" fill="#E2F0D9" fill-rule="evenodd"/><text font-family="Times New Roman,Times New Roman_MSFontService,sans-serif" font-weight="700" font-size="24" transform="translate(318.428 485)">right</text><path d="M1-2.99398e-06 1.00008 28.3993-0.999915 28.3993-1 2.99398e-06ZM4.00008 27.0659 0.000104987 35.0659-3.99992 27.0659Z" transform="matrix(1 0 0 -1 344 452.066)"/><text font-family="Times New Roman,Times New Roman_MSFontService,sans-serif" font-weight="700" font-size="20" transform="translate(91.8486 400)">0<tspan font-size="20" x="82.2036" y="0">1</tspan><tspan font-size="20" x="164.407" y="0">2</tspan><tspan font-size="20" x="246.611" y="0">3</tspan><tspan font-size="20" x="328.814" y="0">4</tspan><tspan font-size="20" x="411.018" y="0">5</tspan></text><path d="M66.5001 205.5C66.5001 201.082 70.0819 197.5 74.5003 197.5L203.5 197.5C207.918 197.5 211.5 201.082 211.5 205.5L211.5 237.5C211.5 241.918 207.918 245.5 203.5 245.5L74.5003 245.5C70.0819 245.5 66.5001 241.918 66.5001 237.5Z" stroke="#000000" stroke-width="1.33333" stroke-miterlimit="8" fill="#DAE3F3" fill-rule="evenodd"/><text font-family="Times New Roman,Times New Roman_MSFontService,sans-serif" font-weight="700" font-size="24" transform="translate(95.0394 230)">target=6</text><rect x="719.5" y="287.5" width="82" height="82" stroke="#000000" stroke-width="1.33333" stroke-miterlimit="8" fill="#FBE5D6"/><text font-family="Times New Roman,Times New Roman_MSFontService,sans-serif" font-weight="700" font-size="27" transform="translate(753.284 338)">2</text><rect x="801.5" y="287.5" width="82" height="82" stroke="#000000" stroke-width="1.33333" stroke-miterlimit="8" fill="#FBE5D6"/><text font-family="Times New Roman,Times New Roman_MSFontService,sans-serif" font-weight="700" font-size="24" transform="translate(836.155 337)">4</text><rect x="883.5" y="287.5" width="82" height="82" stroke="#000000" stroke-width="1.33333" stroke-miterlimit="8" fill="#FBE5D6"/><text font-family="Times New Roman,Times New Roman_MSFontService,sans-serif" font-weight="700" font-size="24" transform="translate(918.358 337)">4</text><rect x="965.5" y="287.5" width="82.9999" height="82" stroke="#000000" stroke-width="1.33333" stroke-miterlimit="8" fill="#FBE5D6"/><text font-family="Times New Roman,Times New Roman_MSFontService,sans-serif" font-weight="700" font-size="24" transform="translate(1000.56 337)">4</text><rect x="1048.5" y="287.5" width="82" height="82" stroke="#000000" stroke-width="1.33333" stroke-miterlimit="8" fill="#FBE5D6"/><text font-family="Times New Roman,Times New Roman_MSFontService,sans-serif" font-weight="700" font-size="24" transform="translate(1076.77 337)">14</text><rect x="1130.5" y="287.5" width="82" height="82" stroke="#000000" stroke-width="1.33333" stroke-miterlimit="8" fill="#FBE5D6"/><text font-family="Times New Roman,Times New Roman_MSFontService,sans-serif" font-weight="700" font-size="24" transform="translate(1158.97 337)">27</text><path d="M720.5 460.667C720.5 456.156 724.156 452.5 728.667 452.5L790.333 452.5C794.844 452.5 798.5 456.156 798.5 460.667L798.5 493.333C798.5 497.844 794.844 501.5 790.333 501.5L728.667 501.5C724.156 501.5 720.5 497.844 720.5 493.333Z" stroke="#000000" stroke-width="1.33333" stroke-miterlimit="8" fill="#E2F0D9" fill-rule="evenodd"/><text font-family="Times New Roman,Times New Roman_MSFontService,sans-serif" font-weight="700" font-size="24" transform="translate(742.695 485)">left</text><path d="M1-2.99398e-06 1.00008 28.3993-0.999915 28.3993-1 2.99398e-06ZM4.00008 27.0659 0.000104987 35.0659-3.99992 27.0659Z" transform="matrix(1 0 0 -1 759 452.066)"/><path d="M638.5 460.667C638.5 456.156 642.156 452.5 646.667 452.5L709.333 452.5C713.844 452.5 717.5 456.156 717.5 460.667L717.5 493.333C717.5 497.844 713.844 501.5 709.333 501.5L646.667 501.5C642.156 501.5 638.5 497.844 638.5 493.333Z" stroke="#000000" stroke-width="1.33333" stroke-miterlimit="8" fill="#E2F0D9" fill-rule="evenodd"/><text font-family="Times New Roman,Times New Roman_MSFontService,sans-serif" font-weight="700" font-size="24" transform="translate(652.127 485)">right</text><path d="M1-2.99398e-06 1.00008 28.3993-0.999915 28.3993-1 2.99398e-06ZM4.00008 27.0659 0.000104987 35.0659-3.99992 27.0659Z" transform="matrix(1 0 0 -1 677 452.066)"/><text font-family="Times New Roman,Times New Roman_MSFontService,sans-serif" font-weight="700" font-size="20" transform="translate(754.362 400)">0<tspan font-size="20" x="82.2036" y="0">1</tspan><tspan font-size="20" x="164.407" y="0">2</tspan><tspan font-size="20" x="246.611" y="0">3</tspan><tspan font-size="20" x="328.814" y="0">4</tspan><tspan font-size="20" x="411.018" y="0">5</tspan></text><path d="M728.5 205.5C728.5 201.082 732.082 197.5 736.5 197.5L866.5 197.5C870.918 197.5 874.5 201.082 874.5 205.5L874.5 237.5C874.5 241.918 870.918 245.5 866.5 245.5L736.5 245.5C732.082 245.5 728.5 241.918 728.5 237.5Z" stroke="#000000" stroke-width="1.33333" stroke-miterlimit="8" fill="#DAE3F3" fill-rule="evenodd"/><text font-family="Times New Roman,Times New Roman_MSFontService,sans-serif" font-weight="700" font-size="24" transform="translate(757.553 230)">target=1</text><rect x="637.5" y="287.5" width="82" height="82" stroke="#000000" stroke-width="1.33333" stroke-miterlimit="8" stroke-dasharray="10.6667 4" fill="#FFFFFF"/><rect x="631.5" y="183.5" width="588" height="323" stroke="#BFBFBF" stroke-width="1.33333" stroke-miterlimit="8" fill="#BFBFBF" fill-opacity="0.85098"/><text fill="#FFFFFF" font-family="DengXian,DengXian_MSFontService,sans-serif" font-weight="700" font-size="33" transform="translate(841.601 356)">流程已结束<tspan fill="#C55A11" font-size="24" x="-610.395" y="-128">示例</tspan><tspan fill="#C55A11" font-size="24" x="-562.395" y="-128">1</tspan></text></g></svg>