<svg width="1069" height="310" xmlns="http://www.w3.org/2000/svg" xmlns:xlink="http://www.w3.org/1999/xlink" overflow="hidden"><defs><clipPath id="clip0"><rect x="98" y="196" width="1069" height="310"/></clipPath></defs><g clip-path="url(#clip0)" transform="translate(-98 -196)"><rect x="99.5001" y="287.5" width="82" height="82" stroke="#000000" stroke-width="1.33333" stroke-miterlimit="8" fill="#FBE5D6"/><text font-family="Times New Roman,Times New Roman_MSFontService,sans-serif" font-weight="700" font-size="27" transform="translate(133.309 338)">2</text><rect x="181.5" y="287.5" width="82" height="82" stroke="#000000" stroke-width="1.33333" stroke-miterlimit="8" fill="#FBE5D6"/><text font-family="Times New Roman,Times New Roman_MSFontService,sans-serif" font-weight="700" font-size="24" transform="translate(216.18 337)">4</text><rect x="263.5" y="287.5" width="82" height="82" stroke="#000000" stroke-width="1.33333" stroke-miterlimit="8" fill="#FBE5D6"/><text font-family="Times New Roman,Times New Roman_MSFontService,sans-serif" font-weight="700" font-size="24" transform="translate(298.383 337)">4</text><rect x="345.5" y="287.5" width="83" height="82" stroke="#000000" stroke-width="1.33333" stroke-miterlimit="8" fill="#FBE5D6"/><text font-family="Times New Roman,Times New Roman_MSFontService,sans-serif" font-weight="700" font-size="24" transform="translate(380.587 337)">4</text><rect x="428.5" y="287.5" width="82" height="82" stroke="#000000" stroke-width="1.33333" stroke-miterlimit="8" fill="#FBE5D6"/><text font-family="Times New Roman,Times New Roman_MSFontService,sans-serif" font-weight="700" font-size="24" transform="translate(456.79 337)">14</text><rect x="510.5" y="287.5" width="82" height="82" stroke="#000000" stroke-width="1.33333" stroke-miterlimit="8" fill="#FBE5D6"/><text font-family="Times New Roman,Times New Roman_MSFontService,sans-serif" font-weight="700" font-size="24" transform="translate(538.994 337)">27</text><path d="M348.5 460.667C348.5 456.156 352.156 452.5 356.667 452.5L418.333 452.5C422.844 452.5 426.5 456.156 426.5 460.667L426.5 493.333C426.5 497.844 422.844 501.5 418.333 501.5L356.667 501.5C352.156 501.5 348.5 497.844 348.5 493.333Z" stroke="#000000" stroke-width="1.33333" stroke-miterlimit="8" fill="#E2F0D9" fill-rule="evenodd"/><text font-family="Times New Roman,Times New Roman_MSFontService,sans-serif" font-weight="700" font-size="24" transform="translate(370.495 485)">left</text><path d="M1-2.99398e-06 1.00008 28.3993-0.999915 28.3993-1 2.99398e-06ZM4.00008 27.0659 0.000104987 35.0659-3.99992 27.0659Z" transform="matrix(1 0 0 -1 387 452.066)"/><path d="M512.5 460.667C512.5 456.156 516.156 452.5 520.667 452.5L582.333 452.5C586.844 452.5 590.5 456.156 590.5 460.667L590.5 493.333C590.5 497.844 586.844 501.5 582.333 501.5L520.667 501.5C516.156 501.5 512.5 497.844 512.5 493.333Z" stroke="#000000" stroke-width="1.33333" stroke-miterlimit="8" fill="#E2F0D9" fill-rule="evenodd"/><text font-family="Times New Roman,Times New Roman_MSFontService,sans-serif" font-weight="700" font-size="24" transform="translate(525.66 485)">right</text><path d="M1-2.99398e-06 1.00008 28.3993-0.999915 28.3993-1 2.99398e-06ZM4.00008 27.0659 0.000104987 35.0659-3.99992 27.0659Z" transform="matrix(1 0 0 -1 551 452.066)"/><text font-family="Times New Roman,Times New Roman_MSFontService,sans-serif" font-weight="700" font-size="20" transform="translate(134.387 400)">0<tspan font-size="20" x="82.2036" y="0">1</tspan><tspan font-size="20" x="164.407" y="0">2</tspan><tspan font-size="20" x="246.611" y="0">3</tspan><tspan font-size="20" x="328.814" y="0">4</tspan><tspan font-size="20" x="411.018" y="0">5</tspan></text><path d="M430.5 460.667C430.5 456.156 434.156 452.5 438.667 452.5L500.333 452.5C504.844 452.5 508.5 456.156 508.5 460.667L508.5 493.333C508.5 497.844 504.844 501.5 500.333 501.5L438.667 501.5C434.156 501.5 430.5 497.844 430.5 493.333Z" stroke="#000000" stroke-width="1.33333" stroke-miterlimit="8" fill="#E2F0D9" fill-rule="evenodd"/><text font-family="Times New Roman,Times New Roman_MSFontService,sans-serif" font-weight="700" font-size="24" transform="translate(449.365 485)">mid</text><path d="M1-2.99398e-06 1.00008 28.3993-0.999915 28.3993-1 2.99398e-06ZM4.00008 27.0659 0.000104987 35.0659-3.99992 27.0659Z" transform="matrix(1 0 0 -1 469 452.066)"/><path d="M108.5 205.5C108.5 201.082 112.082 197.5 116.5 197.5L246.5 197.5C250.918 197.5 254.5 201.082 254.5 205.5L254.5 237.5C254.5 241.918 250.918 245.5 246.5 245.5L116.5 245.5C112.082 245.5 108.5 241.918 108.5 237.5Z" stroke="#000000" stroke-width="1.33333" stroke-miterlimit="8" fill="#DAE3F3" fill-rule="evenodd"/><text font-family="Times New Roman,Times New Roman_MSFontService,sans-serif" font-weight="700" font-size="24" transform="translate(137.578 230)">target=6</text><rect x="672.5" y="287.5" width="82" height="82" stroke="#000000" stroke-width="1.33333" stroke-miterlimit="8" fill="#FBE5D6"/><text font-family="Times New Roman,Times New Roman_MSFontService,sans-serif" font-weight="700" font-size="27" transform="translate(706.722 338)">2</text><rect x="754.5" y="287.5" width="83" height="82" stroke="#000000" stroke-width="1.33333" stroke-miterlimit="8" fill="#FBE5D6"/><text font-family="Times New Roman,Times New Roman_MSFontService,sans-serif" font-weight="700" font-size="24" transform="translate(789.592 337)">4</text><rect x="837.5" y="287.5" width="82" height="82" stroke="#000000" stroke-width="1.33333" stroke-miterlimit="8" fill="#FBE5D6"/><text font-family="Times New Roman,Times New Roman_MSFontService,sans-serif" font-weight="700" font-size="24" transform="translate(871.796 337)">4</text><rect x="919.5" y="287.5" width="82" height="82" stroke="#000000" stroke-width="1.33333" stroke-miterlimit="8" fill="#FBE5D6"/><text font-family="Times New Roman,Times New Roman_MSFontService,sans-serif" font-weight="700" font-size="24" transform="translate(954 337)">4</text><rect x="1001.5" y="287.5" width="81.9999" height="82" stroke="#000000" stroke-width="1.33333" stroke-miterlimit="8" fill="#FBE5D6"/><text font-family="Times New Roman,Times New Roman_MSFontService,sans-serif" font-weight="700" font-size="24" transform="translate(1030.2 337)">14</text><rect x="1083.5" y="287.5" width="83" height="82" stroke="#000000" stroke-width="1.33333" stroke-miterlimit="8" fill="#FBE5D6"/><text font-family="Times New Roman,Times New Roman_MSFontService,sans-serif" font-weight="700" font-size="24" transform="translate(1112.41 337)">27<tspan font-size="20" x="-404.607" y="63">0</tspan><tspan font-size="20" x="-322.403" y="63">1</tspan><tspan font-size="20" x="-240.2" y="63">2</tspan><tspan font-size="20" x="-157.996" y="63">3</tspan><tspan font-size="20" x="-75.7927" y="63">4</tspan><tspan font-size="20" x="6.41077" y="63">5</tspan></text><path d="M682.5 205.5C682.5 201.082 686.082 197.5 690.5 197.5L819.5 197.5C823.918 197.5 827.5 201.082 827.5 205.5L827.5 237.5C827.5 241.918 823.918 245.5 819.5 245.5L690.5 245.5C686.082 245.5 682.5 241.918 682.5 237.5Z" stroke="#000000" stroke-width="1.33333" stroke-miterlimit="8" fill="#DAE3F3" fill-rule="evenodd"/><text font-family="Times New Roman,Times New Roman_MSFontService,sans-serif" font-weight="700" font-size="24" transform="translate(704.991 230)">target=30</text><path d="M920.5 460.667C920.5 456.156 924.156 452.5 928.667 452.5L991.333 452.5C995.844 452.5 999.5 456.156 999.5 460.667L999.5 493.333C999.5 497.844 995.844 501.5 991.333 501.5L928.667 501.5C924.156 501.5 920.5 497.844 920.5 493.333Z" stroke="#000000" stroke-width="1.33333" stroke-miterlimit="8" fill="#E2F0D9" fill-rule="evenodd"/><text font-family="Times New Roman,Times New Roman_MSFontService,sans-serif" font-weight="700" font-size="24" transform="translate(942.744 485)">left</text><path d="M1-2.99398e-06 1.00008 28.3993-0.999915 28.3993-1 2.99398e-06ZM4.00008 27.0659 0.000104987 35.0659-3.99992 27.0659Z" transform="matrix(1 0 0 -1 959 452.066)"/><path d="M1085.5 460.667C1085.5 456.156 1089.16 452.5 1093.67 452.5L1155.33 452.5C1159.84 452.5 1163.5 456.156 1163.5 460.667L1163.5 493.333C1163.5 497.844 1159.84 501.5 1155.33 501.5L1093.67 501.5C1089.16 501.5 1085.5 497.844 1085.5 493.333Z" stroke="#000000" stroke-width="1.33333" stroke-miterlimit="8" fill="#E2F0D9" fill-rule="evenodd"/><text font-family="Times New Roman,Times New Roman_MSFontService,sans-serif" font-weight="700" font-size="24" transform="translate(1098.48 485)">right</text><path d="M1-2.99398e-06 1.00008 28.3993-0.999915 28.3993-1 2.99398e-06ZM4.00008 27.0659 0.000104987 35.0659-3.99992 27.0659Z" transform="matrix(1 0 0 -1 1124 452.066)"/><path d="M1003.5 460.667C1003.5 456.156 1007.16 452.5 1011.67 452.5L1073.33 452.5C1077.84 452.5 1081.5 456.156 1081.5 460.667L1081.5 493.333C1081.5 497.844 1077.84 501.5 1073.33 501.5L1011.67 501.5C1007.16 501.5 1003.5 497.844 1003.5 493.333Z" stroke="#000000" stroke-width="1.33333" stroke-miterlimit="8" fill="#E2F0D9" fill-rule="evenodd"/><text font-family="Times New Roman,Times New Roman_MSFontService,sans-serif" font-weight="700" font-size="24" transform="translate(1021.61 485)">mid</text><path d="M1-2.99398e-06 1.00008 28.3993-0.999915 28.3993-1 2.99398e-06ZM4.00008 27.0659 0.000104987 35.0659-3.99992 27.0659Z" transform="matrix(1 0 0 -1 1042 452.066)"/><text fill="#C55A11" font-family="DengXian,DengXian_MSFontService,sans-serif" font-weight="700" font-size="24" transform="translate(265.208 229)">示例1<tspan font-size="24" x="583.099" y="0">示例</tspan>2</text></g></svg>