<svg width="1159" height="401" xmlns="http://www.w3.org/2000/svg" xmlns:xlink="http://www.w3.org/1999/xlink" overflow="hidden"><defs><clipPath id="clip0"><rect x="55" y="196" width="1159" height="401"/></clipPath></defs><g clip-path="url(#clip0)" transform="translate(-55 -196)"><rect x="56.5001" y="287.5" width="83" height="82" stroke="#000000" stroke-width="1.33333" stroke-miterlimit="8" fill="#FBE5D6"/><text font-family="Times New Roman,Times New Roman_MSFontService,sans-serif" font-weight="700" font-size="27" transform="translate(90.75 338)">2</text><rect x="139.5" y="287.5" width="82" height="82" stroke="#000000" stroke-width="1.33333" stroke-miterlimit="8" fill="#FBE5D6"/><text font-family="Times New Roman,Times New Roman_MSFontService,sans-serif" font-weight="700" font-size="24" transform="translate(173.62 337)">4</text><rect x="221.5" y="287.5" width="82" height="82" stroke="#000000" stroke-width="1.33333" stroke-miterlimit="8" fill="#FBE5D6"/><text font-family="Times New Roman,Times New Roman_MSFontService,sans-serif" font-weight="700" font-size="24" transform="translate(255.824 337)">4</text><rect x="303.5" y="287.5" width="82" height="82" stroke="#000000" stroke-width="1.33333" stroke-miterlimit="8" fill="#FBE5D6"/><text font-family="Times New Roman,Times New Roman_MSFontService,sans-serif" font-weight="700" font-size="24" transform="translate(338.027 337)">4</text><rect x="385.5" y="287.5" width="82" height="82" stroke="#000000" stroke-width="1.33333" stroke-miterlimit="8" fill="#FBE5D6"/><text font-family="Times New Roman,Times New Roman_MSFontService,sans-serif" font-weight="700" font-size="24" transform="translate(414.231 337)">14</text><rect x="467.5" y="287.5" width="83" height="82" stroke="#000000" stroke-width="1.33333" stroke-miterlimit="8" fill="#FBE5D6"/><text font-family="Times New Roman,Times New Roman_MSFontService,sans-serif" font-weight="700" font-size="24" transform="translate(496.435 337)">27</text><path d="M305.5 460.667C305.5 456.156 309.156 452.5 313.667 452.5L375.333 452.5C379.844 452.5 383.5 456.156 383.5 460.667L383.5 493.333C383.5 497.844 379.844 501.5 375.333 501.5L313.667 501.5C309.156 501.5 305.5 497.844 305.5 493.333Z" stroke="#000000" stroke-width="1.33333" stroke-miterlimit="8" fill="#E2F0D9" fill-rule="evenodd"/><text font-family="Times New Roman,Times New Roman_MSFontService,sans-serif" font-weight="700" font-size="24" transform="translate(327.361 485)">left</text><path d="M1-2.99398e-06 1.00008 28.3993-0.999915 28.3993-1 2.99398e-06ZM4.00008 27.0659 0.000104987 35.0659-3.99992 27.0659Z" transform="matrix(1 0 0 -1 344 452.066)"/><path d="M469.5 460.667C469.5 456.156 473.156 452.5 477.667 452.5L540.333 452.5C544.844 452.5 548.5 456.156 548.5 460.667L548.5 493.333C548.5 497.844 544.844 501.5 540.333 501.5L477.667 501.5C473.156 501.5 469.5 497.844 469.5 493.333Z" stroke="#000000" stroke-width="1.33333" stroke-miterlimit="8" fill="#E2F0D9" fill-rule="evenodd"/><text font-family="Times New Roman,Times New Roman_MSFontService,sans-serif" font-weight="700" font-size="24" transform="translate(483.101 485)">right</text><path d="M1-2.99398e-06 1.00008 28.3993-0.999915 28.3993-1 2.99398e-06ZM4.00008 27.0659 0.000104987 35.0659-3.99992 27.0659Z" transform="matrix(1 0 0 -1 508 452.066)"/><text font-family="Times New Roman,Times New Roman_MSFontService,sans-serif" font-weight="700" font-size="20" transform="translate(91.8276 400)">0<tspan font-size="20" x="82.2036" y="0">1</tspan><tspan font-size="20" x="164.407" y="0">2</tspan><tspan font-size="20" x="246.611" y="0">3</tspan><tspan font-size="20" x="328.814" y="0">4</tspan><tspan font-size="20" x="411.018" y="0">5</tspan></text><path d="M387.5 460.667C387.5 456.156 391.156 452.5 395.667 452.5L457.333 452.5C461.844 452.5 465.5 456.156 465.5 460.667L465.5 493.333C465.5 497.844 461.844 501.5 457.333 501.5L395.667 501.5C391.156 501.5 387.5 497.844 387.5 493.333Z" stroke="#000000" stroke-width="1.33333" stroke-miterlimit="8" fill="#E2F0D9" fill-rule="evenodd"/><text font-family="Times New Roman,Times New Roman_MSFontService,sans-serif" font-weight="700" font-size="24" transform="translate(406.013 485)">mid</text><path d="M1-2.99398e-06 1.00008 28.3993-0.999915 28.3993-1 2.99398e-06ZM4.00008 27.0659 0.000104987 35.0659-3.99992 27.0659Z" transform="matrix(1 0 0 -1 426 452.066)"/><path d="M66.5001 205.5C66.5001 201.082 70.0819 197.5 74.5003 197.5L203.5 197.5C207.918 197.5 211.5 201.082 211.5 205.5L211.5 237.5C211.5 241.918 207.918 245.5 203.5 245.5L74.5003 245.5C70.0819 245.5 66.5001 241.918 66.5001 237.5Z" stroke="#000000" stroke-width="1.33333" stroke-miterlimit="8" fill="#DAE3F3" fill-rule="evenodd"/><text font-family="Times New Roman,Times New Roman_MSFontService,sans-serif" font-weight="700" font-size="24" transform="translate(95.0184 230)">target=6</text><rect x="719.5" y="287.5" width="82" height="82" stroke="#000000" stroke-width="1.33333" stroke-miterlimit="8" fill="#FBE5D6"/><text font-family="Times New Roman,Times New Roman_MSFontService,sans-serif" font-weight="700" font-size="27" transform="translate(753.301 338)">2</text><rect x="801.5" y="287.5" width="82" height="82" stroke="#000000" stroke-width="1.33333" stroke-miterlimit="8" fill="#FBE5D6"/><text font-family="Times New Roman,Times New Roman_MSFontService,sans-serif" font-weight="700" font-size="24" transform="translate(836.171 337)">4</text><rect x="883.5" y="287.5" width="82" height="82" stroke="#000000" stroke-width="1.33333" stroke-miterlimit="8" fill="#FBE5D6"/><text font-family="Times New Roman,Times New Roman_MSFontService,sans-serif" font-weight="700" font-size="24" transform="translate(918.375 337)">4</text><rect x="965.5" y="287.5" width="82.9999" height="82" stroke="#000000" stroke-width="1.33333" stroke-miterlimit="8" fill="#FBE5D6"/><text font-family="Times New Roman,Times New Roman_MSFontService,sans-serif" font-weight="700" font-size="24" transform="translate(1000.58 337)">4</text><rect x="1048.5" y="287.5" width="82" height="82" stroke="#000000" stroke-width="1.33333" stroke-miterlimit="8" fill="#FBE5D6"/><text font-family="Times New Roman,Times New Roman_MSFontService,sans-serif" font-weight="700" font-size="24" transform="translate(1076.78 337)">14</text><rect x="1130.5" y="287.5" width="82" height="82" stroke="#000000" stroke-width="1.33333" stroke-miterlimit="8" fill="#FBE5D6"/><text font-family="Times New Roman,Times New Roman_MSFontService,sans-serif" font-weight="700" font-size="24" transform="translate(1158.99 337)">27</text><path d="M720.5 460.667C720.5 456.156 724.156 452.5 728.667 452.5L790.333 452.5C794.844 452.5 798.5 456.156 798.5 460.667L798.5 493.333C798.5 497.844 794.844 501.5 790.333 501.5L728.667 501.5C724.156 501.5 720.5 497.844 720.5 493.333Z" stroke="#000000" stroke-width="1.33333" stroke-miterlimit="8" fill="#E2F0D9" fill-rule="evenodd"/><text font-family="Times New Roman,Times New Roman_MSFontService,sans-serif" font-weight="700" font-size="24" transform="translate(742.712 485)">left</text><path d="M1-2.99398e-06 1.00008 28.3993-0.999915 28.3993-1 2.99398e-06ZM4.00008 27.0659 0.000104987 35.0659-3.99992 27.0659Z" transform="matrix(1 0 0 -1 759 452.066)"/><path d="M802.5 460.667C802.5 456.156 806.156 452.5 810.667 452.5L873.333 452.5C877.844 452.5 881.5 456.156 881.5 460.667L881.5 493.333C881.5 497.844 877.844 501.5 873.333 501.5L810.667 501.5C806.156 501.5 802.5 497.844 802.5 493.333Z" stroke="#000000" stroke-width="1.33333" stroke-miterlimit="8" fill="#E2F0D9" fill-rule="evenodd"/><text font-family="Times New Roman,Times New Roman_MSFontService,sans-serif" font-weight="700" font-size="24" transform="translate(816.249 485)">right</text><path d="M1-2.99398e-06 1.00008 28.3993-0.999915 28.3993-1 2.99398e-06ZM4.00008 27.0659 0.000104987 35.0659-3.99992 27.0659Z" transform="matrix(1 0 0 -1 842 452.066)"/><text font-family="Times New Roman,Times New Roman_MSFontService,sans-serif" font-weight="700" font-size="20" transform="translate(754.379 400)">0<tspan font-size="20" x="82.2036" y="0">1</tspan><tspan font-size="20" x="164.407" y="0">2</tspan><tspan font-size="20" x="246.611" y="0">3</tspan><tspan font-size="20" x="328.814" y="0">4</tspan><tspan font-size="20" x="411.018" y="0">5</tspan></text><path d="M720.5 551.667C720.5 547.156 724.156 543.5 728.667 543.5L790.333 543.5C794.844 543.5 798.5 547.156 798.5 551.667L798.5 584.333C798.5 588.844 794.844 592.5 790.333 592.5L728.667 592.5C724.156 592.5 720.5 588.844 720.5 584.333Z" stroke="#000000" stroke-width="1.33333" stroke-miterlimit="8" fill="#E2F0D9" fill-rule="evenodd"/><text font-family="Times New Roman,Times New Roman_MSFontService,sans-serif" font-weight="700" font-size="24" transform="translate(739.379 576)">mid</text><path d="M1-2.99398e-06 1.00008 28.3993-0.999915 28.3993-1 2.99398e-06ZM4.00008 27.0659 0.000104987 35.0659-3.99992 27.0659Z" transform="matrix(1 0 0 -1 759 543.066)"/><path d="M728.5 205.5C728.5 201.082 732.082 197.5 736.5 197.5L866.5 197.5C870.918 197.5 874.5 201.082 874.5 205.5L874.5 237.5C874.5 241.918 870.918 245.5 866.5 245.5L736.5 245.5C732.082 245.5 728.5 241.918 728.5 237.5Z" stroke="#000000" stroke-width="1.33333" stroke-miterlimit="8" fill="#DAE3F3" fill-rule="evenodd"/><text font-family="Times New Roman,Times New Roman_MSFontService,sans-serif" font-weight="700" font-size="24" transform="translate(757.57 230)">target=1<tspan fill="#C55A11" font-family="DengXian,DengXian_MSFontService,sans-serif" font-size="24" x="-526.364" y="-2">示例</tspan><tspan fill="#C55A11" font-family="DengXian,DengXian_MSFontService,sans-serif" font-size="24" x="-478.364" y="-2">1</tspan><tspan fill="#C55A11" font-family="DengXian,DengXian_MSFontService,sans-serif" font-size="24" x="134.175" y="-2">示例</tspan><tspan fill="#C55A11" font-family="DengXian,DengXian_MSFontService,sans-serif" font-size="24" x="182.175" y="-2">2</tspan></text></g></svg>