<svg width="496" height="311" xmlns="http://www.w3.org/2000/svg" xmlns:xlink="http://www.w3.org/1999/xlink" overflow="hidden"><defs><clipPath id="clip0"><rect x="260" y="202" width="496" height="311"/></clipPath></defs><g clip-path="url(#clip0)" transform="translate(-260 -202)"><rect x="261.5" y="293.5" width="82" height="82" stroke="#000000" stroke-width="1.33333" stroke-miterlimit="8" fill="#FBE5D6"/><text font-family="Times New Roman,Times New Roman_MSFontService,sans-serif" font-weight="700" font-size="27" transform="translate(295.417 344)">2</text><rect x="343.5" y="293.5" width="82" height="82" stroke="#000000" stroke-width="1.33333" stroke-miterlimit="8" fill="#FBE5D6"/><text font-family="Times New Roman,Times New Roman_MSFontService,sans-serif" font-weight="700" font-size="24" transform="translate(378.287 343)">4</text><rect x="425.5" y="293.5" width="83" height="82" stroke="#000000" stroke-width="1.33333" stroke-miterlimit="8" fill="#FBE5D6"/><text font-family="Times New Roman,Times New Roman_MSFontService,sans-serif" font-weight="700" font-size="24" transform="translate(460.491 343)">4</text><rect x="508.5" y="293.5" width="82" height="82" stroke="#000000" stroke-width="1.33333" stroke-miterlimit="8" fill="#FBE5D6"/><text font-family="Times New Roman,Times New Roman_MSFontService,sans-serif" font-weight="700" font-size="24" transform="translate(542.695 343)">4</text><rect x="590.5" y="293.5" width="82" height="82" stroke="#000000" stroke-width="1.33333" stroke-miterlimit="8" fill="#FBE5D6"/><text font-family="Times New Roman,Times New Roman_MSFontService,sans-serif" font-weight="700" font-size="24" transform="translate(618.898 343)">14</text><rect x="672.5" y="293.5" width="82" height="82" stroke="#000000" stroke-width="1.33333" stroke-miterlimit="8" fill="#FBE5D6"/><text font-family="Times New Roman,Times New Roman_MSFontService,sans-serif" font-weight="700" font-size="24" transform="translate(701.102 343)">27</text><path d="M591.5 467.5C591.5 463.082 595.082 459.5 599.5 459.5L661.5 459.5C665.918 459.5 669.5 463.082 669.5 467.5L669.5 499.5C669.5 503.918 665.918 507.5 661.5 507.5L599.5 507.5C595.082 507.5 591.5 503.918 591.5 499.5Z" stroke="#000000" stroke-width="1.33333" stroke-miterlimit="8" fill="#E2F0D9" fill-rule="evenodd"/><text font-family="Times New Roman,Times New Roman_MSFontService,sans-serif" font-weight="700" font-size="24" transform="translate(613.642 491)">left</text><path d="M1-2.99398e-06 1.00008 28.3993-0.999915 28.3993-1 2.99398e-06ZM4.00008 27.0659 0.000104987 35.0659-3.99992 27.0659Z" transform="matrix(1 0 0 -1 630 459.066)"/><path d="M509.5 467.5C509.5 463.082 513.082 459.5 517.5 459.5L579.5 459.5C583.918 459.5 587.5 463.082 587.5 467.5L587.5 499.5C587.5 503.918 583.918 507.5 579.5 507.5L517.5 507.5C513.082 507.5 509.5 503.918 509.5 499.5Z" stroke="#000000" stroke-width="1.33333" stroke-miterlimit="8" fill="#E2F0D9" fill-rule="evenodd"/><text font-family="Times New Roman,Times New Roman_MSFontService,sans-serif" font-weight="700" font-size="24" transform="translate(522.772 491)">right</text><path d="M1-2.99398e-06 1.00008 28.3993-0.999915 28.3993-1 2.99398e-06ZM4.00008 27.0659 0.000104987 35.0659-3.99992 27.0659Z" transform="matrix(1 0 0 -1 548 459.066)"/><text font-family="Times New Roman,Times New Roman_MSFontService,sans-serif" font-weight="700" font-size="20" transform="translate(296.495 406)">0<tspan font-size="20" x="82.2036" y="0">1</tspan><tspan font-size="20" x="164.407" y="0">2</tspan><tspan font-size="20" x="246.611" y="0">3</tspan><tspan font-size="20" x="328.814" y="0">4</tspan><tspan font-size="20" x="411.018" y="0">5</tspan></text><path d="M270.5 211.5C270.5 207.082 274.082 203.5 278.5 203.5L408.5 203.5C412.918 203.5 416.5 207.082 416.5 211.5L416.5 243.5C416.5 247.918 412.918 251.5 408.5 251.5L278.5 251.5C274.082 251.5 270.5 247.918 270.5 243.5Z" stroke="#000000" stroke-width="1.33333" stroke-miterlimit="8" fill="#DAE3F3" fill-rule="evenodd"/><text font-family="Times New Roman,Times New Roman_MSFontService,sans-serif" font-weight="700" font-size="24" transform="translate(299.686 236)">target=4</text></g></svg>