<svg width="1017" height="249" xmlns="http://www.w3.org/2000/svg" xmlns:xlink="http://www.w3.org/1999/xlink" overflow="hidden"><defs><clipPath id="clip0"><rect x="122" y="158" width="1017" height="249"/></clipPath><clipPath id="clip1"><rect x="122" y="96" width="33" height="202"/></clipPath></defs><g clip-path="url(#clip0)" transform="translate(-122 -158)"><path d="M154.551 159.056 230.142 159.056 230.142 234.646 154.551 234.646Z" fill="#FBE5D6" fill-rule="evenodd"/><path d="M230.142 159.056 305.732 159.056 305.732 234.646 230.142 234.646Z" fill="#FBE5D6" fill-rule="evenodd"/><path d="M305.732 159.056 381.323 159.056 381.323 234.646 305.732 234.646Z" fill="#FFF2CC" fill-rule="evenodd"/><path d="M381.323 159.056 456.914 159.056 456.914 234.646 381.323 234.646Z" fill="#FFF2CC" fill-rule="evenodd"/><path d="M456.914 159.056 532.504 159.056 532.504 234.646 456.914 234.646Z" fill="#FFF2CC" fill-rule="evenodd"/><path d="M532.504 159.056 608.095 159.056 608.095 234.646 532.504 234.646Z" fill="#FFF2CC" fill-rule="evenodd"/><path d="M608.095 159.056 683.685 159.056 683.685 234.646 608.095 234.646Z" fill="#DEEBF7" fill-rule="evenodd"/><path d="M683.685 159.056 759.276 159.056 759.276 234.646 683.685 234.646Z" fill="#FFF2CC" fill-rule="evenodd"/><path d="M759.276 159.056 834.866 159.056 834.866 234.646 759.276 234.646Z" fill="#FFF2CC" fill-rule="evenodd"/><path d="M834.866 159.056 910.457 159.056 910.457 234.646 834.866 234.646Z" fill="#FFF2CC" fill-rule="evenodd"/><path d="M910.457 159.056 986.047 159.056 986.047 234.646 910.457 234.646Z" fill="#FFF2CC" fill-rule="evenodd"/><path d="M986.047 159.056 1061.64 159.056 1061.64 234.646 986.047 234.646Z" fill="#FBE5D6" fill-rule="evenodd"/><path d="M1061.64 159.056 1137.23 159.056 1137.23 234.646 1061.64 234.646Z" fill="#FBE5D6" fill-rule="evenodd"/><path d="M154.551 158.389 154.551 235.313" stroke="#000000" stroke-width="1.33333" stroke-linejoin="round" stroke-miterlimit="10" fill="none" fill-rule="evenodd"/><path d="M230.142 158.389 230.142 235.313" stroke="#000000" stroke-width="1.33333" stroke-linejoin="round" stroke-miterlimit="10" fill="none" fill-rule="evenodd"/><path d="M305.732 158.389 305.732 235.313" stroke="#000000" stroke-width="1.33333" stroke-linejoin="round" stroke-miterlimit="10" fill="none" fill-rule="evenodd"/><path d="M381.323 158.389 381.323 235.313" stroke="#000000" stroke-width="1.33333" stroke-linejoin="round" stroke-miterlimit="10" fill="none" fill-rule="evenodd"/><path d="M456.914 158.389 456.914 235.313" stroke="#000000" stroke-width="1.33333" stroke-linejoin="round" stroke-miterlimit="10" fill="none" fill-rule="evenodd"/><path d="M532.504 158.389 532.504 235.313" stroke="#000000" stroke-width="1.33333" stroke-linejoin="round" stroke-miterlimit="10" fill="none" fill-rule="evenodd"/><path d="M608.095 158.389 608.095 235.313" stroke="#000000" stroke-width="1.33333" stroke-linejoin="round" stroke-miterlimit="10" fill="none" fill-rule="evenodd"/><path d="M683.685 158.389 683.685 235.313" stroke="#000000" stroke-width="1.33333" stroke-linejoin="round" stroke-miterlimit="10" fill="none" fill-rule="evenodd"/><path d="M759.276 158.389 759.276 235.313" stroke="#000000" stroke-width="1.33333" stroke-linejoin="round" stroke-miterlimit="10" fill="none" fill-rule="evenodd"/><path d="M834.866 158.389 834.866 235.313" stroke="#000000" stroke-width="1.33333" stroke-linejoin="round" stroke-miterlimit="10" fill="none" fill-rule="evenodd"/><path d="M910.457 158.389 910.457 235.313" stroke="#000000" stroke-width="1.33333" stroke-linejoin="round" stroke-miterlimit="10" fill="none" fill-rule="evenodd"/><path d="M986.047 158.389 986.047 235.313" stroke="#000000" stroke-width="1.33333" stroke-linejoin="round" stroke-miterlimit="10" fill="none" fill-rule="evenodd"/><path d="M1061.64 158.389 1061.64 235.313" stroke="#000000" stroke-width="1.33333" stroke-linejoin="round" stroke-miterlimit="10" fill="none" fill-rule="evenodd"/><path d="M153.885 234.646 1137.9 234.646" stroke="#000000" stroke-width="1.33333" stroke-linejoin="round" stroke-miterlimit="10" fill="none" fill-rule="evenodd"/><path d="M1137.23 158.389 1137.23 235.313" stroke="#000000" stroke-width="1.33333" stroke-linejoin="round" stroke-miterlimit="10" fill="none" fill-rule="evenodd"/><path d="M153.885 159.056 1137.9 159.056" stroke="#000000" stroke-width="1.33333" stroke-linejoin="round" stroke-miterlimit="10" fill="none" fill-rule="evenodd"/><g clip-path="url(#clip1)"><text font-family="Times New Roman,Times New Roman_MSFontService,sans-serif" font-weight="700" font-size="24" transform="translate(133.854 205)">s</text></g><text font-family="Times New Roman,Times New Roman_MSFontService,sans-serif" font-weight="700" font-size="24" transform="translate(186.347 205)">#<tspan font-size="24" x="74.9239" y="0">b</tspan><tspan font-size="24" x="151.181" y="0">#</tspan><tspan font-size="24" x="226.772" y="0">a</tspan><tspan font-size="24" x="302.362" y="0">#</tspan><tspan font-size="24" x="377.286" y="0">b</tspan><tspan font-size="24" x="453.543" y="0">#</tspan><tspan font-size="24" x="528.467" y="0">b</tspan><tspan font-size="24" x="604.724" y="0">#</tspan><tspan font-size="24" x="680.315" y="0">a</tspan><tspan font-size="24" x="755.906" y="0">#</tspan><tspan font-size="24" x="830.829" y="0">d</tspan><tspan font-size="24" x="907.087" y="0">#</tspan><tspan font-size="20" x="1" y="53">0</tspan><tspan font-size="20" x="76.5905" y="53">1</tspan><tspan font-size="20" x="152.181" y="53">2</tspan><tspan font-size="20" x="227.772" y="53">3</tspan><tspan font-size="20" x="303.362" y="53">4</tspan><tspan font-size="20" x="378.953" y="53">5</tspan><tspan font-size="20" x="454.543" y="53">6</tspan><tspan font-size="20" x="530.134" y="53">7</tspan><tspan font-size="20" x="605.724" y="53">8</tspan><tspan font-size="20" x="681.315" y="53">9</tspan><tspan font-size="20" x="751.906" y="53">10</tspan><tspan font-size="20" x="828.049" y="53">11</tspan><tspan font-size="20" x="903.087" y="53">12</tspan></text><path d="M616.5 286C616.5 281.858 619.858 278.5 624 278.5L672 278.5C676.142 278.5 679.5 281.858 679.5 286L679.5 316C679.5 320.142 676.142 323.5 672 323.5L624 323.5C619.858 323.5 616.5 320.142 616.5 316Z" stroke="#000000" stroke-width="1.33333" stroke-miterlimit="8" fill="#E2F0D9" fill-rule="evenodd"/><text font-family="Times New Roman,Times New Roman_MSFontService,sans-serif" font-weight="700" font-size="19" transform="translate(643.219 307)">c</text><path d="M3.99999-0.36058 0.000104987 7.63947-4-0.36047Z" transform="matrix(1 0 0 -1 647 277.639)"/><path d="M916.5 286C916.5 281.858 919.858 278.5 924 278.5L972 278.5C976.142 278.5 979.5 281.858 979.5 286L979.5 316C979.5 320.142 976.142 323.5 972 323.5L924 323.5C919.858 323.5 916.5 320.142 916.5 316Z" stroke="#000000" stroke-width="1.33333" stroke-miterlimit="8" fill="#E2F0D9" fill-rule="evenodd"/><text font-family="Times New Roman,Times New Roman_MSFontService,sans-serif" font-weight="700" font-size="19" transform="translate(943.237 307)">r</text><path d="M3.99999-0.36058 0.000104987 7.63947-4-0.36047Z" transform="matrix(1 0 0 -1 947 277.639)"/><path d="M310.5 286C310.5 281.858 313.858 278.5 318 278.5L367 278.5C371.142 278.5 374.5 281.858 374.5 286L374.5 316C374.5 320.142 371.142 323.5 367 323.5L318 323.5C313.858 323.5 310.5 320.142 310.5 316Z" stroke="#000000" stroke-width="1.33333" stroke-miterlimit="8" fill="#E2F0D9" fill-rule="evenodd"/><text font-family="Times New Roman,Times New Roman_MSFontService,sans-serif" font-weight="700" font-size="19" transform="translate(339.422 307)">l</text><path d="M3.99999-0.36058 0.000104987 7.63947-4-0.36047Z" transform="matrix(1 0 0 -1 342 277.639)"/><text font-family="Times New Roman,Times New Roman_MSFontService,sans-serif" font-weight="700" font-size="24" transform="translate(607.886 386)">p[6] = 4</text></g></svg>