<svg width="1018" height="372" xmlns="http://www.w3.org/2000/svg" xmlns:xlink="http://www.w3.org/1999/xlink" overflow="hidden"><defs><clipPath id="clip0"><rect x="132" y="92" width="1018" height="372"/></clipPath><clipPath id="clip1"><rect x="132" y="248" width="33" height="203"/></clipPath></defs><g clip-path="url(#clip0)" transform="translate(-132 -92)"><path d="M445.624 93.436 521.215 93.436 521.215 169.027 445.624 169.027Z" fill="#FBE5D6" fill-rule="evenodd"/><path d="M521.215 93.436 596.805 93.436 596.805 169.027 521.215 169.027Z" fill="#FBE5D6" fill-rule="evenodd"/><path d="M596.805 93.436 672.396 93.436 672.396 169.027 596.805 169.027Z" fill="#FBE5D6" fill-rule="evenodd"/><path d="M672.396 93.436 747.986 93.436 747.986 169.027 672.396 169.027Z" fill="#FBE5D6" fill-rule="evenodd"/><path d="M747.986 93.436 823.577 93.436 823.577 169.027 747.986 169.027Z" fill="#FBE5D6" fill-rule="evenodd"/><path d="M823.577 93.436 899.168 93.436 899.168 169.027 823.577 169.027Z" fill="#FBE5D6" fill-rule="evenodd"/><path d="M445.624 92.7693 445.624 169.693" stroke="#000000" stroke-width="1.33333" stroke-linejoin="round" stroke-miterlimit="10" fill="none" fill-rule="evenodd"/><path d="M521.215 92.7693 521.215 169.693" stroke="#000000" stroke-width="1.33333" stroke-linejoin="round" stroke-miterlimit="10" fill="none" fill-rule="evenodd"/><path d="M596.805 92.7693 596.805 169.693" stroke="#000000" stroke-width="1.33333" stroke-linejoin="round" stroke-miterlimit="10" fill="none" fill-rule="evenodd"/><path d="M672.396 92.7693 672.396 169.693" stroke="#000000" stroke-width="1.33333" stroke-linejoin="round" stroke-miterlimit="10" fill="none" fill-rule="evenodd"/><path d="M747.986 92.7693 747.986 169.693" stroke="#000000" stroke-width="1.33333" stroke-linejoin="round" stroke-miterlimit="10" fill="none" fill-rule="evenodd"/><path d="M823.577 92.7693 823.577 169.693" stroke="#000000" stroke-width="1.33333" stroke-linejoin="round" stroke-miterlimit="10" fill="none" fill-rule="evenodd"/><path d="M444.958 169.027 899.834 169.027" stroke="#000000" stroke-width="1.33333" stroke-linejoin="round" stroke-miterlimit="10" fill="none" fill-rule="evenodd"/><path d="M899.168 92.7693 899.168 169.693" stroke="#000000" stroke-width="1.33333" stroke-linejoin="round" stroke-miterlimit="10" fill="none" fill-rule="evenodd"/><path d="M444.958 93.436 899.834 93.436" stroke="#000000" stroke-width="1.33333" stroke-linejoin="round" stroke-miterlimit="10" fill="none" fill-rule="evenodd"/><text font-family="Times New Roman,Times New Roman_MSFontService,sans-serif" font-weight="700" font-size="24" transform="translate(408.562 140)">s<tspan font-size="24" x="68.1912" y="0">b</tspan><tspan font-size="24" x="144.448" y="0">a</tspan><tspan font-size="24" x="219.372" y="0">b</tspan><tspan font-size="24" x="294.963" y="0">b</tspan><tspan font-size="24" x="371.22" y="0">a</tspan><tspan font-size="24" x="446.144" y="0">d</tspan><tspan font-size="20" x="69.8578" y="53">0</tspan><tspan font-size="20" x="145.448" y="53">1</tspan><tspan font-size="20" x="221.039" y="53">2</tspan><tspan font-size="20" x="296.629" y="53">3</tspan><tspan font-size="20" x="372.22" y="53">4</tspan><tspan font-size="20" x="447.811" y="53">5</tspan></text><path d="M164.692 311.845 240.283 311.845 240.283 387.435 164.692 387.435Z" fill="#FBE5D6" fill-rule="evenodd"/><path d="M240.283 311.845 315.873 311.845 315.873 387.435 240.283 387.435Z" fill="#FBE5D6" fill-rule="evenodd"/><path d="M315.873 311.845 391.464 311.845 391.464 387.435 315.873 387.435Z" fill="#FBE5D6" fill-rule="evenodd"/><path d="M391.464 311.845 467.054 311.845 467.054 387.435 391.464 387.435Z" fill="#FBE5D6" fill-rule="evenodd"/><path d="M467.054 311.845 542.645 311.845 542.645 387.435 467.054 387.435Z" fill="#FBE5D6" fill-rule="evenodd"/><path d="M542.645 311.845 618.236 311.845 618.236 387.435 542.645 387.435Z" fill="#FBE5D6" fill-rule="evenodd"/><path d="M618.236 311.845 693.826 311.845 693.826 387.435 618.236 387.435Z" fill="#FBE5D6" fill-rule="evenodd"/><path d="M693.826 311.845 769.417 311.845 769.417 387.435 693.826 387.435Z" fill="#FBE5D6" fill-rule="evenodd"/><path d="M769.417 311.845 845.007 311.845 845.007 387.435 769.417 387.435Z" fill="#FBE5D6" fill-rule="evenodd"/><path d="M845.007 311.845 920.598 311.845 920.598 387.435 845.007 387.435Z" fill="#FBE5D6" fill-rule="evenodd"/><path d="M920.598 311.845 996.188 311.845 996.188 387.435 920.598 387.435Z" fill="#FBE5D6" fill-rule="evenodd"/><path d="M996.188 311.845 1071.78 311.845 1071.78 387.435 996.188 387.435Z" fill="#FBE5D6" fill-rule="evenodd"/><path d="M1071.78 311.845 1147.37 311.845 1147.37 387.435 1071.78 387.435Z" fill="#FBE5D6" fill-rule="evenodd"/><path d="M164.692 311.178 164.692 388.102" stroke="#000000" stroke-width="1.33333" stroke-linejoin="round" stroke-miterlimit="10" fill="none" fill-rule="evenodd"/><path d="M240.283 311.178 240.283 388.102" stroke="#000000" stroke-width="1.33333" stroke-linejoin="round" stroke-miterlimit="10" fill="none" fill-rule="evenodd"/><path d="M315.873 311.178 315.873 388.102" stroke="#000000" stroke-width="1.33333" stroke-linejoin="round" stroke-miterlimit="10" fill="none" fill-rule="evenodd"/><path d="M391.464 311.178 391.464 388.102" stroke="#000000" stroke-width="1.33333" stroke-linejoin="round" stroke-miterlimit="10" fill="none" fill-rule="evenodd"/><path d="M467.054 311.178 467.054 388.102" stroke="#000000" stroke-width="1.33333" stroke-linejoin="round" stroke-miterlimit="10" fill="none" fill-rule="evenodd"/><path d="M542.645 311.178 542.645 388.102" stroke="#000000" stroke-width="1.33333" stroke-linejoin="round" stroke-miterlimit="10" fill="none" fill-rule="evenodd"/><path d="M618.236 311.178 618.236 388.102" stroke="#000000" stroke-width="1.33333" stroke-linejoin="round" stroke-miterlimit="10" fill="none" fill-rule="evenodd"/><path d="M693.826 311.178 693.826 388.102" stroke="#000000" stroke-width="1.33333" stroke-linejoin="round" stroke-miterlimit="10" fill="none" fill-rule="evenodd"/><path d="M769.417 311.178 769.417 388.102" stroke="#000000" stroke-width="1.33333" stroke-linejoin="round" stroke-miterlimit="10" fill="none" fill-rule="evenodd"/><path d="M845.007 311.178 845.007 388.102" stroke="#000000" stroke-width="1.33333" stroke-linejoin="round" stroke-miterlimit="10" fill="none" fill-rule="evenodd"/><path d="M920.598 311.178 920.598 388.102" stroke="#000000" stroke-width="1.33333" stroke-linejoin="round" stroke-miterlimit="10" fill="none" fill-rule="evenodd"/><path d="M996.188 311.178 996.188 388.102" stroke="#000000" stroke-width="1.33333" stroke-linejoin="round" stroke-miterlimit="10" fill="none" fill-rule="evenodd"/><path d="M1071.78 311.178 1071.78 388.102" stroke="#000000" stroke-width="1.33333" stroke-linejoin="round" stroke-miterlimit="10" fill="none" fill-rule="evenodd"/><path d="M164.026 387.435 1148.04 387.435" stroke="#000000" stroke-width="1.33333" stroke-linejoin="round" stroke-miterlimit="10" fill="none" fill-rule="evenodd"/><path d="M1147.37 311.178 1147.37 388.102" stroke="#000000" stroke-width="1.33333" stroke-linejoin="round" stroke-miterlimit="10" fill="none" fill-rule="evenodd"/><path d="M164.026 311.845 1148.04 311.845" stroke="#000000" stroke-width="1.33333" stroke-linejoin="round" stroke-miterlimit="10" fill="none" fill-rule="evenodd"/><g clip-path="url(#clip1)"><text font-family="Times New Roman,Times New Roman_MSFontService,sans-serif" font-weight="700" font-size="24" transform="translate(143.995 358)">s</text></g><text font-family="Times New Roman,Times New Roman_MSFontService,sans-serif" font-weight="700" font-size="24" transform="translate(196.488 358)">#<tspan font-size="24" x="74.9239" y="0">b</tspan><tspan font-size="24" x="151.181" y="0">#</tspan><tspan font-size="24" x="226.772" y="0">a</tspan><tspan font-size="24" x="302.362" y="0">#</tspan><tspan font-size="24" x="377.286" y="0">b</tspan><tspan font-size="24" x="453.543" y="0">#</tspan><tspan font-size="24" x="528.467" y="0">b</tspan><tspan font-size="24" x="604.724" y="0">#</tspan><tspan font-size="24" x="680.315" y="0">a</tspan><tspan font-size="24" x="755.906" y="0">#</tspan><tspan font-size="24" x="830.829" y="0">d</tspan><tspan font-size="24" x="907.087" y="0">#</tspan><tspan font-size="20" x="1" y="53">0</tspan><tspan font-size="20" x="76.5906" y="53">1</tspan><tspan font-size="20" x="152.181" y="53">2</tspan><tspan font-size="20" x="227.772" y="53">3</tspan><tspan font-size="20" x="303.362" y="53">4</tspan><tspan font-size="20" x="378.953" y="53">5</tspan><tspan font-size="20" x="454.543" y="53">6</tspan><tspan font-size="20" x="530.134" y="53">7</tspan><tspan font-size="20" x="605.724" y="53">8</tspan><tspan font-size="20" x="681.315" y="53">9</tspan><tspan font-size="20" x="751.906" y="53">10</tspan><tspan font-size="20" x="828.049" y="53">11</tspan><tspan font-size="20" x="903.087" y="53">12</tspan></text><path d="M615.5 268.5 628 268.5 628 223.5 653 223.5 653 268.5 665.5 268.5 640.5 293.5Z" stroke="#000000" stroke-width="1.33333" stroke-miterlimit="8" fill="#DEEBF7" fill-rule="evenodd"/></g></svg>