<svg width="522" height="351" xmlns="http://www.w3.org/2000/svg" xmlns:xlink="http://www.w3.org/1999/xlink" overflow="hidden"><defs><clipPath id="clip0"><rect x="145" y="152" width="522" height="351"/></clipPath></defs><g clip-path="url(#clip0)" transform="translate(-145 -152)"><path d="M211.226 153.513 286.816 153.513 286.816 229.104 211.226 229.104Z" fill="#FBE5D6" fill-rule="evenodd"/><path d="M286.816 153.513 362.407 153.513 362.407 229.104 286.816 229.104Z" fill="#FBE5D6" fill-rule="evenodd"/><path d="M362.407 153.513 437.997 153.513 437.997 229.104 362.407 229.104Z" fill="#FFF2CC" fill-rule="evenodd"/><path d="M437.997 153.513 513.588 153.513 513.588 229.104 437.997 229.104Z" fill="#FFF2CC" fill-rule="evenodd"/><path d="M513.588 153.513 589.179 153.513 589.179 229.104 513.588 229.104Z" fill="#FBE5D6" fill-rule="evenodd"/><path d="M589.179 153.513 664.769 153.513 664.769 229.104 589.179 229.104Z" fill="#FBE5D6" fill-rule="evenodd"/><path d="M211.226 152.847 211.226 229.771" stroke="#000000" stroke-width="1.33333" stroke-linejoin="round" stroke-miterlimit="10" fill="none" fill-rule="evenodd"/><path d="M286.816 152.847 286.816 229.771" stroke="#000000" stroke-width="1.33333" stroke-linejoin="round" stroke-miterlimit="10" fill="none" fill-rule="evenodd"/><path d="M362.407 152.847 362.407 229.771" stroke="#000000" stroke-width="1.33333" stroke-linejoin="round" stroke-miterlimit="10" fill="none" fill-rule="evenodd"/><path d="M437.997 152.847 437.997 229.771" stroke="#000000" stroke-width="1.33333" stroke-linejoin="round" stroke-miterlimit="10" fill="none" fill-rule="evenodd"/><path d="M513.588 152.847 513.588 229.771" stroke="#000000" stroke-width="1.33333" stroke-linejoin="round" stroke-miterlimit="10" fill="none" fill-rule="evenodd"/><path d="M589.179 152.847 589.179 229.771" stroke="#000000" stroke-width="1.33333" stroke-linejoin="round" stroke-miterlimit="10" fill="none" fill-rule="evenodd"/><path d="M210.559 229.104 665.436 229.104" stroke="#000000" stroke-width="1.33333" stroke-linejoin="round" stroke-miterlimit="10" fill="none" fill-rule="evenodd"/><path d="M664.769 152.847 664.769 229.771" stroke="#000000" stroke-width="1.33333" stroke-linejoin="round" stroke-miterlimit="10" fill="none" fill-rule="evenodd"/><path d="M210.559 153.513 665.436 153.513" stroke="#000000" stroke-width="1.33333" stroke-linejoin="round" stroke-miterlimit="10" fill="none" fill-rule="evenodd"/><text font-family="Times New Roman,Times New Roman_MSFontService,sans-serif" font-weight="700" font-size="24" transform="translate(174.163 200)">s<tspan font-size="24" x="68.1912" y="0">b</tspan><tspan font-size="24" x="144.448" y="0">a</tspan><tspan font-size="24" x="219.372" y="0">b</tspan><tspan font-size="24" x="294.963" y="0">b</tspan><tspan font-size="24" x="371.22" y="0">a</tspan><tspan font-size="24" x="446.144" y="0">d</tspan><tspan font-size="20" x="69.8578" y="53">0</tspan><tspan font-size="20" x="145.448" y="53">1</tspan><tspan font-size="20" x="221.039" y="53">2</tspan><tspan font-size="20" x="296.629" y="53">3</tspan><tspan font-size="20" x="372.22" y="53">4</tspan><tspan font-size="20" x="447.811" y="53">5</tspan></text><path d="M454.5 273C454.5 268.858 457.858 265.5 462 265.5L511 265.5C515.142 265.5 518.5 268.858 518.5 273L518.5 303C518.5 307.142 515.142 310.5 511 310.5L462 310.5C457.858 310.5 454.5 307.142 454.5 303Z" stroke="#000000" stroke-width="1.33333" stroke-miterlimit="8" fill="#E2F0D9" fill-rule="evenodd"/><text font-family="Times New Roman,Times New Roman_MSFontService,sans-serif" font-weight="700" font-size="19" transform="translate(475.434 294)">j<tspan font-size="19" x="6.16666" y="0">-</tspan><tspan font-size="19" x="12.3333" y="0">1</tspan></text><path d="M3.99999-0.36058 0.000104987 7.63947-4-0.36047Z" transform="matrix(1 0 0 -1 486 264.639)"/><path d="M373.5 273C373.5 268.858 376.858 265.5 381 265.5L430 265.5C434.142 265.5 437.5 268.858 437.5 273L437.5 303C437.5 307.142 434.142 310.5 430 310.5L381 310.5C376.858 310.5 373.5 307.142 373.5 303Z" stroke="#000000" stroke-width="1.33333" stroke-miterlimit="8" fill="#E2F0D9" fill-rule="evenodd"/><text font-family="Times New Roman,Times New Roman_MSFontService,sans-serif" font-weight="700" font-size="19" transform="translate(392.648 294)">i+1</text><path d="M3.99999-0.36058 0.000104987 7.63947-4-0.36047Z" transform="matrix(1 0 0 -1 405 264.639)"/><path d="M210.855 345.5 286.446 345.5 286.446 421.09 210.855 421.09Z" fill="#FBE5D6" fill-rule="evenodd"/><path d="M286.446 345.5 362.037 345.5 362.037 421.09 286.446 421.09Z" fill="#FFF2CC" fill-rule="evenodd"/><path d="M362.037 345.5 437.627 345.5 437.627 421.09 362.037 421.09Z" fill="#FFF2CC" fill-rule="evenodd"/><path d="M437.627 345.5 513.218 345.5 513.218 421.09 437.627 421.09Z" fill="#FFF2CC" fill-rule="evenodd"/><path d="M513.218 345.5 588.808 345.5 588.808 421.09 513.218 421.09Z" fill="#FFF2CC" fill-rule="evenodd"/><path d="M588.808 345.5 664.399 345.5 664.399 421.09 588.808 421.09Z" fill="#FBE5D6" fill-rule="evenodd"/><path d="M210.855 344.833 210.855 421.757" stroke="#000000" stroke-width="1.33333" stroke-linejoin="round" stroke-miterlimit="10" fill="none" fill-rule="evenodd"/><path d="M286.446 344.833 286.446 421.757" stroke="#000000" stroke-width="1.33333" stroke-linejoin="round" stroke-miterlimit="10" fill="none" fill-rule="evenodd"/><path d="M362.037 344.833 362.037 421.757" stroke="#000000" stroke-width="1.33333" stroke-linejoin="round" stroke-miterlimit="10" fill="none" fill-rule="evenodd"/><path d="M437.627 344.833 437.627 421.757" stroke="#000000" stroke-width="1.33333" stroke-linejoin="round" stroke-miterlimit="10" fill="none" fill-rule="evenodd"/><path d="M513.218 344.833 513.218 421.757" stroke="#000000" stroke-width="1.33333" stroke-linejoin="round" stroke-miterlimit="10" fill="none" fill-rule="evenodd"/><path d="M588.808 344.833 588.808 421.757" stroke="#000000" stroke-width="1.33333" stroke-linejoin="round" stroke-miterlimit="10" fill="none" fill-rule="evenodd"/><path d="M210.189 421.09 665.065 421.09" stroke="#000000" stroke-width="1.33333" stroke-linejoin="round" stroke-miterlimit="10" fill="none" fill-rule="evenodd"/><path d="M664.399 344.833 664.399 421.757" stroke="#000000" stroke-width="1.33333" stroke-linejoin="round" stroke-miterlimit="10" fill="none" fill-rule="evenodd"/><path d="M210.189 345.5 665.065 345.5" stroke="#000000" stroke-width="1.33333" stroke-linejoin="round" stroke-miterlimit="10" fill="none" fill-rule="evenodd"/><text font-family="Times New Roman,Times New Roman_MSFontService,sans-serif" font-weight="700" font-size="24" transform="translate(173.793 392)">s<tspan font-size="24" x="68.1912" y="0">b</tspan><tspan font-size="24" x="144.448" y="0">a</tspan><tspan font-size="24" x="219.372" y="0">b</tspan><tspan font-size="24" x="294.963" y="0">b</tspan><tspan font-size="24" x="371.22" y="0">a</tspan><tspan font-size="24" x="446.144" y="0">d</tspan><tspan font-size="20" x="69.8578" y="53">0</tspan><tspan font-size="20" x="145.448" y="53">1</tspan><tspan font-size="20" x="221.039" y="53">2</tspan><tspan font-size="20" x="296.629" y="53">3</tspan><tspan font-size="20" x="372.22" y="53">4</tspan><tspan font-size="20" x="447.811" y="53">5</tspan></text><path d="M518.5 465C518.5 460.858 521.858 457.5 526 457.5L575 457.5C579.142 457.5 582.5 460.858 582.5 465L582.5 495C582.5 499.142 579.142 502.5 575 502.5L526 502.5C521.858 502.5 518.5 499.142 518.5 495Z" stroke="#000000" stroke-width="1.33333" stroke-miterlimit="8" fill="#E2F0D9" fill-rule="evenodd"/><text font-family="Times New Roman,Times New Roman_MSFontService,sans-serif" font-weight="700" font-size="19" transform="translate(546.737 486)">j</text><path d="M3.99999-0.36058 0.000104987 7.63947-4-0.36047Z" transform="matrix(1 0 0 -1 550 456.639)"/><path d="M294.5 465C294.5 460.858 297.858 457.5 302 457.5L350 457.5C354.142 457.5 357.5 460.858 357.5 465L357.5 495C357.5 499.142 354.142 502.5 350 502.5L302 502.5C297.858 502.5 294.5 499.142 294.5 495Z" stroke="#000000" stroke-width="1.33333" stroke-miterlimit="8" fill="#E2F0D9" fill-rule="evenodd"/><text font-family="Times New Roman,Times New Roman_MSFontService,sans-serif" font-weight="700" font-size="19" transform="translate(323 486)">i</text><path d="M3.99999-0.36058 0.000104987 7.63947-4-0.36047Z" transform="matrix(1 0 0 -1 326 456.639)"/></g></svg>