<svg width="521" height="387" xmlns="http://www.w3.org/2000/svg" xmlns:xlink="http://www.w3.org/1999/xlink" overflow="hidden"><defs><clipPath id="clip0"><rect x="711" y="152" width="521" height="387"/></clipPath></defs><g clip-path="url(#clip0)" transform="translate(-711 -152)"><path d="M776.789 153.513 852.38 153.513 852.38 229.104 776.789 229.104Z" fill="#FBE5D6" fill-rule="evenodd"/><path d="M852.38 153.513 927.971 153.513 927.971 229.104 852.38 229.104Z" fill="#FFF2CC" fill-rule="evenodd"/><path d="M927.971 153.513 1003.56 153.513 1003.56 229.104 927.971 229.104Z" fill="#FBE5D6" fill-rule="evenodd"/><path d="M1003.56 153.513 1079.15 153.513 1079.15 229.104 1003.56 229.104Z" fill="#FBE5D6" fill-rule="evenodd"/><path d="M1079.15 153.513 1154.74 153.513 1154.74 229.104 1079.15 229.104Z" fill="#FBE5D6" fill-rule="evenodd"/><path d="M1154.74 153.513 1230.33 153.513 1230.33 229.104 1154.74 229.104Z" fill="#FBE5D6" fill-rule="evenodd"/><path d="M776.789 152.847 776.789 229.771" stroke="#000000" stroke-width="1.33333" stroke-linejoin="round" stroke-miterlimit="10" fill="none" fill-rule="evenodd"/><path d="M852.38 152.847 852.38 229.771" stroke="#000000" stroke-width="1.33333" stroke-linejoin="round" stroke-miterlimit="10" fill="none" fill-rule="evenodd"/><path d="M927.971 152.847 927.971 229.771" stroke="#000000" stroke-width="1.33333" stroke-linejoin="round" stroke-miterlimit="10" fill="none" fill-rule="evenodd"/><path d="M1003.56 152.847 1003.56 229.771" stroke="#000000" stroke-width="1.33333" stroke-linejoin="round" stroke-miterlimit="10" fill="none" fill-rule="evenodd"/><path d="M1079.15 152.847 1079.15 229.771" stroke="#000000" stroke-width="1.33333" stroke-linejoin="round" stroke-miterlimit="10" fill="none" fill-rule="evenodd"/><path d="M1154.74 152.847 1154.74 229.771" stroke="#000000" stroke-width="1.33333" stroke-linejoin="round" stroke-miterlimit="10" fill="none" fill-rule="evenodd"/><path d="M776.123 229.104 1231 229.104" stroke="#000000" stroke-width="1.33333" stroke-linejoin="round" stroke-miterlimit="10" fill="none" fill-rule="evenodd"/><path d="M1230.33 152.847 1230.33 229.771" stroke="#000000" stroke-width="1.33333" stroke-linejoin="round" stroke-miterlimit="10" fill="none" fill-rule="evenodd"/><path d="M776.123 153.513 1231 153.513" stroke="#000000" stroke-width="1.33333" stroke-linejoin="round" stroke-miterlimit="10" fill="none" fill-rule="evenodd"/><text font-family="Times New Roman,Times New Roman_MSFontService,sans-serif" font-weight="700" font-size="24" transform="translate(739.727 200)">s<tspan font-size="24" x="68.1912" y="0">b</tspan><tspan font-size="24" x="144.448" y="0">a</tspan><tspan font-size="24" x="219.372" y="0">b</tspan><tspan font-size="24" x="294.963" y="0">b</tspan><tspan font-size="24" x="371.22" y="0">a</tspan><tspan font-size="24" x="446.144" y="0">d</tspan><tspan font-size="20" x="69.8578" y="53">0</tspan><tspan font-size="20" x="145.448" y="53">1</tspan><tspan font-size="20" x="221.039" y="53">2</tspan><tspan font-size="20" x="296.629" y="53">3</tspan><tspan font-size="20" x="372.22" y="53">4</tspan><tspan font-size="20" x="447.811" y="53">5</tspan></text><path d="M859.5 328C859.5 323.858 862.858 320.5 867 320.5L916 320.5C920.142 320.5 923.5 323.858 923.5 328L923.5 358C923.5 362.142 920.142 365.5 916 365.5L867 365.5C862.858 365.5 859.5 362.142 859.5 358Z" stroke="#000000" stroke-width="1.33333" stroke-miterlimit="8" fill="#E2F0D9" fill-rule="evenodd"/><text font-family="Times New Roman,Times New Roman_MSFontService,sans-serif" font-weight="700" font-size="19" transform="translate(880.314 349)">j<tspan font-size="19" x="6.16663" y="0">-</tspan><tspan font-size="19" x="12.3333" y="0">1</tspan></text><path d="M3.99999-0.36058 0.000104987 7.63947-4-0.36047Z" transform="matrix(1 0 0 -1 891 319.639)"/><path d="M859.5 270C859.5 265.858 862.858 262.5 867 262.5L916 262.5C920.142 262.5 923.5 265.858 923.5 270L923.5 300C923.5 304.142 920.142 307.5 916 307.5L867 307.5C862.858 307.5 859.5 304.142 859.5 300Z" stroke="#000000" stroke-width="1.33333" stroke-miterlimit="8" fill="#E2F0D9" fill-rule="evenodd"/><text font-family="Times New Roman,Times New Roman_MSFontService,sans-serif" font-weight="700" font-size="19" transform="translate(878.564 292)">i+1</text><path d="M3.99999-0.36058 0.000104987 7.63947-4-0.36047Z" transform="matrix(1 0 0 -1 891 262.639)"/><path d="M776.789 381.155 852.38 381.155 852.38 456.746 776.789 456.746Z" fill="#FFF2CC" fill-rule="evenodd"/><path d="M852.38 381.155 927.971 381.155 927.971 456.746 852.38 456.746Z" fill="#FFF2CC" fill-rule="evenodd"/><path d="M927.971 381.155 1003.56 381.155 1003.56 456.746 927.971 456.746Z" fill="#FFF2CC" fill-rule="evenodd"/><path d="M1003.56 381.155 1079.15 381.155 1079.15 456.746 1003.56 456.746Z" fill="#FBE5D6" fill-rule="evenodd"/><path d="M1079.15 381.155 1154.74 381.155 1154.74 456.746 1079.15 456.746Z" fill="#FBE5D6" fill-rule="evenodd"/><path d="M1154.74 381.155 1230.33 381.155 1230.33 456.746 1154.74 456.746Z" fill="#FBE5D6" fill-rule="evenodd"/><path d="M776.789 380.488 776.789 457.412" stroke="#000000" stroke-width="1.33333" stroke-linejoin="round" stroke-miterlimit="10" fill="none" fill-rule="evenodd"/><path d="M852.38 380.488 852.38 457.412" stroke="#000000" stroke-width="1.33333" stroke-linejoin="round" stroke-miterlimit="10" fill="none" fill-rule="evenodd"/><path d="M927.971 380.488 927.971 457.412" stroke="#000000" stroke-width="1.33333" stroke-linejoin="round" stroke-miterlimit="10" fill="none" fill-rule="evenodd"/><path d="M1003.56 380.488 1003.56 457.412" stroke="#000000" stroke-width="1.33333" stroke-linejoin="round" stroke-miterlimit="10" fill="none" fill-rule="evenodd"/><path d="M1079.15 380.488 1079.15 457.412" stroke="#000000" stroke-width="1.33333" stroke-linejoin="round" stroke-miterlimit="10" fill="none" fill-rule="evenodd"/><path d="M1154.74 380.488 1154.74 457.412" stroke="#000000" stroke-width="1.33333" stroke-linejoin="round" stroke-miterlimit="10" fill="none" fill-rule="evenodd"/><path d="M776.123 456.746 1231 456.746" stroke="#000000" stroke-width="1.33333" stroke-linejoin="round" stroke-miterlimit="10" fill="none" fill-rule="evenodd"/><path d="M1230.33 380.488 1230.33 457.412" stroke="#000000" stroke-width="1.33333" stroke-linejoin="round" stroke-miterlimit="10" fill="none" fill-rule="evenodd"/><path d="M776.123 381.155 1231 381.155" stroke="#000000" stroke-width="1.33333" stroke-linejoin="round" stroke-miterlimit="10" fill="none" fill-rule="evenodd"/><text font-family="Times New Roman,Times New Roman_MSFontService,sans-serif" font-weight="700" font-size="24" transform="translate(739.727 428)">s<tspan font-size="24" x="68.1912" y="0">b</tspan><tspan font-size="24" x="144.448" y="0">a</tspan><tspan font-size="24" x="219.372" y="0">b</tspan><tspan font-size="24" x="294.963" y="0">b</tspan><tspan font-size="24" x="371.22" y="0">a</tspan><tspan font-size="24" x="446.144" y="0">d</tspan><tspan font-size="20" x="69.8578" y="53">0</tspan><tspan font-size="20" x="145.448" y="53">1</tspan><tspan font-size="20" x="221.039" y="53">2</tspan><tspan font-size="20" x="296.629" y="53">3</tspan><tspan font-size="20" x="372.22" y="53">4</tspan><tspan font-size="20" x="447.811" y="53">5</tspan></text><path d="M933.5 500C933.5 495.858 936.858 492.5 941 492.5L990 492.5C994.142 492.5 997.5 495.858 997.5 500L997.5 530C997.5 534.142 994.142 537.5 990 537.5L941 537.5C936.858 537.5 933.5 534.142 933.5 530Z" stroke="#000000" stroke-width="1.33333" stroke-miterlimit="8" fill="#E2F0D9" fill-rule="evenodd"/><text font-family="Times New Roman,Times New Roman_MSFontService,sans-serif" font-weight="700" font-size="19" transform="translate(962.188 522)">j</text><path d="M3.99999-0.36058 0.000104987 7.63947-4-0.36047Z" transform="matrix(1 0 0 -1 965 492.639)"/><path d="M784.5 500C784.5 495.858 787.858 492.5 792 492.5L840 492.5C844.142 492.5 847.5 495.858 847.5 500L847.5 530C847.5 534.142 844.142 537.5 840 537.5L792 537.5C787.858 537.5 784.5 534.142 784.5 530Z" stroke="#000000" stroke-width="1.33333" stroke-miterlimit="8" fill="#E2F0D9" fill-rule="evenodd"/><text font-family="Times New Roman,Times New Roman_MSFontService,sans-serif" font-weight="700" font-size="19" transform="translate(812.753 522)">i</text><path d="M3.99999-0.36058 0.000104987 7.63947-4-0.36047Z" transform="matrix(1 0 0 -1 815 492.639)"/></g></svg>