<svg width="1019" height="456" xmlns="http://www.w3.org/2000/svg" xmlns:xlink="http://www.w3.org/1999/xlink" overflow="hidden"><defs><clipPath id="clip0"><rect x="146" y="74" width="1019" height="456"/></clipPath><clipPath id="clip1"><rect x="709" y="29" width="76" height="169"/></clipPath><clipPath id="clip2"><rect x="709" y="104" width="76" height="169"/></clipPath><clipPath id="clip3"><rect x="709" y="180" width="76" height="169"/></clipPath><clipPath id="clip4"><rect x="709" y="255" width="76" height="169"/></clipPath><clipPath id="clip5"><rect x="709" y="331" width="76" height="169"/></clipPath></defs><g clip-path="url(#clip0)" transform="translate(-146 -74)"><path d="M784.709 75.3634 860.3 75.3634 860.3 150.954 784.709 150.954Z" fill="#D9D9D9" fill-rule="evenodd"/><path d="M860.3 75.3634 935.89 75.3634 935.89 150.954 860.3 150.954Z" fill="#D9D9D9" fill-rule="evenodd"/><path d="M935.89 75.3634 1011.48 75.3634 1011.48 150.954 935.89 150.954Z" fill="#D9D9D9" fill-rule="evenodd"/><path d="M1011.48 75.3634 1087.07 75.3634 1087.07 150.954 1011.48 150.954Z" fill="#D9D9D9" fill-rule="evenodd"/><path d="M1087.07 75.3634 1162.66 75.3634 1162.66 150.954 1087.07 150.954Z" fill="#D9D9D9" fill-rule="evenodd"/><path d="M784.709 150.954 860.3 150.954 860.3 226.544 784.709 226.544Z" fill="#D9D9D9" fill-rule="evenodd"/><path d="M860.3 150.954 935.89 150.954 935.89 226.544 860.3 226.544Z" fill="#D9D9D9" fill-rule="evenodd"/><path d="M935.89 150.954 1011.48 150.954 1011.48 226.544 935.89 226.544Z" fill="#D9D9D9" fill-rule="evenodd"/><path d="M1011.48 150.954 1087.07 150.954 1087.07 226.544 1011.48 226.544Z" fill="#D9D9D9" fill-rule="evenodd"/><path d="M1087.07 150.954 1162.66 150.954 1162.66 226.544 1087.07 226.544Z" fill="#D9D9D9" fill-rule="evenodd"/><path d="M784.709 226.544 860.3 226.544 860.3 302.135 784.709 302.135Z" fill="#D9D9D9" fill-rule="evenodd"/><path d="M860.3 226.544 935.89 226.544 935.89 302.135 860.3 302.135Z" fill="#D9D9D9" fill-rule="evenodd"/><path d="M935.89 226.544 1011.48 226.544 1011.48 302.135 935.89 302.135Z" fill="#D9D9D9" fill-rule="evenodd"/><path d="M1011.48 226.544 1087.07 226.544 1087.07 302.135 1011.48 302.135Z" fill="#D9D9D9" fill-rule="evenodd"/><path d="M1087.07 226.544 1162.66 226.544 1162.66 302.135 1087.07 302.135Z" fill="#D9D9D9" fill-rule="evenodd"/><path d="M784.709 302.135 860.3 302.135 860.3 377.726 784.709 377.726Z" fill="#D9D9D9" fill-rule="evenodd"/><path d="M860.3 302.135 935.89 302.135 935.89 377.726 860.3 377.726Z" fill="#D9D9D9" fill-rule="evenodd"/><path d="M935.89 302.135 1011.48 302.135 1011.48 377.726 935.89 377.726Z" fill="#D9D9D9" fill-rule="evenodd"/><path d="M1011.48 302.135 1087.07 302.135 1087.07 377.726 1011.48 377.726Z" fill="#D9D9D9" fill-rule="evenodd"/><path d="M1087.07 302.135 1162.66 302.135 1162.66 377.726 1087.07 377.726Z" fill="#D9D9D9" fill-rule="evenodd"/><path d="M784.709 377.726 860.3 377.726 860.3 453.316 784.709 453.316Z" fill="#D9D9D9" fill-rule="evenodd"/><path d="M860.3 377.726 935.89 377.726 935.89 453.316 860.3 453.316Z" fill="#D9D9D9" fill-rule="evenodd"/><path d="M935.89 377.726 1011.48 377.726 1011.48 453.316 935.89 453.316Z" fill="#D9D9D9" fill-rule="evenodd"/><path d="M1011.48 377.726 1087.07 377.726 1087.07 453.316 1011.48 453.316Z" fill="#D9D9D9" fill-rule="evenodd"/><path d="M1087.07 377.726 1162.66 377.726 1162.66 453.316 1087.07 453.316Z" fill="#D9D9D9" fill-rule="evenodd"/><path d="M784.709 74.6967 784.709 453.983" stroke="#000000" stroke-width="1.33333" stroke-linejoin="round" stroke-miterlimit="10" fill="none" fill-rule="evenodd"/><path d="M860.3 74.6967 860.3 453.983" stroke="#000000" stroke-width="1.33333" stroke-linejoin="round" stroke-miterlimit="10" fill="none" fill-rule="evenodd"/><path d="M935.89 74.6967 935.89 453.983" stroke="#000000" stroke-width="1.33333" stroke-linejoin="round" stroke-miterlimit="10" fill="none" fill-rule="evenodd"/><path d="M1011.48 74.6967 1011.48 453.983" stroke="#000000" stroke-width="1.33333" stroke-linejoin="round" stroke-miterlimit="10" fill="none" fill-rule="evenodd"/><path d="M1087.07 74.6967 1087.07 453.983" stroke="#000000" stroke-width="1.33333" stroke-linejoin="round" stroke-miterlimit="10" fill="none" fill-rule="evenodd"/><path d="M784.042 150.954 1163.33 150.954" stroke="#000000" stroke-width="1.33333" stroke-linejoin="round" stroke-miterlimit="10" fill="none" fill-rule="evenodd"/><path d="M784.042 226.544 1163.33 226.544" stroke="#000000" stroke-width="1.33333" stroke-linejoin="round" stroke-miterlimit="10" fill="none" fill-rule="evenodd"/><path d="M784.042 302.135 1163.33 302.135" stroke="#000000" stroke-width="1.33333" stroke-linejoin="round" stroke-miterlimit="10" fill="none" fill-rule="evenodd"/><path d="M784.042 377.726 1163.33 377.726" stroke="#000000" stroke-width="1.33333" stroke-linejoin="round" stroke-miterlimit="10" fill="none" fill-rule="evenodd"/><path d="M784.042 453.316 1163.33 453.316" stroke="#000000" stroke-width="1.33333" stroke-linejoin="round" stroke-miterlimit="10" fill="none" fill-rule="evenodd"/><path d="M1162.66 74.6967 1162.66 453.983" stroke="#000000" stroke-width="1.33333" stroke-linejoin="round" stroke-miterlimit="10" fill="none" fill-rule="evenodd"/><path d="M784.042 75.3634 1163.33 75.3634" stroke="#000000" stroke-width="1.33333" stroke-linejoin="round" stroke-miterlimit="10" fill="none" fill-rule="evenodd"/><g clip-path="url(#clip1)"><text font-family="Times New Roman,Times New Roman_MSFontService,sans-serif" font-weight="700" font-size="20" transform="translate(765.052 120)">0</text></g><text font-family="Times New Roman,Times New Roman_MSFontService,sans-serif" font-weight="700" font-size="24" transform="translate(815.171 122)">F<tspan font-size="24" x="75.5906" y="0">F</tspan><tspan font-size="24" x="151.181" y="0">F</tspan><tspan font-size="24" x="226.772" y="0">F</tspan><tspan font-size="24" x="302.362" y="0">F</tspan></text><g clip-path="url(#clip2)"><text font-family="Times New Roman,Times New Roman_MSFontService,sans-serif" font-weight="700" font-size="20" transform="translate(765.052 196)">1</text></g><text font-family="Times New Roman,Times New Roman_MSFontService,sans-serif" font-weight="700" font-size="24" transform="translate(815.171 197)">F<tspan font-size="24" x="75.5906" y="0">F</tspan><tspan font-size="24" x="151.181" y="0">F</tspan><tspan font-size="24" x="226.772" y="0">F</tspan><tspan font-size="24" x="302.362" y="0">F</tspan></text><g clip-path="url(#clip3)"><text font-family="Times New Roman,Times New Roman_MSFontService,sans-serif" font-weight="700" font-size="20" transform="translate(765.052 271)">2</text></g><text font-family="Times New Roman,Times New Roman_MSFontService,sans-serif" font-weight="700" font-size="24" transform="translate(815.171 273)">F<tspan font-size="24" x="75.5906" y="0">F</tspan><tspan font-size="24" x="151.181" y="0">F</tspan><tspan font-size="24" x="226.772" y="0">F</tspan><tspan font-size="24" x="302.362" y="0">F</tspan></text><g clip-path="url(#clip4)"><text font-family="Times New Roman,Times New Roman_MSFontService,sans-serif" font-weight="700" font-size="20" transform="translate(765.052 347)">3</text></g><text font-family="Times New Roman,Times New Roman_MSFontService,sans-serif" font-weight="700" font-size="24" transform="translate(815.171 349)">F<tspan font-size="24" x="75.5906" y="0">F</tspan><tspan font-size="24" x="151.181" y="0">F</tspan><tspan font-size="24" x="226.772" y="0">F</tspan><tspan font-size="24" x="302.362" y="0">F</tspan></text><g clip-path="url(#clip5)"><text font-family="Times New Roman,Times New Roman_MSFontService,sans-serif" font-weight="700" font-size="20" transform="translate(765.052 423)">4</text></g><text font-family="Times New Roman,Times New Roman_MSFontService,sans-serif" font-weight="700" font-size="24" transform="translate(815.171 424)">F<tspan font-size="24" x="75.5906" y="0">F</tspan><tspan font-size="24" x="151.181" y="0">F</tspan><tspan font-size="24" x="226.772" y="0">F</tspan><tspan font-size="24" x="302.362" y="0">F</tspan><tspan font-size="20" x="2.33337" y="53">0</tspan><tspan font-size="20" x="77.9239" y="53">1</tspan><tspan font-size="20" x="153.514" y="53">2</tspan><tspan font-size="20" x="229.105" y="53">3</tspan><tspan font-size="20" x="304.695" y="53">4</tspan></text><path d="M222.024 226.544 297.615 226.544 297.615 302.135 222.024 302.135Z" fill="#FBE5D6" fill-rule="evenodd"/><path d="M297.615 226.544 373.206 226.544 373.206 302.135 297.615 302.135Z" fill="#FBE5D6" fill-rule="evenodd"/><path d="M373.206 226.544 448.796 226.544 448.796 302.135 373.206 302.135Z" fill="#FBE5D6" fill-rule="evenodd"/><path d="M448.796 226.544 524.387 226.544 524.387 302.135 448.796 302.135Z" fill="#FBE5D6" fill-rule="evenodd"/><path d="M524.387 226.544 599.977 226.544 599.977 302.135 524.387 302.135Z" fill="#FBE5D6" fill-rule="evenodd"/><path d="M222.024 225.878 222.024 302.802" stroke="#000000" stroke-width="1.33333" stroke-linejoin="round" stroke-miterlimit="10" fill="none" fill-rule="evenodd"/><path d="M297.615 225.878 297.615 302.802" stroke="#000000" stroke-width="1.33333" stroke-linejoin="round" stroke-miterlimit="10" fill="none" fill-rule="evenodd"/><path d="M373.206 225.878 373.206 302.802" stroke="#000000" stroke-width="1.33333" stroke-linejoin="round" stroke-miterlimit="10" fill="none" fill-rule="evenodd"/><path d="M448.796 225.878 448.796 302.802" stroke="#000000" stroke-width="1.33333" stroke-linejoin="round" stroke-miterlimit="10" fill="none" fill-rule="evenodd"/><path d="M524.387 225.878 524.387 302.802" stroke="#000000" stroke-width="1.33333" stroke-linejoin="round" stroke-miterlimit="10" fill="none" fill-rule="evenodd"/><path d="M221.358 302.135 600.644 302.135" stroke="#000000" stroke-width="1.33333" stroke-linejoin="round" stroke-miterlimit="10" fill="none" fill-rule="evenodd"/><path d="M599.977 225.878 599.977 302.802" stroke="#000000" stroke-width="1.33333" stroke-linejoin="round" stroke-miterlimit="10" fill="none" fill-rule="evenodd"/><path d="M221.358 226.544 600.644 226.544" stroke="#000000" stroke-width="1.33333" stroke-linejoin="round" stroke-miterlimit="10" fill="none" fill-rule="evenodd"/><text font-family="Times New Roman,Times New Roman_MSFontService,sans-serif" font-weight="700" font-size="24" transform="translate(179.562 273)">s<tspan font-size="24" x="73.5905" y="0">b</tspan><tspan font-size="24" x="149.848" y="0">a</tspan><tspan font-size="24" x="224.772" y="0">b</tspan><tspan font-size="24" x="301.029" y="0">a</tspan><tspan font-size="24" x="375.953" y="0">d</tspan><tspan font-size="20" x="75.2572" y="53">0</tspan><tspan font-size="20" x="150.848" y="53">1</tspan><tspan font-size="20" x="226.438" y="53">2</tspan><tspan font-size="20" x="302.029" y="53">3</tspan><tspan font-size="20" x="377.619" y="53">4</tspan><tspan font-size="24" x="537.31" y="0">dp</tspan></text></g></svg>