<svg width="1017" height="306" xmlns="http://www.w3.org/2000/svg" xmlns:xlink="http://www.w3.org/1999/xlink" overflow="hidden"><defs><clipPath id="clip0"><rect x="122" y="97" width="1017" height="306"/></clipPath><clipPath id="clip1"><rect x="122" y="96" width="33" height="202"/></clipPath><clipPath id="clip2"><rect x="122" y="188" width="33" height="169"/></clipPath></defs><g clip-path="url(#clip0)" transform="translate(-122 -97)"><path d="M154.551 159.056 230.142 159.056 230.142 234.646 154.551 234.646Z" fill="#FBE5D6" fill-rule="evenodd"/><path d="M230.142 159.056 305.732 159.056 305.732 234.646 230.142 234.646Z" fill="#FBE5D6" fill-rule="evenodd"/><path d="M305.732 159.056 381.323 159.056 381.323 234.646 305.732 234.646Z" fill="#FFF2CC" fill-rule="evenodd"/><path d="M381.323 159.056 456.914 159.056 456.914 234.646 381.323 234.646Z" fill="#FFF2CC" fill-rule="evenodd"/><path d="M456.914 159.056 532.504 159.056 532.504 234.646 456.914 234.646Z" fill="#FFF2CC" fill-rule="evenodd"/><path d="M532.504 159.056 608.095 159.056 608.095 234.646 532.504 234.646Z" fill="#FFF2CC" fill-rule="evenodd"/><path d="M608.095 159.056 683.685 159.056 683.685 234.646 608.095 234.646Z" fill="#FFF2CC" fill-rule="evenodd"/><path d="M683.685 159.056 759.276 159.056 759.276 234.646 683.685 234.646Z" fill="#DEEBF7" fill-rule="evenodd"/><path d="M759.276 159.056 834.866 159.056 834.866 234.646 759.276 234.646Z" fill="#FFF2CC" fill-rule="evenodd"/><path d="M834.866 159.056 910.457 159.056 910.457 234.646 834.866 234.646Z" fill="#FFF2CC" fill-rule="evenodd"/><path d="M910.457 159.056 986.047 159.056 986.047 234.646 910.457 234.646Z" fill="#FFF2CC" fill-rule="evenodd"/><path d="M986.047 159.056 1061.64 159.056 1061.64 234.646 986.047 234.646Z" fill="#FFF2CC" fill-rule="evenodd"/><path d="M1061.64 159.056 1137.23 159.056 1137.23 234.646 1061.64 234.646Z" fill="#FFF2CC" fill-rule="evenodd"/><path d="M154.551 234.646 230.142 234.646 230.142 310.237 154.551 310.237Z" fill="#F2F2F2" fill-rule="evenodd"/><path d="M230.142 234.646 305.732 234.646 305.732 310.237 230.142 310.237Z" fill="#F2F2F2" fill-rule="evenodd"/><path d="M305.732 234.646 381.323 234.646 381.323 310.237 305.732 310.237Z" fill="#F2F2F2" fill-rule="evenodd"/><path d="M381.323 234.646 456.914 234.646 456.914 310.237 381.323 310.237Z" fill="#F2F2F2" fill-rule="evenodd"/><path d="M456.914 234.646 532.504 234.646 532.504 310.237 456.914 310.237Z" fill="#F2F2F2" fill-rule="evenodd"/><path d="M532.504 234.646 608.095 234.646 608.095 310.237 532.504 310.237Z" fill="#F2F2F2" fill-rule="evenodd"/><path d="M608.095 234.646 683.685 234.646 683.685 310.237 608.095 310.237Z" fill="#F2F2F2" fill-rule="evenodd"/><path d="M683.685 234.646 759.276 234.646 759.276 310.237 683.685 310.237Z" fill="#F2F2F2" fill-rule="evenodd"/><path d="M759.276 234.646 834.866 234.646 834.866 310.237 759.276 310.237Z" fill="#F2F2F2" fill-rule="evenodd"/><path d="M834.866 234.646 910.457 234.646 910.457 310.237 834.866 310.237Z" fill="#F2F2F2" fill-rule="evenodd"/><path d="M910.457 234.646 986.047 234.646 986.047 310.237 910.457 310.237Z" fill="#F2F2F2" fill-rule="evenodd"/><path d="M986.047 234.646 1061.64 234.646 1061.64 310.237 986.047 310.237Z" fill="#F2F2F2" fill-rule="evenodd"/><path d="M1061.64 234.646 1137.23 234.646 1137.23 310.237 1061.64 310.237Z" fill="#F2F2F2" fill-rule="evenodd"/><path d="M154.551 158.389 154.551 310.904" stroke="#000000" stroke-width="1.33333" stroke-linejoin="round" stroke-miterlimit="10" fill="none" fill-rule="evenodd"/><path d="M230.142 158.389 230.142 310.904" stroke="#000000" stroke-width="1.33333" stroke-linejoin="round" stroke-miterlimit="10" fill="none" fill-rule="evenodd"/><path d="M305.732 158.389 305.732 310.904" stroke="#000000" stroke-width="1.33333" stroke-linejoin="round" stroke-miterlimit="10" fill="none" fill-rule="evenodd"/><path d="M381.323 158.389 381.323 310.904" stroke="#000000" stroke-width="1.33333" stroke-linejoin="round" stroke-miterlimit="10" fill="none" fill-rule="evenodd"/><path d="M456.914 158.389 456.914 310.904" stroke="#000000" stroke-width="1.33333" stroke-linejoin="round" stroke-miterlimit="10" fill="none" fill-rule="evenodd"/><path d="M532.504 158.389 532.504 310.904" stroke="#000000" stroke-width="1.33333" stroke-linejoin="round" stroke-miterlimit="10" fill="none" fill-rule="evenodd"/><path d="M608.095 158.389 608.095 310.904" stroke="#000000" stroke-width="1.33333" stroke-linejoin="round" stroke-miterlimit="10" fill="none" fill-rule="evenodd"/><path d="M683.685 158.389 683.685 310.904" stroke="#000000" stroke-width="1.33333" stroke-linejoin="round" stroke-miterlimit="10" fill="none" fill-rule="evenodd"/><path d="M759.276 158.389 759.276 310.904" stroke="#000000" stroke-width="1.33333" stroke-linejoin="round" stroke-miterlimit="10" fill="none" fill-rule="evenodd"/><path d="M834.866 158.389 834.866 310.904" stroke="#000000" stroke-width="1.33333" stroke-linejoin="round" stroke-miterlimit="10" fill="none" fill-rule="evenodd"/><path d="M910.457 158.389 910.457 310.904" stroke="#000000" stroke-width="1.33333" stroke-linejoin="round" stroke-miterlimit="10" fill="none" fill-rule="evenodd"/><path d="M986.047 158.389 986.047 310.904" stroke="#000000" stroke-width="1.33333" stroke-linejoin="round" stroke-miterlimit="10" fill="none" fill-rule="evenodd"/><path d="M1061.64 158.389 1061.64 310.904" stroke="#000000" stroke-width="1.33333" stroke-linejoin="round" stroke-miterlimit="10" fill="none" fill-rule="evenodd"/><path d="M153.885 234.646 1137.9 234.646" stroke="#000000" stroke-width="1.33333" stroke-linejoin="round" stroke-miterlimit="10" fill="none" fill-rule="evenodd"/><path d="M153.885 310.237 1137.9 310.237" stroke="#000000" stroke-width="1.33333" stroke-linejoin="round" stroke-miterlimit="10" fill="none" fill-rule="evenodd"/><path d="M1137.23 158.389 1137.23 310.904" stroke="#000000" stroke-width="1.33333" stroke-linejoin="round" stroke-miterlimit="10" fill="none" fill-rule="evenodd"/><path d="M153.885 159.056 1137.9 159.056" stroke="#000000" stroke-width="1.33333" stroke-linejoin="round" stroke-miterlimit="10" fill="none" fill-rule="evenodd"/><g clip-path="url(#clip1)"><text font-family="Times New Roman,Times New Roman_MSFontService,sans-serif" font-weight="700" font-size="24" transform="translate(133.854 205)">s</text></g><text font-family="Times New Roman,Times New Roman_MSFontService,sans-serif" font-weight="700" font-size="24" transform="translate(186.347 205)">#<tspan font-size="24" x="75.5905" y="0">a</tspan><tspan font-size="24" x="151.181" y="0">#</tspan><tspan font-size="24" x="227.438" y="0">c</tspan><tspan font-size="24" x="302.362" y="0">#</tspan><tspan font-size="24" x="377.953" y="0">a</tspan><tspan font-size="24" x="453.543" y="0">#</tspan><tspan font-size="24" x="529.801" y="0">c</tspan><tspan font-size="24" x="604.724" y="0">#</tspan><tspan font-size="24" x="680.315" y="0">a</tspan><tspan font-size="24" x="755.906" y="0">#</tspan><tspan font-size="24" x="832.163" y="0">c</tspan><tspan font-size="24" x="907.087" y="0">#</tspan></text><g clip-path="url(#clip2)"><text font-family="Times New Roman,Times New Roman_MSFontService,sans-serif" font-weight="700" font-size="20" transform="translate(132.937 279)">p</text></g><text font-family="Times New Roman,Times New Roman_MSFontService,sans-serif" font-weight="700" font-size="20" transform="translate(187.347 279)">0<tspan font-size="20" x="75.5905" y="0">1</tspan><tspan font-size="20" x="151.181" y="0">0</tspan><tspan font-size="20" x="226.772" y="0">3</tspan><tspan font-size="20" x="302.362" y="0">0</tspan><tspan font-size="20" x="377.953" y="0">5</tspan><tspan font-size="20" x="453.543" y="0">0</tspan><tspan font-size="20" x="529.134" y="0">5</tspan><tspan font-size="20" x="0" y="55">0</tspan><tspan font-size="20" x="75.5905" y="55">1</tspan><tspan font-size="20" x="151.181" y="55">2</tspan><tspan font-size="20" x="226.772" y="55">3</tspan><tspan font-size="20" x="302.362" y="55">4</tspan><tspan font-size="20" x="377.953" y="55">5</tspan><tspan font-size="20" x="453.543" y="55">6</tspan><tspan font-size="20" x="529.134" y="55">7</tspan><tspan font-size="20" x="604.724" y="55">8</tspan><tspan font-size="20" x="680.315" y="55">9</tspan><tspan font-size="20" x="750.906" y="55">10</tspan><tspan font-size="20" x="827.049" y="55">11</tspan><tspan font-size="20" x="902.087" y="55">12</tspan></text><path d="M689.5 364.834C689.5 360.783 692.783 357.5 696.833 357.5L745.167 357.5C749.217 357.5 752.5 360.783 752.5 364.834L752.5 394.167C752.5 398.217 749.217 401.5 745.167 401.5L696.833 401.5C692.783 401.5 689.5 398.217 689.5 394.167Z" stroke="#000000" stroke-width="1.33333" stroke-miterlimit="8" fill="#E2F0D9" fill-rule="evenodd"/><text font-family="Times New Roman,Times New Roman_MSFontService,sans-serif" font-weight="700" font-size="19" transform="translate(716.553 386)">c</text><path d="M3.99999-0.36058 0.000104987 7.63947-4-0.36047Z" transform="matrix(1 0 0 -1 721 356.639)"/><path d="M1067.5 364.834C1067.5 360.783 1070.78 357.5 1074.83 357.5L1124.17 357.5C1128.22 357.5 1131.5 360.783 1131.5 364.834L1131.5 394.167C1131.5 398.217 1128.22 401.5 1124.17 401.5L1074.83 401.5C1070.78 401.5 1067.5 398.217 1067.5 394.167Z" stroke="#000000" stroke-width="1.33333" stroke-miterlimit="8" fill="#E2F0D9" fill-rule="evenodd"/><text font-family="Times New Roman,Times New Roman_MSFontService,sans-serif" font-weight="700" font-size="19" transform="translate(1094.57 386)">r</text><path d="M3.99999-0.36058 0.000104987 7.63947-4-0.36047Z" transform="matrix(1 0 0 -1 1099 356.639)"/><path d="M311.5 364.834C311.5 360.783 314.783 357.5 318.834 357.5L367.167 357.5C371.217 357.5 374.5 360.783 374.5 364.834L374.5 394.167C374.5 398.217 371.217 401.5 367.167 401.5L318.834 401.5C314.783 401.5 311.5 398.217 311.5 394.167Z" stroke="#000000" stroke-width="1.33333" stroke-miterlimit="8" fill="#E2F0D9" fill-rule="evenodd"/><text font-family="Times New Roman,Times New Roman_MSFontService,sans-serif" font-weight="700" font-size="19" transform="translate(340.088 386)">l</text><path d="M3.99999-0.36058 0.000104987 7.63947-4-0.36047Z" transform="matrix(1 0 0 -1 343 356.639)"/><path d="M844.5 107C844.5 102.858 847.858 99.5001 852 99.5001L900 99.5001C904.142 99.5001 907.5 102.858 907.5 107L907.5 137C907.5 141.142 904.142 144.5 900 144.5L852 144.5C847.858 144.5 844.5 141.142 844.5 137Z" stroke="#000000" stroke-width="1.33333" stroke-miterlimit="8" fill="#E2F0D9" fill-rule="evenodd"/><text font-family="Times New Roman,Times New Roman_MSFontService,sans-serif" font-weight="700" font-size="19" transform="translate(872.803 128)">i</text><path d="M876 144 876 145.52 874 145.52 874 144ZM879 144.187 875 152.187 871 144.187Z"/><path d="M540.5 108C540.5 103.858 543.858 100.5 548 100.5L597 100.5C601.142 100.5 604.5 103.858 604.5 108L604.5 138C604.5 142.142 601.142 145.5 597 145.5L548 145.5C543.858 145.5 540.5 142.142 540.5 138Z" stroke="#000000" stroke-width="1.33333" stroke-miterlimit="8" fill="#E2F0D9" fill-rule="evenodd"/><text font-family="Times New Roman,Times New Roman_MSFontService,sans-serif" font-weight="700" font-size="19" transform="translate(566.386 129)">i<tspan font-size="19" x="5.16663" y="0">’</tspan></text><path d="M573 145 573 146.52 571 146.52 571 145ZM576 145.187 572 153.187 568 145.187Z"/></g></svg>