<svg width="1017" height="303" xmlns="http://www.w3.org/2000/svg" xmlns:xlink="http://www.w3.org/1999/xlink" overflow="hidden"><defs><clipPath id="clip0"><rect x="122" y="100" width="1017" height="303"/></clipPath><clipPath id="clip1"><rect x="122" y="96" width="33" height="202"/></clipPath><clipPath id="clip2"><rect x="122" y="188" width="33" height="169"/></clipPath></defs><g clip-path="url(#clip0)" transform="translate(-122 -100)"><path d="M154.551 159.056 230.142 159.056 230.142 234.646 154.551 234.646Z" fill="#FBE5D6" fill-rule="evenodd"/><path d="M230.142 159.056 305.732 159.056 305.732 234.646 230.142 234.646Z" fill="#FBE5D6" fill-rule="evenodd"/><path d="M305.732 159.056 381.323 159.056 381.323 234.646 305.732 234.646Z" fill="#FFF2CC" fill-rule="evenodd"/><path d="M381.323 159.056 456.914 159.056 456.914 234.646 381.323 234.646Z" fill="#FFF2CC" fill-rule="evenodd"/><path d="M456.914 159.056 532.504 159.056 532.504 234.646 456.914 234.646Z" fill="#FFF2CC" fill-rule="evenodd"/><path d="M532.504 159.056 608.095 159.056 608.095 234.646 532.504 234.646Z" fill="#FFF2CC" fill-rule="evenodd"/><path d="M608.095 159.056 683.685 159.056 683.685 234.646 608.095 234.646Z" fill="#DEEBF7" fill-rule="evenodd"/><path d="M683.685 159.056 759.276 159.056 759.276 234.646 683.685 234.646Z" fill="#FFF2CC" fill-rule="evenodd"/><path d="M759.276 159.056 834.866 159.056 834.866 234.646 759.276 234.646Z" fill="#FFF2CC" fill-rule="evenodd"/><path d="M834.866 159.056 910.457 159.056 910.457 234.646 834.866 234.646Z" fill="#FFF2CC" fill-rule="evenodd"/><path d="M910.457 159.056 986.047 159.056 986.047 234.646 910.457 234.646Z" fill="#FFF2CC" fill-rule="evenodd"/><path d="M986.047 159.056 1061.64 159.056 1061.64 234.646 986.047 234.646Z" fill="#FBE5D6" fill-rule="evenodd"/><path d="M1061.64 159.056 1137.23 159.056 1137.23 234.646 1061.64 234.646Z" fill="#FBE5D6" fill-rule="evenodd"/><path d="M154.551 234.646 230.142 234.646 230.142 310.237 154.551 310.237Z" fill="#F2F2F2" fill-rule="evenodd"/><path d="M230.142 234.646 305.732 234.646 305.732 310.237 230.142 310.237Z" fill="#F2F2F2" fill-rule="evenodd"/><path d="M305.732 234.646 381.323 234.646 381.323 310.237 305.732 310.237Z" fill="#F2F2F2" fill-rule="evenodd"/><path d="M381.323 234.646 456.914 234.646 456.914 310.237 381.323 310.237Z" fill="#F2F2F2" fill-rule="evenodd"/><path d="M456.914 234.646 532.504 234.646 532.504 310.237 456.914 310.237Z" fill="#F2F2F2" fill-rule="evenodd"/><path d="M532.504 234.646 608.095 234.646 608.095 310.237 532.504 310.237Z" fill="#F2F2F2" fill-rule="evenodd"/><path d="M608.095 234.646 683.685 234.646 683.685 310.237 608.095 310.237Z" fill="#F2F2F2" fill-rule="evenodd"/><path d="M683.685 234.646 759.276 234.646 759.276 310.237 683.685 310.237Z" fill="#F2F2F2" fill-rule="evenodd"/><path d="M759.276 234.646 834.866 234.646 834.866 310.237 759.276 310.237Z" fill="#F2F2F2" fill-rule="evenodd"/><path d="M834.866 234.646 910.457 234.646 910.457 310.237 834.866 310.237Z" fill="#F2F2F2" fill-rule="evenodd"/><path d="M910.457 234.646 986.047 234.646 986.047 310.237 910.457 310.237Z" fill="#F2F2F2" fill-rule="evenodd"/><path d="M986.047 234.646 1061.64 234.646 1061.64 310.237 986.047 310.237Z" fill="#F2F2F2" fill-rule="evenodd"/><path d="M1061.64 234.646 1137.23 234.646 1137.23 310.237 1061.64 310.237Z" fill="#F2F2F2" fill-rule="evenodd"/><path d="M154.551 158.389 154.551 310.904" stroke="#000000" stroke-width="1.33333" stroke-linejoin="round" stroke-miterlimit="10" fill="none" fill-rule="evenodd"/><path d="M230.142 158.389 230.142 310.904" stroke="#000000" stroke-width="1.33333" stroke-linejoin="round" stroke-miterlimit="10" fill="none" fill-rule="evenodd"/><path d="M305.732 158.389 305.732 310.904" stroke="#000000" stroke-width="1.33333" stroke-linejoin="round" stroke-miterlimit="10" fill="none" fill-rule="evenodd"/><path d="M381.323 158.389 381.323 310.904" stroke="#000000" stroke-width="1.33333" stroke-linejoin="round" stroke-miterlimit="10" fill="none" fill-rule="evenodd"/><path d="M456.914 158.389 456.914 310.904" stroke="#000000" stroke-width="1.33333" stroke-linejoin="round" stroke-miterlimit="10" fill="none" fill-rule="evenodd"/><path d="M532.504 158.389 532.504 310.904" stroke="#000000" stroke-width="1.33333" stroke-linejoin="round" stroke-miterlimit="10" fill="none" fill-rule="evenodd"/><path d="M608.095 158.389 608.095 310.904" stroke="#000000" stroke-width="1.33333" stroke-linejoin="round" stroke-miterlimit="10" fill="none" fill-rule="evenodd"/><path d="M683.685 158.389 683.685 310.904" stroke="#000000" stroke-width="1.33333" stroke-linejoin="round" stroke-miterlimit="10" fill="none" fill-rule="evenodd"/><path d="M759.276 158.389 759.276 310.904" stroke="#000000" stroke-width="1.33333" stroke-linejoin="round" stroke-miterlimit="10" fill="none" fill-rule="evenodd"/><path d="M834.866 158.389 834.866 310.904" stroke="#000000" stroke-width="1.33333" stroke-linejoin="round" stroke-miterlimit="10" fill="none" fill-rule="evenodd"/><path d="M910.457 158.389 910.457 310.904" stroke="#000000" stroke-width="1.33333" stroke-linejoin="round" stroke-miterlimit="10" fill="none" fill-rule="evenodd"/><path d="M986.047 158.389 986.047 310.904" stroke="#000000" stroke-width="1.33333" stroke-linejoin="round" stroke-miterlimit="10" fill="none" fill-rule="evenodd"/><path d="M1061.64 158.389 1061.64 310.904" stroke="#000000" stroke-width="1.33333" stroke-linejoin="round" stroke-miterlimit="10" fill="none" fill-rule="evenodd"/><path d="M153.885 234.646 1137.9 234.646" stroke="#000000" stroke-width="1.33333" stroke-linejoin="round" stroke-miterlimit="10" fill="none" fill-rule="evenodd"/><path d="M153.885 310.237 1137.9 310.237" stroke="#000000" stroke-width="1.33333" stroke-linejoin="round" stroke-miterlimit="10" fill="none" fill-rule="evenodd"/><path d="M1137.23 158.389 1137.23 310.904" stroke="#000000" stroke-width="1.33333" stroke-linejoin="round" stroke-miterlimit="10" fill="none" fill-rule="evenodd"/><path d="M153.885 159.056 1137.9 159.056" stroke="#000000" stroke-width="1.33333" stroke-linejoin="round" stroke-miterlimit="10" fill="none" fill-rule="evenodd"/><g clip-path="url(#clip1)"><text font-family="Times New Roman,Times New Roman_MSFontService,sans-serif" font-weight="700" font-size="24" transform="translate(133.854 205)">s</text></g><text font-family="Times New Roman,Times New Roman_MSFontService,sans-serif" font-weight="700" font-size="24" transform="translate(186.347 205)">#<tspan font-size="24" x="74.9239" y="0">b</tspan><tspan font-size="24" x="151.181" y="0">#</tspan><tspan font-size="24" x="226.772" y="0">a</tspan><tspan font-size="24" x="302.362" y="0">#</tspan><tspan font-size="24" x="377.286" y="0">b</tspan><tspan font-size="24" x="453.543" y="0">#</tspan><tspan font-size="24" x="528.467" y="0">b</tspan><tspan font-size="24" x="604.724" y="0">#</tspan><tspan font-size="24" x="680.315" y="0">a</tspan><tspan font-size="24" x="755.906" y="0">#</tspan><tspan font-size="24" x="830.829" y="0">d</tspan><tspan font-size="24" x="907.087" y="0">#</tspan></text><g clip-path="url(#clip2)"><text font-family="Times New Roman,Times New Roman_MSFontService,sans-serif" font-weight="700" font-size="20" transform="translate(132.937 279)">p</text></g><text font-family="Times New Roman,Times New Roman_MSFontService,sans-serif" font-weight="700" font-size="20" transform="translate(187.347 279)">0<tspan font-size="20" x="75.5905" y="0">1</tspan><tspan font-size="20" x="151.181" y="0">0</tspan><tspan font-size="20" x="226.772" y="0">3</tspan><tspan font-size="20" x="302.362" y="0">0</tspan><tspan font-size="20" x="377.953" y="0">1</tspan><tspan font-size="20" x="453.543" y="0">4</tspan><tspan font-size="20" x="0" y="55">0</tspan><tspan font-size="20" x="75.5905" y="55">1</tspan><tspan font-size="20" x="151.181" y="55">2</tspan><tspan font-size="20" x="226.772" y="55">3</tspan><tspan font-size="20" x="302.362" y="55">4</tspan><tspan font-size="20" x="377.953" y="55">5</tspan><tspan font-size="20" x="453.543" y="55">6</tspan><tspan font-size="20" x="529.134" y="55">7</tspan><tspan font-size="20" x="604.724" y="55">8</tspan><tspan font-size="20" x="680.315" y="55">9</tspan><tspan font-size="20" x="750.906" y="55">10</tspan><tspan font-size="20" x="827.049" y="55">11</tspan><tspan font-size="20" x="902.087" y="55">12</tspan></text><path d="M616.5 364.834C616.5 360.783 619.783 357.5 623.833 357.5L672.167 357.5C676.217 357.5 679.5 360.783 679.5 364.834L679.5 394.167C679.5 398.217 676.217 401.5 672.167 401.5L623.833 401.5C619.783 401.5 616.5 398.217 616.5 394.167Z" stroke="#000000" stroke-width="1.33333" stroke-miterlimit="8" fill="#E2F0D9" fill-rule="evenodd"/><text font-family="Times New Roman,Times New Roman_MSFontService,sans-serif" font-weight="700" font-size="19" transform="translate(643.219 386)">c</text><path d="M3.99999-0.36058 0.000104987 7.63947-4-0.36047Z" transform="matrix(1 0 0 -1 647 356.639)"/><path d="M916.5 364.834C916.5 360.783 919.783 357.5 923.833 357.5L972.167 357.5C976.217 357.5 979.5 360.783 979.5 364.834L979.5 394.167C979.5 398.217 976.217 401.5 972.167 401.5L923.833 401.5C919.783 401.5 916.5 398.217 916.5 394.167Z" stroke="#000000" stroke-width="1.33333" stroke-miterlimit="8" fill="#E2F0D9" fill-rule="evenodd"/><text font-family="Times New Roman,Times New Roman_MSFontService,sans-serif" font-weight="700" font-size="19" transform="translate(943.237 386)">r</text><path d="M3.99999-0.36058 0.000104987 7.63947-4-0.36047Z" transform="matrix(1 0 0 -1 947 356.639)"/><path d="M310.5 364.834C310.5 360.783 313.783 357.5 317.834 357.5L367.167 357.5C371.217 357.5 374.5 360.783 374.5 364.834L374.5 394.167C374.5 398.217 371.217 401.5 367.167 401.5L317.834 401.5C313.783 401.5 310.5 398.217 310.5 394.167Z" stroke="#000000" stroke-width="1.33333" stroke-miterlimit="8" fill="#E2F0D9" fill-rule="evenodd"/><text font-family="Times New Roman,Times New Roman_MSFontService,sans-serif" font-weight="700" font-size="19" transform="translate(339.422 386)">l</text><path d="M3.99999-0.36058 0.000104987 7.63947-4-0.36047Z" transform="matrix(1 0 0 -1 342 356.639)"/><path d="M688.5 109.834C688.5 105.783 691.783 102.5 695.834 102.5L745.167 102.5C749.217 102.5 752.5 105.783 752.5 109.834L752.5 139.167C752.5 143.217 749.217 146.5 745.167 146.5L695.834 146.5C691.783 146.5 688.5 143.217 688.5 139.167Z" stroke="#000000" stroke-width="1.33333" stroke-miterlimit="8" fill="#E2F0D9" fill-rule="evenodd"/><text font-family="Times New Roman,Times New Roman_MSFontService,sans-serif" font-weight="700" font-size="19" transform="translate(717.469 131)">i</text><path d="M721 146 721 147.52 719 147.52 719 146ZM724 146.187 720 154.187 716 146.187Z"/><path d="M538.5 110C538.5 105.858 541.858 102.5 546 102.5L595 102.5C599.142 102.5 602.5 105.858 602.5 110L602.5 140C602.5 144.142 599.142 147.5 595 147.5L546 147.5C541.858 147.5 538.5 144.142 538.5 140Z" stroke="#000000" stroke-width="1.33333" stroke-miterlimit="8" fill="#E2F0D9" fill-rule="evenodd"/><text font-family="Times New Roman,Times New Roman_MSFontService,sans-serif" font-weight="700" font-size="19" transform="translate(564.386 131)">i<tspan font-size="19" x="5.16663" y="0">’</tspan></text><path d="M571 147 571 148.52 569 148.52 569 147ZM574 147.187 570 155.187 566 147.187Z"/></g></svg>