<svg width="1018" height="527" xmlns="http://www.w3.org/2000/svg" xmlns:xlink="http://www.w3.org/1999/xlink" overflow="hidden"><defs><clipPath id="clip0"><rect x="132" y="94" width="1018" height="527"/></clipPath><clipPath id="clip1"><rect x="132" y="195" width="77" height="169"/></clipPath><clipPath id="clip2"><rect x="132" y="271" width="77" height="169"/></clipPath><clipPath id="clip3"><rect x="132" y="346" width="77" height="169"/></clipPath><clipPath id="clip4"><rect x="132" y="422" width="77" height="169"/></clipPath><clipPath id="clip5"><rect x="132" y="32" width="31" height="203"/></clipPath></defs><g clip-path="url(#clip0)" transform="translate(-132 -94)"><text font-family="Times New Roman,Times New Roman_MSFontService,sans-serif" font-weight="700" font-size="24" transform="translate(886.327 390)">numRow<tspan font-size="24" x="93.3333" y="0">s</tspan><tspan font-size="24" x="108.667" y="0">= 4</tspan></text><path d="M208.221 241.89 283.811 241.89 283.811 317.48 208.221 317.48Z" fill="#FFF2CC" fill-rule="evenodd"/><path d="M283.811 241.89 359.402 241.89 359.402 317.48 283.811 317.48Z" fill="#FFFFFF" fill-rule="evenodd"/><path d="M359.402 241.89 434.992 241.89 434.992 317.48 359.402 317.48Z" fill="#FFFFFF" fill-rule="evenodd"/><path d="M434.992 241.89 510.583 241.89 510.583 317.48 434.992 317.48Z" fill="#FFF2CC" fill-rule="evenodd"/><path d="M510.583 241.89 586.174 241.89 586.174 317.48 510.583 317.48Z" fill="#FFFFFF" fill-rule="evenodd"/><path d="M586.174 241.89 661.764 241.89 661.764 317.48 586.174 317.48Z" fill="#FFFFFF" fill-rule="evenodd"/><path d="M661.764 241.89 737.355 241.89 737.355 317.48 661.764 317.48Z" fill="#FFF2CC" fill-rule="evenodd"/><path d="M208.221 317.48 283.811 317.48 283.811 393.071 208.221 393.071Z" fill="#FFFFFF" fill-rule="evenodd"/><path d="M283.811 317.48 359.402 317.48 359.402 393.071 283.811 393.071Z" fill="#FFFFFF" fill-rule="evenodd"/><path d="M359.402 317.48 434.992 317.48 434.992 393.071 359.402 393.071Z" fill="#FFFFFF" fill-rule="evenodd"/><path d="M434.992 317.48 510.583 317.48 510.583 393.071 434.992 393.071Z" fill="#FFFFFF" fill-rule="evenodd"/><path d="M510.583 317.48 586.174 317.48 586.174 393.071 510.583 393.071Z" fill="#FFFFFF" fill-rule="evenodd"/><path d="M586.174 317.48 661.764 317.48 661.764 393.071 586.174 393.071Z" fill="#FFFFFF" fill-rule="evenodd"/><path d="M661.764 317.48 737.355 317.48 737.355 393.071 661.764 393.071Z" fill="#FFFFFF" fill-rule="evenodd"/><path d="M208.221 393.071 283.811 393.071 283.811 468.661 208.221 468.661Z" fill="#FFFFFF" fill-rule="evenodd"/><path d="M283.811 393.071 359.402 393.071 359.402 468.661 283.811 468.661Z" fill="#FFFFFF" fill-rule="evenodd"/><path d="M359.402 393.071 434.992 393.071 434.992 468.661 359.402 468.661Z" fill="#FFFFFF" fill-rule="evenodd"/><path d="M434.992 393.071 510.583 393.071 510.583 468.661 434.992 468.661Z" fill="#FFFFFF" fill-rule="evenodd"/><path d="M510.583 393.071 586.174 393.071 586.174 468.661 510.583 468.661Z" fill="#FFFFFF" fill-rule="evenodd"/><path d="M586.174 393.071 661.764 393.071 661.764 468.661 586.174 468.661Z" fill="#FFFFFF" fill-rule="evenodd"/><path d="M661.764 393.071 737.355 393.071 737.355 468.661 661.764 468.661Z" fill="#FFFFFF" fill-rule="evenodd"/><path d="M208.221 468.661 283.811 468.661 283.811 544.252 208.221 544.252Z" fill="#FFFFFF" fill-rule="evenodd"/><path d="M283.811 468.661 359.402 468.661 359.402 544.252 283.811 544.252Z" fill="#FFFFFF" fill-rule="evenodd"/><path d="M359.402 468.661 434.992 468.661 434.992 544.252 359.402 544.252Z" fill="#FFFFFF" fill-rule="evenodd"/><path d="M434.992 468.661 510.583 468.661 510.583 544.252 434.992 544.252Z" fill="#FFFFFF" fill-rule="evenodd"/><path d="M510.583 468.661 586.174 468.661 586.174 544.252 510.583 544.252Z" fill="#FFFFFF" fill-rule="evenodd"/><path d="M586.174 468.661 661.764 468.661 661.764 544.252 586.174 544.252Z" fill="#FFFFFF" fill-rule="evenodd"/><path d="M661.764 468.661 737.355 468.661 737.355 544.252 661.764 544.252Z" fill="#FFFFFF" fill-rule="evenodd"/><path d="M208.221 241.223 208.221 544.919" stroke="#000000" stroke-width="1.33333" stroke-linejoin="round" stroke-miterlimit="10" fill="none" fill-rule="evenodd"/><path d="M283.811 241.223 283.811 544.919" stroke="#000000" stroke-width="1.33333" stroke-linejoin="round" stroke-miterlimit="10" fill="none" fill-rule="evenodd"/><path d="M359.402 241.223 359.402 544.919" stroke="#000000" stroke-width="1.33333" stroke-linejoin="round" stroke-miterlimit="10" fill="none" fill-rule="evenodd"/><path d="M434.992 241.223 434.992 544.919" stroke="#000000" stroke-width="1.33333" stroke-linejoin="round" stroke-miterlimit="10" fill="none" fill-rule="evenodd"/><path d="M510.583 241.223 510.583 544.919" stroke="#000000" stroke-width="1.33333" stroke-linejoin="round" stroke-miterlimit="10" fill="none" fill-rule="evenodd"/><path d="M586.174 241.223 586.174 544.919" stroke="#000000" stroke-width="1.33333" stroke-linejoin="round" stroke-miterlimit="10" fill="none" fill-rule="evenodd"/><path d="M661.764 241.223 661.764 544.919" stroke="#000000" stroke-width="1.33333" stroke-linejoin="round" stroke-miterlimit="10" fill="none" fill-rule="evenodd"/><path d="M207.554 317.48 738.021 317.48" stroke="#000000" stroke-width="1.33333" stroke-linejoin="round" stroke-miterlimit="10" fill="none" fill-rule="evenodd"/><path d="M207.554 393.071 738.021 393.071" stroke="#000000" stroke-width="1.33333" stroke-linejoin="round" stroke-miterlimit="10" fill="none" fill-rule="evenodd"/><path d="M207.554 468.661 738.021 468.661" stroke="#000000" stroke-width="1.33333" stroke-linejoin="round" stroke-miterlimit="10" fill="none" fill-rule="evenodd"/><path d="M207.554 544.252 738.021 544.252" stroke="#000000" stroke-width="1.33333" stroke-linejoin="round" stroke-miterlimit="10" fill="none" fill-rule="evenodd"/><path d="M737.355 241.223 737.355 544.919" stroke="#000000" stroke-width="1.33333" stroke-linejoin="round" stroke-miterlimit="10" fill="none" fill-rule="evenodd"/><path d="M207.554 241.89 738.021 241.89" stroke="#000000" stroke-width="1.33333" stroke-linejoin="round" stroke-miterlimit="10" fill="none" fill-rule="evenodd"/><g clip-path="url(#clip1)"><text font-family="Times New Roman,Times New Roman_MSFontService,sans-serif" font-weight="700" font-size="20" transform="translate(188.564 287)">0</text></g><text font-family="Times New Roman,Times New Roman_MSFontService,sans-serif" font-weight="700" font-size="24" transform="translate(238.683 288)">P<tspan font-size="24" x="229.438" y="0">I</tspan><tspan font-size="24" x="452.21" y="0">N</tspan></text><g clip-path="url(#clip2)"><text font-family="Times New Roman,Times New Roman_MSFontService,sans-serif" font-weight="700" font-size="20" transform="translate(188.564 362)">1</text></g><text font-family="Times New Roman,Times New Roman_MSFontService,sans-serif" font-weight="700" font-size="24" transform="translate(237.349 364)">A<tspan font-size="24" x="151.848" y="0">L</tspan><tspan font-size="24" x="228.772" y="0">S</tspan><tspan font-size="24" x="381.953" y="0">I</tspan><tspan font-size="24" x="452.877" y="0">G</tspan></text><g clip-path="url(#clip3)"><text font-family="Times New Roman,Times New Roman_MSFontService,sans-serif" font-weight="700" font-size="20" transform="translate(188.564 438)">2</text></g><text font-family="Times New Roman,Times New Roman_MSFontService,sans-serif" font-weight="700" font-size="24" transform="translate(237.349 439)">Y<tspan font-size="24" x="75.5905" y="0">A</tspan><tspan font-size="24" x="226.105" y="0">H</tspan><tspan font-size="24" x="302.362" y="0">R</tspan></text><g clip-path="url(#clip4)"><text font-family="Times New Roman,Times New Roman_MSFontService,sans-serif" font-weight="700" font-size="20" transform="translate(188.564 513)">3</text></g><text font-family="Times New Roman,Times New Roman_MSFontService,sans-serif" font-weight="700" font-size="24" transform="translate(238.683 515)">P<tspan font-size="24" x="229.438" y="0">I</tspan><tspan font-size="20" x="2.33333" y="53">0</tspan><tspan font-size="20" x="77.9239" y="53">1</tspan><tspan font-size="20" x="153.514" y="53">2</tspan><tspan font-size="20" x="229.105" y="53">3</tspan><tspan font-size="20" x="304.696" y="53">4</tspan><tspan font-size="20" x="380.286" y="53">5</tspan><tspan font-size="20" x="455.877" y="53">6</tspan></text><path d="M162.469 95.4783 232.819 95.4783 232.819 171.069 162.469 171.069Z" fill="#FFF2CC" fill-rule="evenodd"/><path d="M232.819 95.4783 303.169 95.4783 303.169 171.069 232.819 171.069Z" fill="#FBE5D6" fill-rule="evenodd"/><path d="M303.169 95.4783 373.519 95.4783 373.519 171.069 303.169 171.069Z" fill="#FBE5D6" fill-rule="evenodd"/><path d="M373.519 95.4783 443.87 95.4783 443.87 171.069 373.519 171.069Z" fill="#FBE5D6" fill-rule="evenodd"/><path d="M443.87 95.4783 514.22 95.4783 514.22 171.069 443.87 171.069Z" fill="#FBE5D6" fill-rule="evenodd"/><path d="M514.22 95.4783 584.57 95.4783 584.57 171.069 514.22 171.069Z" fill="#FBE5D6" fill-rule="evenodd"/><path d="M584.57 95.4783 654.92 95.4783 654.92 171.069 584.57 171.069Z" fill="#FFF2CC" fill-rule="evenodd"/><path d="M654.92 95.4783 725.27 95.4783 725.27 171.069 654.92 171.069Z" fill="#FBE5D6" fill-rule="evenodd"/><path d="M725.27 95.4783 795.62 95.4783 795.62 171.069 725.27 171.069Z" fill="#FBE5D6" fill-rule="evenodd"/><path d="M795.62 95.4783 865.97 95.4783 865.97 171.069 795.62 171.069Z" fill="#FBE5D6" fill-rule="evenodd"/><path d="M865.97 95.4783 936.32 95.4783 936.32 171.069 865.97 171.069Z" fill="#FBE5D6" fill-rule="evenodd"/><path d="M936.32 95.4783 1006.67 95.4783 1006.67 171.069 936.32 171.069Z" fill="#FBE5D6" fill-rule="evenodd"/><path d="M1006.67 95.4783 1077.02 95.4783 1077.02 171.069 1006.67 171.069Z" fill="#FFF2CC" fill-rule="evenodd"/><path d="M1077.02 95.4783 1147.37 95.4783 1147.37 171.069 1077.02 171.069Z" fill="#FBE5D6" fill-rule="evenodd"/><path d="M162.469 94.8117 162.469 171.736" stroke="#000000" stroke-width="1.33333" stroke-linejoin="round" stroke-miterlimit="10" fill="none" fill-rule="evenodd"/><path d="M232.819 94.8117 232.819 171.736" stroke="#000000" stroke-width="1.33333" stroke-linejoin="round" stroke-miterlimit="10" fill="none" fill-rule="evenodd"/><path d="M303.169 94.8117 303.169 171.736" stroke="#000000" stroke-width="1.33333" stroke-linejoin="round" stroke-miterlimit="10" fill="none" fill-rule="evenodd"/><path d="M373.519 94.8117 373.519 171.736" stroke="#000000" stroke-width="1.33333" stroke-linejoin="round" stroke-miterlimit="10" fill="none" fill-rule="evenodd"/><path d="M443.87 94.8117 443.87 171.736" stroke="#000000" stroke-width="1.33333" stroke-linejoin="round" stroke-miterlimit="10" fill="none" fill-rule="evenodd"/><path d="M514.22 94.8117 514.22 171.736" stroke="#000000" stroke-width="1.33333" stroke-linejoin="round" stroke-miterlimit="10" fill="none" fill-rule="evenodd"/><path d="M584.57 94.8117 584.57 171.736" stroke="#000000" stroke-width="1.33333" stroke-linejoin="round" stroke-miterlimit="10" fill="none" fill-rule="evenodd"/><path d="M654.92 94.8117 654.92 171.736" stroke="#000000" stroke-width="1.33333" stroke-linejoin="round" stroke-miterlimit="10" fill="none" fill-rule="evenodd"/><path d="M725.27 94.8117 725.27 171.736" stroke="#000000" stroke-width="1.33333" stroke-linejoin="round" stroke-miterlimit="10" fill="none" fill-rule="evenodd"/><path d="M795.62 94.8117 795.62 171.736" stroke="#000000" stroke-width="1.33333" stroke-linejoin="round" stroke-miterlimit="10" fill="none" fill-rule="evenodd"/><path d="M865.97 94.8117 865.97 171.736" stroke="#000000" stroke-width="1.33333" stroke-linejoin="round" stroke-miterlimit="10" fill="none" fill-rule="evenodd"/><path d="M936.32 94.8117 936.32 171.736" stroke="#000000" stroke-width="1.33333" stroke-linejoin="round" stroke-miterlimit="10" fill="none" fill-rule="evenodd"/><path d="M1006.67 94.8117 1006.67 171.736" stroke="#000000" stroke-width="1.33333" stroke-linejoin="round" stroke-miterlimit="10" fill="none" fill-rule="evenodd"/><path d="M1077.02 94.8117 1077.02 171.736" stroke="#000000" stroke-width="1.33333" stroke-linejoin="round" stroke-miterlimit="10" fill="none" fill-rule="evenodd"/><path d="M161.803 171.069 1148.04 171.069" stroke="#000000" stroke-width="1.33333" stroke-linejoin="round" stroke-miterlimit="10" fill="none" fill-rule="evenodd"/><path d="M1147.37 94.8117 1147.37 171.736" stroke="#000000" stroke-width="1.33333" stroke-linejoin="round" stroke-miterlimit="10" fill="none" fill-rule="evenodd"/><path d="M161.803 95.4783 1148.04 95.4783" stroke="#000000" stroke-width="1.33333" stroke-linejoin="round" stroke-miterlimit="10" fill="none" fill-rule="evenodd"/><g clip-path="url(#clip5)"><text font-family="Times New Roman,Times New Roman_MSFontService,sans-serif" font-weight="700" font-size="24" transform="translate(142.883 142)">s</text></g><text font-family="Times New Roman,Times New Roman_MSFontService,sans-serif" font-weight="700" font-size="24" transform="translate(190.311 142)">P<tspan font-size="24" x="69.0167" y="0">A</tspan><tspan font-size="24" x="139.367" y="0">Y</tspan><tspan font-size="24" x="211.05" y="0">P</tspan><tspan font-size="24" x="280.067" y="0">A</tspan><tspan font-size="24" x="351.083" y="0">L</tspan><tspan font-size="24" x="424.767" y="0">I</tspan><tspan font-size="24" x="493.117" y="0">S</tspan><tspan font-size="24" x="560.8" y="0">H</tspan><tspan font-size="24" x="635.817" y="0">I</tspan><tspan font-size="24" x="702.167" y="0">R</tspan><tspan font-size="24" x="776.517" y="0">I</tspan><tspan font-size="24" x="842.867" y="0">N</tspan><tspan font-size="24" x="912.55" y="0">G</tspan><tspan font-size="20" x="2.33334" y="53">0</tspan><tspan font-size="20" x="72.6834" y="53">1</tspan><tspan font-size="20" x="143.033" y="53">2</tspan><tspan font-size="20" x="213.383" y="53">3</tspan><tspan font-size="20" x="283.733" y="53">4</tspan><tspan font-size="20" x="354.083" y="53">5</tspan><tspan font-size="20" x="424.433" y="53">6</tspan><tspan font-size="20" x="494.784" y="53">7</tspan><tspan font-size="20" x="565.134" y="53">8</tspan><tspan font-size="20" x="635.484" y="53">9</tspan><tspan font-size="20" x="700.834" y="53">10</tspan><tspan font-size="20" x="771.737" y="53">11</tspan><tspan font-size="20" x="841.534" y="53">12</tspan><tspan font-size="20" x="911.884" y="53">13</tspan></text></g></svg>