<svg width="852" height="529" xmlns="http://www.w3.org/2000/svg" xmlns:xlink="http://www.w3.org/1999/xlink" overflow="hidden"><defs><clipPath id="clip0"><rect x="21" y="127" width="852" height="529"/></clipPath><clipPath id="clip1"><rect x="21" y="191" width="76" height="169"/></clipPath><clipPath id="clip2"><rect x="21" y="267" width="76" height="169"/></clipPath><clipPath id="clip3"><rect x="21" y="343" width="76" height="169"/></clipPath><clipPath id="clip4"><rect x="21" y="418" width="76" height="169"/></clipPath></defs><g clip-path="url(#clip0)" transform="translate(-21 -127)"><text font-family="Times New Roman,Times New Roman_MSFontService,sans-serif" font-weight="700" font-size="24" transform="translate(225.381 158)">s = "PAYPALISHIRING"<tspan font-size="24" x="63.1201" y="40">numRow</tspan>s<tspan font-size="24" x="171.787" y="40">= 4</tspan></text><path d="M96.9239 238.03 172.514 238.03 172.514 313.621 96.9239 313.621Z" fill="#FFFFFF" fill-rule="evenodd"/><path d="M172.514 238.03 248.105 238.03 248.105 313.621 172.514 313.621Z" fill="#FFFFFF" fill-rule="evenodd"/><path d="M248.105 238.03 323.696 238.03 323.696 313.621 248.105 313.621Z" fill="#FFFFFF" fill-rule="evenodd"/><path d="M323.696 238.03 399.286 238.03 399.286 313.621 323.696 313.621Z" fill="#FFFFFF" fill-rule="evenodd"/><path d="M399.286 238.03 474.877 238.03 474.877 313.621 399.286 313.621Z" fill="#FFFFFF" fill-rule="evenodd"/><path d="M474.877 238.03 550.467 238.03 550.467 313.621 474.877 313.621Z" fill="#FFFFFF" fill-rule="evenodd"/><path d="M550.467 238.03 626.058 238.03 626.058 313.621 550.467 313.621Z" fill="#FFFFFF" fill-rule="evenodd"/><path d="M96.9239 313.621 172.514 313.621 172.514 389.211 96.9239 389.211Z" fill="#FFFFFF" fill-rule="evenodd"/><path d="M172.514 313.621 248.105 313.621 248.105 389.211 172.514 389.211Z" fill="#FFFFFF" fill-rule="evenodd"/><path d="M248.105 313.621 323.696 313.621 323.696 389.211 248.105 389.211Z" fill="#FFFFFF" fill-rule="evenodd"/><path d="M323.696 313.621 399.286 313.621 399.286 389.211 323.696 389.211Z" fill="#FFFFFF" fill-rule="evenodd"/><path d="M399.286 313.621 474.877 313.621 474.877 389.211 399.286 389.211Z" fill="#FFFFFF" fill-rule="evenodd"/><path d="M474.877 313.621 550.467 313.621 550.467 389.211 474.877 389.211Z" fill="#FFFFFF" fill-rule="evenodd"/><path d="M550.467 313.621 626.058 313.621 626.058 389.211 550.467 389.211Z" fill="#FFFFFF" fill-rule="evenodd"/><path d="M96.9239 389.211 172.514 389.211 172.514 464.802 96.9239 464.802Z" fill="#FFFFFF" fill-rule="evenodd"/><path d="M172.514 389.211 248.105 389.211 248.105 464.802 172.514 464.802Z" fill="#FFFFFF" fill-rule="evenodd"/><path d="M248.105 389.211 323.696 389.211 323.696 464.802 248.105 464.802Z" fill="#FFFFFF" fill-rule="evenodd"/><path d="M323.696 389.211 399.286 389.211 399.286 464.802 323.696 464.802Z" fill="#FFFFFF" fill-rule="evenodd"/><path d="M399.286 389.211 474.877 389.211 474.877 464.802 399.286 464.802Z" fill="#FFFFFF" fill-rule="evenodd"/><path d="M474.877 389.211 550.467 389.211 550.467 464.802 474.877 464.802Z" fill="#FFFFFF" fill-rule="evenodd"/><path d="M550.467 389.211 626.058 389.211 626.058 464.802 550.467 464.802Z" fill="#FFFFFF" fill-rule="evenodd"/><path d="M96.9239 464.802 172.514 464.802 172.514 540.392 96.9239 540.392Z" fill="#FFFFFF" fill-rule="evenodd"/><path d="M172.514 464.802 248.105 464.802 248.105 540.392 172.514 540.392Z" fill="#FFFFFF" fill-rule="evenodd"/><path d="M248.105 464.802 323.696 464.802 323.696 540.392 248.105 540.392Z" fill="#FFFFFF" fill-rule="evenodd"/><path d="M323.696 464.802 399.286 464.802 399.286 540.392 323.696 540.392Z" fill="#FFFFFF" fill-rule="evenodd"/><path d="M399.286 464.802 474.877 464.802 474.877 540.392 399.286 540.392Z" fill="#FFFFFF" fill-rule="evenodd"/><path d="M474.877 464.802 550.467 464.802 550.467 540.392 474.877 540.392Z" fill="#FFFFFF" fill-rule="evenodd"/><path d="M550.467 464.802 626.058 464.802 626.058 540.392 550.467 540.392Z" fill="#FFFFFF" fill-rule="evenodd"/><path d="M96.9239 237.363 96.9239 541.059" stroke="#000000" stroke-width="1.33333" stroke-linejoin="round" stroke-miterlimit="10" fill="none" fill-rule="evenodd"/><path d="M172.514 237.363 172.514 541.059" stroke="#000000" stroke-width="1.33333" stroke-linejoin="round" stroke-miterlimit="10" fill="none" fill-rule="evenodd"/><path d="M248.105 237.363 248.105 541.059" stroke="#000000" stroke-width="1.33333" stroke-linejoin="round" stroke-miterlimit="10" fill="none" fill-rule="evenodd"/><path d="M323.696 237.363 323.696 541.059" stroke="#000000" stroke-width="1.33333" stroke-linejoin="round" stroke-miterlimit="10" fill="none" fill-rule="evenodd"/><path d="M399.286 237.363 399.286 541.059" stroke="#000000" stroke-width="1.33333" stroke-linejoin="round" stroke-miterlimit="10" fill="none" fill-rule="evenodd"/><path d="M474.877 237.363 474.877 541.059" stroke="#000000" stroke-width="1.33333" stroke-linejoin="round" stroke-miterlimit="10" fill="none" fill-rule="evenodd"/><path d="M550.467 237.363 550.467 541.059" stroke="#000000" stroke-width="1.33333" stroke-linejoin="round" stroke-miterlimit="10" fill="none" fill-rule="evenodd"/><path d="M96.2572 313.621 626.724 313.621" stroke="#000000" stroke-width="1.33333" stroke-linejoin="round" stroke-miterlimit="10" fill="none" fill-rule="evenodd"/><path d="M96.2572 389.211 626.724 389.211" stroke="#000000" stroke-width="1.33333" stroke-linejoin="round" stroke-miterlimit="10" fill="none" fill-rule="evenodd"/><path d="M96.2572 464.802 626.724 464.802" stroke="#000000" stroke-width="1.33333" stroke-linejoin="round" stroke-miterlimit="10" fill="none" fill-rule="evenodd"/><path d="M96.2572 540.392 626.724 540.392" stroke="#000000" stroke-width="1.33333" stroke-linejoin="round" stroke-miterlimit="10" fill="none" fill-rule="evenodd"/><path d="M626.058 237.363 626.058 541.059" stroke="#000000" stroke-width="1.33333" stroke-linejoin="round" stroke-miterlimit="10" fill="none" fill-rule="evenodd"/><path d="M96.2572 238.03 626.724 238.03" stroke="#000000" stroke-width="1.33333" stroke-linejoin="round" stroke-miterlimit="10" fill="none" fill-rule="evenodd"/><g clip-path="url(#clip1)"><text font-family="Times New Roman,Times New Roman_MSFontService,sans-serif" font-weight="700" font-size="20" transform="translate(77.2667 283)">0</text></g><text font-family="Times New Roman,Times New Roman_MSFontService,sans-serif" font-weight="700" font-size="24" transform="translate(127.386 284)">P<tspan font-size="24" x="229.438" y="0">I</tspan><tspan font-size="24" x="452.21" y="0">N</tspan></text><g clip-path="url(#clip2)"><text font-family="Times New Roman,Times New Roman_MSFontService,sans-serif" font-weight="700" font-size="20" transform="translate(77.2667 358)">1</text></g><text font-family="Times New Roman,Times New Roman_MSFontService,sans-serif" font-weight="700" font-size="24" transform="translate(126.052 360)">A<tspan font-size="24" x="151.848" y="0">L</tspan><tspan font-size="24" x="228.772" y="0">S</tspan><tspan font-size="24" x="381.953" y="0">I</tspan><tspan font-size="24" x="452.877" y="0">G</tspan></text><g clip-path="url(#clip3)"><text font-family="Times New Roman,Times New Roman_MSFontService,sans-serif" font-weight="700" font-size="20" transform="translate(77.2667 434)">2</text></g><text font-family="Times New Roman,Times New Roman_MSFontService,sans-serif" font-weight="700" font-size="24" transform="translate(126.052 436)">Y<tspan font-size="24" x="75.5905" y="0">A</tspan><tspan font-size="24" x="226.105" y="0">H</tspan><tspan font-size="24" x="302.362" y="0">R</tspan></text><g clip-path="url(#clip4)"><text font-family="Times New Roman,Times New Roman_MSFontService,sans-serif" font-weight="700" font-size="20" transform="translate(77.2667 510)">3</text></g><text font-family="Times New Roman,Times New Roman_MSFontService,sans-serif" font-weight="700" font-size="24" transform="translate(127.386 511)">P<tspan font-size="24" x="229.438" y="0">I</tspan><tspan font-size="20" x="2.33333" y="53">0</tspan><tspan font-size="20" x="77.9239" y="53">1</tspan><tspan font-size="20" x="153.514" y="53">2</tspan><tspan font-size="20" x="229.105" y="53">3</tspan><tspan font-size="20" x="304.696" y="53">4</tspan><tspan font-size="20" x="380.286" y="53">5</tspan><tspan font-size="20" x="455.877" y="53">6</tspan><tspan font-family="DengXian,DengXian_MSFontService,sans-serif" font-size="24" x="-56.8395" y="122">从左往右逐行读取，产生出一个新的字符串，并输出</tspan></text><path d="M7.24901e-07-2 569.317-1.99979 569.317 2.00021-7.24901e-07 2ZM567.317-5.99979 579.317 0.000209974 567.317 6.00021Z" fill="#4472C4" transform="matrix(1 0 0 -1 115 292)"/><text font-family="Times New Roman,Times New Roman_MSFontService,sans-serif" font-weight="700" font-size="24" transform="translate(704.546 300)">PIN</text><path d="M7.24901e-07-2 569.317-1.99979 569.317 2.00021-7.24901e-07 2ZM567.317-5.99979 579.317 0.000209974 567.317 6.00021Z" fill="#4472C4" transform="matrix(1 0 0 -1 115 367)"/><text font-family="Times New Roman,Times New Roman_MSFontService,sans-serif" font-weight="700" font-size="24" transform="translate(709.659 375)">ALSIG</text><path d="M7.24901e-07-2 569.317-1.99979 569.317 2.00021-7.24901e-07 2ZM567.317-5.99979 579.317 0.000209974 567.317 6.00021Z" fill="#4472C4" transform="matrix(1 0 0 -1 115 444)"/><text font-family="Times New Roman,Times New Roman_MSFontService,sans-serif" font-weight="700" font-size="24" transform="translate(708.425 452)">YAHR</text><path d="M7.24901e-07-2 569.317-1.99979 569.317 2.00021-7.24901e-07 2ZM567.317-5.99979 579.317 0.000209974 567.317 6.00021Z" fill="#4472C4" transform="matrix(1 0 0 -1 115 517)"/><text font-family="Times New Roman,Times New Roman_MSFontService,sans-serif" font-weight="700" font-size="24" transform="translate(713.213 526)">PI</text><path d="M801 273 801 559.721 797 559.721 797 273ZM805 557.721 799 569.721 793 557.721Z" fill="#4472C4"/><text font-family="Times New Roman,Times New Roman_MSFontService,sans-serif" font-weight="700" font-size="24" transform="translate(638.425 634)">PINALSIGYAHRPI</text></g></svg>